<svg width="88" height="31" viewBox="0 0 88 31" fill="none" xmlns="http://www.w3.org/2000/svg">
<path d="M0 0H88V31H0V0Z" fill="url(#paint0_linear_43_35)"/>
<path d="M34.336 22.632C34.704 22.632 35.0187 22.712 35.28 22.872C35.5467 23.032 35.7493 23.2587 35.888 23.552C36.032 23.84 36.104 24.1787 36.104 24.568V24.992H33.168C33.1787 25.4773 33.3013 25.848 33.536 26.104C33.776 26.3547 34.1093 26.48 34.536 26.48C34.808 26.48 35.048 26.456 35.256 26.408C35.4693 26.3547 35.688 26.28 35.912 26.184V26.8C35.6933 26.896 35.4773 26.9653 35.264 27.008C35.0507 27.056 34.7973 27.08 34.504 27.08C34.0987 27.08 33.7387 26.9973 33.424 26.832C33.1147 26.6667 32.872 26.4213 32.696 26.096C32.5253 25.7653 32.44 25.3627 32.44 24.888C32.44 24.4187 32.5173 24.016 32.672 23.68C32.832 23.344 33.0533 23.0853 33.336 22.904C33.624 22.7227 33.9573 22.632 34.336 22.632ZM34.328 23.208C33.992 23.208 33.7253 23.3173 33.528 23.536C33.336 23.7493 33.2213 24.048 33.184 24.432H35.368C35.368 24.1867 35.3307 23.9733 35.256 23.792C35.1813 23.6107 35.0667 23.4693 34.912 23.368C34.7627 23.2613 34.568 23.208 34.328 23.208Z" fill="white"/>
<path d="M37.8996 22.712V27H37.1956V22.712H37.8996ZM37.5556 21.104C37.6623 21.104 37.7556 21.1413 37.8356 21.216C37.921 21.2853 37.9636 21.3973 37.9636 21.552C37.9636 21.7013 37.921 21.8133 37.8356 21.888C37.7556 21.9627 37.6623 22 37.5556 22C37.4383 22 37.3396 21.9627 37.2596 21.888C37.1796 21.8133 37.1396 21.7013 37.1396 21.552C37.1396 21.3973 37.1796 21.2853 37.2596 21.216C37.3396 21.1413 37.4383 21.104 37.5556 21.104Z" fill="white"/>
<path d="M39.9621 27H39.2581V20.92H39.9621V27Z" fill="white"/>
<path d="M42.0246 22.712V27H41.3206V22.712H42.0246ZM41.6806 21.104C41.7873 21.104 41.8806 21.1413 41.9606 21.216C42.046 21.2853 42.0886 21.3973 42.0886 21.552C42.0886 21.7013 42.046 21.8133 41.9606 21.888C41.8806 21.9627 41.7873 22 41.6806 22C41.5633 22 41.4646 21.9627 41.3846 21.888C41.3046 21.8133 41.2646 21.7013 41.2646 21.552C41.2646 21.3973 41.3046 21.2853 41.3846 21.216C41.4646 21.1413 41.5633 21.104 41.6806 21.104Z" fill="white"/>
<path d="M47.1111 24.848C47.1111 25.2053 47.0631 25.5227 46.9671 25.8C46.8765 26.072 46.7431 26.304 46.5671 26.496C46.3965 26.688 46.1858 26.8347 45.9351 26.936C45.6898 27.032 45.4151 27.08 45.1111 27.08C44.8285 27.08 44.5671 27.032 44.3271 26.936C44.0871 26.8347 43.8791 26.688 43.7031 26.496C43.5271 26.304 43.3885 26.072 43.2871 25.8C43.1911 25.5227 43.1431 25.2053 43.1431 24.848C43.1431 24.3733 43.2231 23.9733 43.3831 23.648C43.5431 23.3173 43.7725 23.0667 44.0711 22.896C44.3698 22.72 44.7245 22.632 45.1351 22.632C45.5245 22.632 45.8658 22.72 46.1591 22.896C46.4578 23.0667 46.6898 23.3173 46.8551 23.648C47.0258 23.9733 47.1111 24.3733 47.1111 24.848ZM43.8711 24.848C43.8711 25.184 43.9138 25.4773 43.9991 25.728C44.0898 25.9733 44.2285 26.1627 44.4151 26.296C44.6018 26.4293 44.8391 26.496 45.1271 26.496C45.4151 26.496 45.6525 26.4293 45.8391 26.296C46.0258 26.1627 46.1618 25.9733 46.2471 25.728C46.3378 25.4773 46.3831 25.184 46.3831 24.848C46.3831 24.5067 46.3378 24.216 46.2471 23.976C46.1565 23.736 46.0178 23.552 45.8311 23.424C45.6498 23.2907 45.4125 23.224 45.1191 23.224C44.6818 23.224 44.3645 23.368 44.1671 23.656C43.9698 23.944 43.8711 24.3413 43.8711 24.848Z" fill="white"/>
<path d="M48.9309 22.712V27H48.2269V22.712H48.9309ZM48.5869 21.104C48.6935 21.104 48.7869 21.1413 48.8669 21.216C48.9522 21.2853 48.9949 21.3973 48.9949 21.552C48.9949 21.7013 48.9522 21.8133 48.8669 21.888C48.7869 21.9627 48.6935 22 48.5869 22C48.4695 22 48.3709 21.9627 48.2909 21.888C48.2109 21.8133 48.1709 21.7013 48.1709 21.552C48.1709 21.3973 48.2109 21.2853 48.2909 21.216C48.3709 21.1413 48.4695 21.104 48.5869 21.104Z" fill="white"/>
<path d="M54.9934 22.632C55.4787 22.632 55.8414 22.7573 56.0814 23.008C56.3214 23.2533 56.4414 23.6533 56.4414 24.208V27H55.7454V24.24C55.7454 23.904 55.6734 23.6507 55.5294 23.48C55.3907 23.3093 55.172 23.224 54.8734 23.224C54.4574 23.224 54.1587 23.344 53.9774 23.584C53.8014 23.824 53.7134 24.1733 53.7134 24.632V27H53.0174V24.24C53.0174 24.016 52.9854 23.8293 52.9214 23.68C52.8574 23.5253 52.7614 23.4107 52.6334 23.336C52.5054 23.2613 52.34 23.224 52.1374 23.224C51.8494 23.224 51.6227 23.2853 51.4574 23.408C51.292 23.5253 51.172 23.6987 51.0974 23.928C51.028 24.1573 50.9934 24.44 50.9934 24.776V27H50.2894V22.712H50.8574L50.9614 23.296H51.0014C51.092 23.1467 51.2014 23.024 51.3294 22.928C51.4627 22.8267 51.6094 22.752 51.7694 22.704C51.9294 22.656 52.0947 22.632 52.2654 22.632C52.596 22.632 52.8707 22.6907 53.0894 22.808C53.3134 22.9253 53.476 23.1067 53.5774 23.352H53.6174C53.7614 23.1067 53.956 22.9253 54.2014 22.808C54.452 22.6907 54.716 22.632 54.9934 22.632Z" fill="white"/>
<path d="M59.3899 22.64C59.9126 22.64 60.2993 22.7547 60.5499 22.984C60.8006 23.2133 60.9259 23.5787 60.9259 24.08V27H60.4139L60.2779 26.392H60.2459C60.1233 26.5467 59.9953 26.6773 59.8619 26.784C59.7339 26.8853 59.5846 26.96 59.4139 27.008C59.2486 27.056 59.0459 27.08 58.8059 27.08C58.5499 27.08 58.3179 27.0347 58.1099 26.944C57.9073 26.8533 57.7473 26.7147 57.6299 26.528C57.5126 26.336 57.4539 26.096 57.4539 25.808C57.4539 25.3813 57.6219 25.0533 57.9579 24.824C58.2939 24.5893 58.8113 24.4613 59.5099 24.44L60.2379 24.416V24.16C60.2379 23.8027 60.1606 23.5547 60.0059 23.416C59.8513 23.2773 59.6326 23.208 59.3499 23.208C59.1259 23.208 58.9126 23.2427 58.7099 23.312C58.5073 23.376 58.3179 23.4507 58.1419 23.536L57.9259 23.008C58.1126 22.9067 58.3339 22.8213 58.5899 22.752C58.8459 22.6773 59.1126 22.64 59.3899 22.64ZM59.5979 24.928C59.0646 24.9493 58.6939 25.0347 58.4859 25.184C58.2833 25.3333 58.1819 25.544 58.1819 25.816C58.1819 26.056 58.2539 26.232 58.3979 26.344C58.5473 26.456 58.7366 26.512 58.9659 26.512C59.3286 26.512 59.6299 26.4133 59.8699 26.216C60.1099 26.0133 60.2299 25.704 60.2299 25.288V24.904L59.5979 24.928Z" fill="white"/>
<path d="M63.9703 27.08C63.5916 27.08 63.253 27.0027 62.9543 26.848C62.661 26.6933 62.429 26.4533 62.2583 26.128C62.093 25.8027 62.0103 25.3867 62.0103 24.88C62.0103 24.352 62.0983 23.9227 62.2743 23.592C62.4503 23.2613 62.6876 23.0187 62.9863 22.864C63.2903 22.7093 63.6343 22.632 64.0183 22.632C64.237 22.632 64.4476 22.656 64.6503 22.704C64.853 22.7467 65.0183 22.8 65.1463 22.864L64.9303 23.448C64.8023 23.4 64.653 23.3547 64.4823 23.312C64.3116 23.2693 64.1516 23.248 64.0023 23.248C63.7143 23.248 63.477 23.3093 63.2903 23.432C63.1036 23.5547 62.965 23.736 62.8743 23.976C62.7836 24.216 62.7383 24.5147 62.7383 24.872C62.7383 25.2133 62.7836 25.504 62.8743 25.744C62.965 25.984 63.101 26.1653 63.2823 26.288C63.4636 26.4107 63.6903 26.472 63.9623 26.472C64.197 26.472 64.4023 26.448 64.5783 26.4C64.7596 26.352 64.925 26.2933 65.0743 26.224V26.848C64.9303 26.9227 64.7703 26.9787 64.5943 27.016C64.4236 27.0587 64.2156 27.08 63.9703 27.08Z" fill="white"/>
<path d="M67.7181 22.64C68.2407 22.64 68.6274 22.7547 68.8781 22.984C69.1287 23.2133 69.2541 23.5787 69.2541 24.08V27H68.7421L68.6061 26.392H68.5741C68.4514 26.5467 68.3234 26.6773 68.1901 26.784C68.0621 26.8853 67.9127 26.96 67.7421 27.008C67.5767 27.056 67.3741 27.08 67.1341 27.08C66.8781 27.08 66.6461 27.0347 66.4381 26.944C66.2354 26.8533 66.0754 26.7147 65.9581 26.528C65.8407 26.336 65.7821 26.096 65.7821 25.808C65.7821 25.3813 65.9501 25.0533 66.2861 24.824C66.6221 24.5893 67.1394 24.4613 67.8381 24.44L68.5661 24.416V24.16C68.5661 23.8027 68.4887 23.5547 68.3341 23.416C68.1794 23.2773 67.9607 23.208 67.6781 23.208C67.4541 23.208 67.2407 23.2427 67.0381 23.312C66.8354 23.376 66.6461 23.4507 66.4701 23.536L66.2541 23.008C66.4407 22.9067 66.6621 22.8213 66.9181 22.752C67.1741 22.6773 67.4407 22.64 67.7181 22.64ZM67.9261 24.928C67.3927 24.9493 67.0221 25.0347 66.8141 25.184C66.6114 25.3333 66.5101 25.544 66.5101 25.816C66.5101 26.056 66.5821 26.232 66.7261 26.344C66.8754 26.456 67.0647 26.512 67.2941 26.512C67.6567 26.512 67.9581 26.4133 68.1981 26.216C68.4381 26.0133 68.5581 25.704 68.5581 25.288V24.904L67.9261 24.928Z" fill="white"/>
<path d="M72.0104 26.504C72.1171 26.504 72.2264 26.496 72.3384 26.48C72.4504 26.4587 72.5411 26.4373 72.6104 26.416V26.952C72.5358 26.9893 72.4291 27.0187 72.2904 27.04C72.1518 27.0667 72.0184 27.08 71.8904 27.08C71.6664 27.08 71.4584 27.0427 71.2664 26.968C71.0798 26.888 70.9278 26.752 70.8104 26.56C70.6931 26.368 70.6344 26.0987 70.6344 25.752V23.256H70.0264V22.92L70.6424 22.64L70.9224 21.728H71.3384V22.712H72.5784V23.256H71.3384V25.736C71.3384 25.9973 71.3998 26.192 71.5224 26.32C71.6504 26.4427 71.8131 26.504 72.0104 26.504Z" fill="white"/>
<path d="M73.3651 26.568C73.3651 26.3707 73.4131 26.232 73.5091 26.152C73.6051 26.072 73.7197 26.032 73.8531 26.032C73.9917 26.032 74.1091 26.072 74.2051 26.152C74.3064 26.232 74.3571 26.3707 74.3571 26.568C74.3571 26.76 74.3064 26.8987 74.2051 26.984C74.1091 27.0693 73.9917 27.112 73.8531 27.112C73.7197 27.112 73.6051 27.0693 73.5091 26.984C73.4131 26.8987 73.3651 26.76 73.3651 26.568Z" fill="white"/>
<path d="M76.6257 24.808L75.1457 22.712H75.9457L77.0497 24.328L78.1457 22.712H78.9377L77.4577 24.808L79.0177 27H78.2177L77.0497 25.288L75.8657 27H75.0737L76.6257 24.808Z" fill="white"/>
<path d="M79.1721 22.712H79.9241L80.8521 25.152C80.9054 25.296 80.9534 25.4347 80.9961 25.568C81.0441 25.7013 81.0867 25.832 81.1241 25.96C81.1614 26.0827 81.1907 26.2027 81.2121 26.32H81.2441C81.2761 26.1867 81.3267 26.0133 81.3961 25.8C81.4654 25.5813 81.5374 25.3627 81.6121 25.144L82.4841 22.712H83.2441L81.3961 27.592C81.2947 27.8587 81.1747 28.0907 81.0361 28.288C80.9027 28.4907 80.7374 28.6453 80.5401 28.752C80.3481 28.864 80.1134 28.92 79.8361 28.92C79.7081 28.92 79.5961 28.912 79.5001 28.896C79.4041 28.8853 79.3214 28.872 79.2521 28.856V28.296C79.3107 28.3067 79.3801 28.3173 79.4601 28.328C79.5454 28.3387 79.6334 28.344 79.7241 28.344C79.8894 28.344 80.0307 28.312 80.1481 28.248C80.2707 28.1893 80.3747 28.1013 80.4601 27.984C80.5454 27.872 80.6174 27.7387 80.6761 27.584L80.9001 27.016L79.1721 22.712Z" fill="white"/>
<path d="M86.6902 27H83.5542V26.536L85.8582 23.256H83.6902V22.712H86.6342V23.24L84.3622 26.456H86.6902V27Z" fill="white"/>
<path d="M32.683 12H31.873V5.574H35.464V6.285H32.683V8.562H35.293V9.273H32.683V12Z" fill="#B3B6BA"/>
<path d="M40.626 9.579C40.626 9.981 40.572 10.338 40.464 10.65C40.362 10.956 40.212 11.217 40.014 11.433C39.822 11.649 39.585 11.814 39.303 11.928C39.027 12.036 38.718 12.09 38.376 12.09C38.058 12.09 37.764 12.036 37.494 11.928C37.224 11.814 36.99 11.649 36.792 11.433C36.594 11.217 36.438 10.956 36.324 10.65C36.216 10.338 36.162 9.981 36.162 9.579C36.162 9.045 36.252 8.595 36.432 8.229C36.612 7.857 36.87 7.575 37.206 7.383C37.542 7.185 37.941 7.086 38.403 7.086C38.841 7.086 39.225 7.185 39.555 7.383C39.891 7.575 40.152 7.857 40.338 8.229C40.53 8.595 40.626 9.045 40.626 9.579ZM36.981 9.579C36.981 9.957 37.029 10.287 37.125 10.569C37.227 10.845 37.383 11.058 37.593 11.208C37.803 11.358 38.07 11.433 38.394 11.433C38.718 11.433 38.985 11.358 39.195 11.208C39.405 11.058 39.558 10.845 39.654 10.569C39.756 10.287 39.807 9.957 39.807 9.579C39.807 9.195 39.756 8.868 39.654 8.598C39.552 8.328 39.396 8.121 39.186 7.977C38.982 7.827 38.715 7.752 38.385 7.752C37.893 7.752 37.536 7.914 37.314 8.238C37.092 8.562 36.981 9.009 36.981 9.579Z" fill="#B3B6BA"/>
<path d="M42.6732 12H41.8812V5.16H42.6732V12Z" fill="#B3B6BA"/>
<path d="M44.9935 12H44.2015V5.16H44.9935V12Z" fill="#B3B6BA"/>
<path d="M50.7158 9.579C50.7158 9.981 50.6618 10.338 50.5538 10.65C50.4518 10.956 50.3018 11.217 50.1038 11.433C49.9118 11.649 49.6748 11.814 49.3928 11.928C49.1168 12.036 48.8078 12.09 48.4658 12.09C48.1478 12.09 47.8538 12.036 47.5838 11.928C47.3138 11.814 47.0798 11.649 46.8818 11.433C46.6838 11.217 46.5278 10.956 46.4138 10.65C46.3058 10.338 46.2518 9.981 46.2518 9.579C46.2518 9.045 46.3418 8.595 46.5218 8.229C46.7018 7.857 46.9598 7.575 47.2958 7.383C47.6318 7.185 48.0308 7.086 48.4928 7.086C48.9308 7.086 49.3148 7.185 49.6448 7.383C49.9808 7.575 50.2418 7.857 50.4278 8.229C50.6198 8.595 50.7158 9.045 50.7158 9.579ZM47.0708 9.579C47.0708 9.957 47.1188 10.287 47.2148 10.569C47.3168 10.845 47.4728 11.058 47.6828 11.208C47.8928 11.358 48.1598 11.433 48.4838 11.433C48.8078 11.433 49.0748 11.358 49.2848 11.208C49.4948 11.058 49.6478 10.845 49.7438 10.569C49.8458 10.287 49.8968 9.957 49.8968 9.579C49.8968 9.195 49.8458 8.868 49.7438 8.598C49.6418 8.328 49.4858 8.121 49.2758 7.977C49.0718 7.827 48.8048 7.752 48.4748 7.752C47.9828 7.752 47.6258 7.914 47.4038 8.238C47.1818 8.562 47.0708 9.009 47.0708 9.579Z" fill="#B3B6BA"/>
<path d="M54.9093 9.273C54.8733 9.147 54.8373 9.024 54.8013 8.904C54.7653 8.778 54.7323 8.661 54.7023 8.553C54.6783 8.439 54.6543 8.334 54.6303 8.238C54.6063 8.142 54.5883 8.061 54.5763 7.995H54.5403C54.5283 8.061 54.5103 8.142 54.4863 8.238C54.4683 8.334 54.4443 8.439 54.4143 8.553C54.3903 8.667 54.3603 8.787 54.3243 8.913C54.2943 9.033 54.2583 9.156 54.2163 9.282L53.3523 11.991H52.4523L51.1293 7.167H51.9483L52.6143 9.741C52.6623 9.915 52.7073 10.092 52.7493 10.272C52.7913 10.446 52.8273 10.614 52.8573 10.776C52.8933 10.932 52.9173 11.067 52.9293 11.181H52.9653C52.9833 11.109 53.0043 11.019 53.0283 10.911C53.0523 10.803 53.0763 10.689 53.1003 10.569C53.1303 10.449 53.1603 10.329 53.1903 10.209C53.2263 10.089 53.2593 9.981 53.2893 9.885L54.1443 7.167H55.0083L55.8363 9.885C55.8783 10.023 55.9203 10.17 55.9623 10.326C56.0103 10.482 56.0523 10.635 56.0883 10.785C56.1243 10.929 56.1483 11.058 56.1603 11.172H56.1963C56.2083 11.07 56.2293 10.944 56.2593 10.794C56.2953 10.638 56.3343 10.47 56.3763 10.29C56.4243 10.104 56.4723 9.921 56.5203 9.741L57.1953 7.167H58.0053L56.6643 11.991H55.7373L54.9093 9.273Z" fill="#B3B6BA"/>
<path d="M64.1514 12L62.0364 6.366H62.0004C62.0124 6.486 62.0214 6.639 62.0274 6.825C62.0394 7.011 62.0484 7.215 62.0544 7.437C62.0604 7.653 62.0634 7.875 62.0634 8.103V12H61.3164V5.574H62.5134L64.4934 10.839H64.5294L66.5454 5.574H67.7334V12H66.9324V8.049C66.9324 7.839 66.9354 7.632 66.9414 7.428C66.9474 7.218 66.9564 7.023 66.9684 6.843C66.9804 6.657 66.9894 6.501 66.9954 6.375H66.9594L64.8174 12H64.1514Z" fill="#B3B6BA"/>
<path d="M71.2364 7.086C71.6504 7.086 72.0044 7.176 72.2984 7.356C72.5984 7.536 72.8264 7.791 72.9824 8.121C73.1444 8.445 73.2254 8.826 73.2254 9.264V9.741H69.9224C69.9344 10.287 70.0724 10.704 70.3364 10.992C70.6064 11.274 70.9814 11.415 71.4614 11.415C71.7674 11.415 72.0374 11.388 72.2714 11.334C72.5114 11.274 72.7574 11.19 73.0094 11.082V11.775C72.7634 11.883 72.5204 11.961 72.2804 12.009C72.0404 12.063 71.7554 12.09 71.4254 12.09C70.9694 12.09 70.5644 11.997 70.2104 11.811C69.8624 11.625 69.5894 11.349 69.3914 10.983C69.1994 10.611 69.1034 10.158 69.1034 9.624C69.1034 9.096 69.1904 8.643 69.3644 8.265C69.5444 7.887 69.7934 7.596 70.1114 7.392C70.4354 7.188 70.8104 7.086 71.2364 7.086ZM71.2274 7.734C70.8494 7.734 70.5494 7.857 70.3274 8.103C70.1114 8.343 69.9824 8.679 69.9404 9.111H72.3974C72.3974 8.835 72.3554 8.595 72.2714 8.391C72.1874 8.187 72.0584 8.028 71.8844 7.914C71.7164 7.794 71.4974 7.734 71.2274 7.734Z" fill="#B3B6BA"/>
<path d="M8.41908 4.68281C11.2853 7.12665 14.3682 12.0818 15.5001 14.741C16.632 12.082 19.7148 7.1266 22.5811 4.68281C24.6492 2.91943 28 1.55502 28 5.89663C28 6.76371 27.5623 13.1805 27.3056 14.2223C26.4132 17.8441 23.1614 18.7679 20.269 18.2088C25.325 19.1861 26.6112 22.4233 23.8335 25.6606C18.5581 31.8088 16.2512 24.118 15.6598 22.1473C15.5515 21.7861 15.5007 21.6171 15.5 21.7608C15.4992 21.6171 15.4485 21.7861 15.3402 22.1473C14.7491 24.118 12.4422 31.809 7.16653 25.6606C4.38878 22.4233 5.67494 19.1859 10.731 18.2088C7.83846 18.7679 4.58667 17.8441 3.69444 14.2223C3.4377 13.1804 3 6.76361 3 5.89663C3 1.55502 6.35108 2.91943 8.41908 4.68281Z" fill="black"/>
<defs>
<linearGradient id="paint0_linear_43_35" x1="0" y1="15.5" x2="88" y2="15.5" gradientUnits="userSpaceOnUse">
<stop stop-color="#1185FE"/>
<stop offset="1" stop-color="#1D1D1D"/>
</linearGradient>
</defs>
</svg>
