<svg width="88" height="31" viewBox="0 0 88 31" fill="none" xmlns="http://www.w3.org/2000/svg">
<path d="M0 0H88V31H0V0Z" fill="url(#paint0_linear_41_36)"/>
<path d="M39.46 23.27C39.69 23.27 39.8867 23.32 40.05 23.42C40.2167 23.52 40.3433 23.6617 40.43 23.845C40.52 24.025 40.565 24.2367 40.565 24.48V24.745H38.73C38.7367 25.0483 38.8133 25.28 38.96 25.44C39.11 25.5967 39.3183 25.675 39.585 25.675C39.755 25.675 39.905 25.66 40.035 25.63C40.1683 25.5967 40.305 25.55 40.445 25.49V25.875C40.3083 25.935 40.1733 25.9783 40.04 26.005C39.9067 26.035 39.7483 26.05 39.565 26.05C39.3117 26.05 39.0867 25.9983 38.89 25.895C38.6967 25.7917 38.545 25.6383 38.435 25.435C38.3283 25.2283 38.275 24.9767 38.275 24.68C38.275 24.3867 38.3233 24.135 38.42 23.925C38.52 23.715 38.6583 23.5533 38.835 23.44C39.015 23.3267 39.2233 23.27 39.46 23.27ZM39.455 23.63C39.245 23.63 39.0783 23.6983 38.955 23.835C38.835 23.9683 38.7633 24.155 38.74 24.395H40.105C40.105 24.2417 40.0817 24.1083 40.035 23.995C39.9883 23.8817 39.9167 23.7933 39.82 23.73C39.7267 23.6633 39.605 23.63 39.455 23.63Z" fill="white"/>
<path d="M41.6873 23.32V26H41.2473V23.32H41.6873ZM41.4723 22.315C41.5389 22.315 41.5973 22.3383 41.6473 22.385C41.7006 22.4283 41.7273 22.4983 41.7273 22.595C41.7273 22.6883 41.7006 22.7583 41.6473 22.805C41.5973 22.8517 41.5389 22.875 41.4723 22.875C41.3989 22.875 41.3373 22.8517 41.2873 22.805C41.2373 22.7583 41.2123 22.6883 41.2123 22.595C41.2123 22.4983 41.2373 22.4283 41.2873 22.385C41.3373 22.3383 41.3989 22.315 41.4723 22.315Z" fill="white"/>
<path d="M42.9763 26H42.5363V22.2H42.9763V26Z" fill="white"/>
<path d="M44.2654 23.32V26H43.8254V23.32H44.2654ZM44.0504 22.315C44.1171 22.315 44.1754 22.3383 44.2254 22.385C44.2787 22.4283 44.3054 22.4983 44.3054 22.595C44.3054 22.6883 44.2787 22.7583 44.2254 22.805C44.1754 22.8517 44.1171 22.875 44.0504 22.875C43.9771 22.875 43.9154 22.8517 43.8654 22.805C43.8154 22.7583 43.7904 22.6883 43.7904 22.595C43.7904 22.4983 43.8154 22.4283 43.8654 22.385C43.9154 22.3383 43.9771 22.315 44.0504 22.315Z" fill="white"/>
<path d="M47.4445 24.655C47.4445 24.8783 47.4145 25.0767 47.3545 25.25C47.2978 25.42 47.2145 25.565 47.1045 25.685C46.9978 25.805 46.8661 25.8967 46.7095 25.96C46.5561 26.02 46.3845 26.05 46.1945 26.05C46.0178 26.05 45.8545 26.02 45.7045 25.96C45.5545 25.8967 45.4245 25.805 45.3145 25.685C45.2045 25.565 45.1178 25.42 45.0545 25.25C44.9945 25.0767 44.9645 24.8783 44.9645 24.655C44.9645 24.3583 45.0145 24.1083 45.1145 23.905C45.2145 23.6983 45.3578 23.5417 45.5445 23.435C45.7311 23.325 45.9528 23.27 46.2095 23.27C46.4528 23.27 46.6661 23.325 46.8495 23.435C47.0361 23.5417 47.1811 23.6983 47.2845 23.905C47.3911 24.1083 47.4445 24.3583 47.4445 24.655ZM45.4195 24.655C45.4195 24.865 45.4461 25.0483 45.4995 25.205C45.5561 25.3583 45.6428 25.4767 45.7595 25.56C45.8761 25.6433 46.0245 25.685 46.2045 25.685C46.3845 25.685 46.5328 25.6433 46.6495 25.56C46.7661 25.4767 46.8511 25.3583 46.9045 25.205C46.9611 25.0483 46.9895 24.865 46.9895 24.655C46.9895 24.4417 46.9611 24.26 46.9045 24.11C46.8478 23.96 46.7611 23.845 46.6445 23.765C46.5311 23.6817 46.3828 23.64 46.1995 23.64C45.9261 23.64 45.7278 23.73 45.6045 23.91C45.4811 24.09 45.4195 24.3383 45.4195 24.655Z" fill="white"/>
<path d="M48.5818 23.32V26H48.1418V23.32H48.5818ZM48.3668 22.315C48.4335 22.315 48.4918 22.3383 48.5418 22.385C48.5951 22.4283 48.6218 22.4983 48.6218 22.595C48.6218 22.6883 48.5951 22.7583 48.5418 22.805C48.4918 22.8517 48.4335 22.875 48.3668 22.875C48.2935 22.875 48.2318 22.8517 48.1818 22.805C48.1318 22.7583 48.1068 22.6883 48.1068 22.595C48.1068 22.4983 48.1318 22.4283 48.1818 22.385C48.2318 22.3383 48.2935 22.315 48.3668 22.315Z" fill="white"/>
<path d="M52.3709 23.27C52.6742 23.27 52.9009 23.3483 53.0509 23.505C53.2009 23.6583 53.2759 23.9083 53.2759 24.255V26H52.8409V24.275C52.8409 24.065 52.7959 23.9067 52.7059 23.8C52.6192 23.6933 52.4825 23.64 52.2959 23.64C52.0359 23.64 51.8492 23.715 51.7359 23.865C51.6259 24.015 51.5709 24.2333 51.5709 24.52V26H51.1359V24.275C51.1359 24.135 51.1159 24.0183 51.0759 23.925C51.0359 23.8283 50.9759 23.7567 50.8959 23.71C50.8159 23.6633 50.7125 23.64 50.5859 23.64C50.4059 23.64 50.2642 23.6783 50.1609 23.755C50.0575 23.8283 49.9825 23.9367 49.9359 24.08C49.8925 24.2233 49.8709 24.4 49.8709 24.61V26H49.4309V23.32H49.7859L49.8509 23.685H49.8759C49.9325 23.5917 50.0009 23.515 50.0809 23.455C50.1642 23.3917 50.2559 23.345 50.3559 23.315C50.4559 23.285 50.5592 23.27 50.6659 23.27C50.8725 23.27 51.0442 23.3067 51.1809 23.38C51.3209 23.4533 51.4225 23.5667 51.4859 23.72H51.5109C51.6009 23.5667 51.7225 23.4533 51.8759 23.38C52.0325 23.3067 52.1975 23.27 52.3709 23.27Z" fill="white"/>
<path d="M55.1187 23.275C55.4454 23.275 55.687 23.3467 55.8437 23.49C56.0004 23.6333 56.0787 23.8617 56.0787 24.175V26H55.7587L55.6737 25.62H55.6537C55.577 25.7167 55.497 25.7983 55.4137 25.865C55.3337 25.9283 55.2404 25.975 55.1337 26.005C55.0304 26.035 54.9037 26.05 54.7537 26.05C54.5937 26.05 54.4487 26.0217 54.3187 25.965C54.192 25.9083 54.092 25.8217 54.0187 25.705C53.9454 25.585 53.9087 25.435 53.9087 25.255C53.9087 24.9883 54.0137 24.7833 54.2237 24.64C54.4337 24.4933 54.757 24.4133 55.1937 24.4L55.6487 24.385V24.225C55.6487 24.0017 55.6004 23.8467 55.5037 23.76C55.407 23.6733 55.2704 23.63 55.0937 23.63C54.9537 23.63 54.8204 23.6517 54.6937 23.695C54.567 23.735 54.4487 23.7817 54.3387 23.835L54.2037 23.505C54.3204 23.4417 54.4587 23.3883 54.6187 23.345C54.7787 23.2983 54.9454 23.275 55.1187 23.275ZM55.2487 24.705C54.9154 24.7183 54.6837 24.7717 54.5537 24.865C54.427 24.9583 54.3637 25.09 54.3637 25.26C54.3637 25.41 54.4087 25.52 54.4987 25.59C54.592 25.66 54.7104 25.695 54.8537 25.695C55.0804 25.695 55.2687 25.6333 55.4187 25.51C55.5687 25.3833 55.6437 25.19 55.6437 24.93V24.69L55.2487 24.705Z" fill="white"/>
<path d="M57.9814 26.05C57.7448 26.05 57.5331 26.0017 57.3464 25.905C57.1631 25.8083 57.0181 25.6583 56.9114 25.455C56.8081 25.2517 56.7564 24.9917 56.7564 24.675C56.7564 24.345 56.8114 24.0767 56.9214 23.87C57.0314 23.6633 57.1798 23.5117 57.3664 23.415C57.5564 23.3183 57.7714 23.27 58.0114 23.27C58.1481 23.27 58.2798 23.285 58.4064 23.315C58.5331 23.3417 58.6364 23.375 58.7164 23.415L58.5814 23.78C58.5014 23.75 58.4081 23.7217 58.3014 23.695C58.1948 23.6683 58.0948 23.655 58.0014 23.655C57.8214 23.655 57.6731 23.6933 57.5564 23.77C57.4398 23.8467 57.3531 23.96 57.2964 24.11C57.2398 24.26 57.2114 24.4467 57.2114 24.67C57.2114 24.8833 57.2398 25.065 57.2964 25.215C57.3531 25.365 57.4381 25.4783 57.5514 25.555C57.6648 25.6317 57.8064 25.67 57.9764 25.67C58.1231 25.67 58.2514 25.655 58.3614 25.625C58.4748 25.595 58.5781 25.5583 58.6714 25.515V25.905C58.5814 25.9517 58.4814 25.9867 58.3714 26.01C58.2648 26.0367 58.1348 26.05 57.9814 26.05Z" fill="white"/>
<path d="M60.3238 23.275C60.6505 23.275 60.8921 23.3467 61.0488 23.49C61.2055 23.6333 61.2838 23.8617 61.2838 24.175V26H60.9638L60.8788 25.62H60.8588C60.7821 25.7167 60.7021 25.7983 60.6188 25.865C60.5388 25.9283 60.4455 25.975 60.3388 26.005C60.2355 26.035 60.1088 26.05 59.9588 26.05C59.7988 26.05 59.6538 26.0217 59.5238 25.965C59.3971 25.9083 59.2971 25.8217 59.2238 25.705C59.1505 25.585 59.1138 25.435 59.1138 25.255C59.1138 24.9883 59.2188 24.7833 59.4288 24.64C59.6388 24.4933 59.9621 24.4133 60.3988 24.4L60.8538 24.385V24.225C60.8538 24.0017 60.8055 23.8467 60.7088 23.76C60.6121 23.6733 60.4755 23.63 60.2988 23.63C60.1588 23.63 60.0255 23.6517 59.8988 23.695C59.7721 23.735 59.6538 23.7817 59.5438 23.835L59.4088 23.505C59.5255 23.4417 59.6638 23.3883 59.8238 23.345C59.9838 23.2983 60.1505 23.275 60.3238 23.275ZM60.4538 24.705C60.1205 24.7183 59.8888 24.7717 59.7588 24.865C59.6321 24.9583 59.5688 25.09 59.5688 25.26C59.5688 25.41 59.6138 25.52 59.7038 25.59C59.7971 25.66 59.9155 25.695 60.0588 25.695C60.2855 25.695 60.4738 25.6333 60.6238 25.51C60.7738 25.3833 60.8488 25.19 60.8488 24.93V24.69L60.4538 24.705Z" fill="white"/>
<path d="M63.0065 25.69C63.0732 25.69 63.1415 25.685 63.2115 25.675C63.2815 25.6617 63.3382 25.6483 63.3815 25.635V25.97C63.3349 25.9933 63.2682 26.0117 63.1815 26.025C63.0949 26.0417 63.0115 26.05 62.9315 26.05C62.7915 26.05 62.6615 26.0267 62.5415 25.98C62.4249 25.93 62.3299 25.845 62.2565 25.725C62.1832 25.605 62.1465 25.4367 62.1465 25.22V23.66H61.7665V23.45L62.1515 23.275L62.3265 22.705H62.5865V23.32H63.3615V23.66H62.5865V25.21C62.5865 25.3733 62.6249 25.495 62.7015 25.575C62.7815 25.6517 62.8832 25.69 63.0065 25.69Z" fill="white"/>
<path d="M63.8532 25.73C63.8532 25.6067 63.8832 25.52 63.9432 25.47C64.0032 25.42 64.0748 25.395 64.1582 25.395C64.2448 25.395 64.3182 25.42 64.3782 25.47C64.4415 25.52 64.4732 25.6067 64.4732 25.73C64.4732 25.85 64.4415 25.9367 64.3782 25.99C64.3182 26.0433 64.2448 26.07 64.1582 26.07C64.0748 26.07 64.0032 26.0433 63.9432 25.99C63.8832 25.9367 63.8532 25.85 63.8532 25.73Z" fill="white"/>
<path d="M65.8911 24.63L64.9661 23.32H65.4661L66.1561 24.33L66.8411 23.32H67.3361L66.4111 24.63L67.3861 26H66.8861L66.1561 24.93L65.4161 26H64.9211L65.8911 24.63Z" fill="white"/>
<path d="M67.4825 23.32H67.9525L68.5325 24.845C68.5659 24.935 68.5959 25.0217 68.6225 25.105C68.6525 25.1883 68.6792 25.27 68.7025 25.35C68.7259 25.4267 68.7442 25.5017 68.7575 25.575H68.7775C68.7975 25.4917 68.8292 25.3833 68.8725 25.25C68.9159 25.1133 68.9609 24.9767 69.0075 24.84L69.5525 23.32H70.0275L68.8725 26.37C68.8092 26.5367 68.7342 26.6817 68.6475 26.805C68.5642 26.9317 68.4609 27.0283 68.3375 27.095C68.2175 27.165 68.0709 27.2 67.8975 27.2C67.8175 27.2 67.7475 27.195 67.6875 27.185C67.6275 27.1783 67.5759 27.17 67.5325 27.16V26.81C67.5692 26.8167 67.6125 26.8233 67.6625 26.83C67.7159 26.8367 67.7709 26.84 67.8275 26.84C67.9309 26.84 68.0192 26.82 68.0925 26.78C68.1692 26.7433 68.2342 26.6883 68.2875 26.615C68.3409 26.545 68.3859 26.4617 68.4225 26.365L68.5625 26.01L67.4825 23.32Z" fill="white"/>
<path d="M72.1814 26H70.2214V25.71L71.6614 23.66H70.3064V23.32H72.1464V23.65L70.7264 25.66H72.1814V26Z" fill="white"/>
<path d="M38.496 12H37.776V6.288H40.968V6.92H38.496V8.944H40.816V9.576H38.496V12Z" fill="#B3B6BA"/>
<path d="M45.5564 9.848C45.5564 10.2053 45.5084 10.5227 45.4124 10.8C45.3218 11.072 45.1884 11.304 45.0124 11.496C44.8418 11.688 44.6311 11.8347 44.3804 11.936C44.1351 12.032 43.8604 12.08 43.5564 12.08C43.2738 12.08 43.0124 12.032 42.7724 11.936C42.5324 11.8347 42.3244 11.688 42.1484 11.496C41.9724 11.304 41.8338 11.072 41.7324 10.8C41.6364 10.5227 41.5884 10.2053 41.5884 9.848C41.5884 9.37333 41.6684 8.97333 41.8284 8.648C41.9884 8.31733 42.2178 8.06667 42.5164 7.896C42.8151 7.72 43.1698 7.632 43.5804 7.632C43.9698 7.632 44.3111 7.72 44.6044 7.896C44.9031 8.06667 45.1351 8.31733 45.3004 8.648C45.4711 8.97333 45.5564 9.37333 45.5564 9.848ZM42.3164 9.848C42.3164 10.184 42.3591 10.4773 42.4444 10.728C42.5351 10.9733 42.6738 11.1627 42.8604 11.296C43.0471 11.4293 43.2844 11.496 43.5724 11.496C43.8604 11.496 44.0978 11.4293 44.2844 11.296C44.4711 11.1627 44.6071 10.9733 44.6924 10.728C44.7831 10.4773 44.8284 10.184 44.8284 9.848C44.8284 9.50667 44.7831 9.216 44.6924 8.976C44.6018 8.736 44.4631 8.552 44.2764 8.424C44.0951 8.29067 43.8578 8.224 43.5644 8.224C43.1271 8.224 42.8098 8.368 42.6124 8.656C42.4151 8.944 42.3164 9.34133 42.3164 9.848Z" fill="#B3B6BA"/>
<path d="M47.3762 12H46.6722V5.92H47.3762V12Z" fill="#B3B6BA"/>
<path d="M49.4387 12H48.7347V5.92H49.4387V12Z" fill="#B3B6BA"/>
<path d="M54.5252 9.848C54.5252 10.2053 54.4772 10.5227 54.3812 10.8C54.2905 11.072 54.1572 11.304 53.9812 11.496C53.8105 11.688 53.5999 11.8347 53.3492 11.936C53.1039 12.032 52.8292 12.08 52.5252 12.08C52.2425 12.08 51.9812 12.032 51.7412 11.936C51.5012 11.8347 51.2932 11.688 51.1172 11.496C50.9412 11.304 50.8025 11.072 50.7012 10.8C50.6052 10.5227 50.5572 10.2053 50.5572 9.848C50.5572 9.37333 50.6372 8.97333 50.7972 8.648C50.9572 8.31733 51.1865 8.06667 51.4852 7.896C51.7839 7.72 52.1385 7.632 52.5492 7.632C52.9385 7.632 53.2799 7.72 53.5732 7.896C53.8719 8.06667 54.1039 8.31733 54.2692 8.648C54.4399 8.97333 54.5252 9.37333 54.5252 9.848ZM51.2852 9.848C51.2852 10.184 51.3279 10.4773 51.4132 10.728C51.5039 10.9733 51.6425 11.1627 51.8292 11.296C52.0159 11.4293 52.2532 11.496 52.5412 11.496C52.8292 11.496 53.0665 11.4293 53.2532 11.296C53.4399 11.1627 53.5759 10.9733 53.6612 10.728C53.7519 10.4773 53.7972 10.184 53.7972 9.848C53.7972 9.50667 53.7519 9.216 53.6612 8.976C53.5705 8.736 53.4319 8.552 53.2452 8.424C53.0639 8.29067 52.8265 8.224 52.5332 8.224C52.0959 8.224 51.7785 8.368 51.5812 8.656C51.3839 8.944 51.2852 9.34133 51.2852 9.848Z" fill="#B3B6BA"/>
<path d="M58.2527 9.576C58.2207 9.464 58.1887 9.35467 58.1567 9.248C58.1247 9.136 58.0954 9.032 58.0687 8.936C58.0474 8.83467 58.026 8.74133 58.0047 8.656C57.9834 8.57067 57.9674 8.49867 57.9567 8.44H57.9247C57.914 8.49867 57.898 8.57067 57.8767 8.656C57.8607 8.74133 57.8394 8.83467 57.8127 8.936C57.7914 9.03733 57.7647 9.144 57.7327 9.256C57.706 9.36267 57.674 9.472 57.6367 9.584L56.8687 11.992H56.0687L54.8927 7.704H55.6207L56.2127 9.992C56.2554 10.1467 56.2954 10.304 56.3327 10.464C56.37 10.6187 56.402 10.768 56.4287 10.912C56.4607 11.0507 56.482 11.1707 56.4927 11.272H56.5247C56.5407 11.208 56.5594 11.128 56.5807 11.032C56.602 10.936 56.6234 10.8347 56.6447 10.728C56.6714 10.6213 56.698 10.5147 56.7247 10.408C56.7567 10.3013 56.786 10.2053 56.8127 10.12L57.5727 7.704H58.3407L59.0767 10.12C59.114 10.2427 59.1514 10.3733 59.1887 10.512C59.2314 10.6507 59.2687 10.7867 59.3007 10.92C59.3327 11.048 59.354 11.1627 59.3647 11.264H59.3967C59.4074 11.1733 59.426 11.0613 59.4527 10.928C59.4847 10.7893 59.5194 10.64 59.5567 10.48C59.5994 10.3147 59.642 10.152 59.6847 9.992L60.2847 7.704H61.0047L59.8127 11.992H58.9887L58.2527 9.576Z" fill="#B3B6BA"/>
<path d="M66.4679 12L64.5879 6.992H64.5559C64.5665 7.09867 64.5745 7.23467 64.5799 7.4C64.5905 7.56533 64.5985 7.74667 64.6039 7.944C64.6092 8.136 64.6119 8.33333 64.6119 8.536V12H63.9479V6.288H65.0119L66.7719 10.968H66.8039L68.5959 6.288H69.6519V12H68.9399V8.488C68.9399 8.30133 68.9425 8.11733 68.9479 7.936C68.9532 7.74933 68.9612 7.576 68.9719 7.416C68.9825 7.25067 68.9905 7.112 68.9959 7H68.9639L67.0599 12H66.4679Z" fill="#B3B6BA"/>
<path d="M72.7657 7.632C73.1337 7.632 73.4484 7.712 73.7097 7.872C73.9764 8.032 74.179 8.25867 74.3177 8.552C74.4617 8.84 74.5337 9.17867 74.5337 9.568V9.992H71.5977C71.6084 10.4773 71.731 10.848 71.9657 11.104C72.2057 11.3547 72.539 11.48 72.9657 11.48C73.2377 11.48 73.4777 11.456 73.6857 11.408C73.899 11.3547 74.1177 11.28 74.3417 11.184V11.8C74.123 11.896 73.907 11.9653 73.6937 12.008C73.4804 12.056 73.227 12.08 72.9337 12.08C72.5284 12.08 72.1684 11.9973 71.8537 11.832C71.5444 11.6667 71.3017 11.4213 71.1257 11.096C70.955 10.7653 70.8697 10.3627 70.8697 9.888C70.8697 9.41867 70.947 9.016 71.1017 8.68C71.2617 8.344 71.483 8.08533 71.7657 7.904C72.0537 7.72267 72.387 7.632 72.7657 7.632ZM72.7577 8.208C72.4217 8.208 72.155 8.31733 71.9577 8.536C71.7657 8.74933 71.651 9.048 71.6137 9.432H73.7977C73.7977 9.18667 73.7604 8.97333 73.6857 8.792C73.611 8.61067 73.4964 8.46933 73.3417 8.368C73.1924 8.26133 72.9977 8.208 72.7577 8.208Z" fill="#B3B6BA"/>
<path d="M9.3336 5.07689C12.4367 7.43165 15.7745 12.2061 17 14.7684C18.2256 12.2063 21.5632 7.43161 24.6664 5.07689C26.9055 3.37778 30.5333 2.06311 30.5333 6.24646C30.5333 7.08193 30.0594 13.2649 29.7815 14.2686C28.8153 17.7584 25.2948 18.6485 22.1632 18.1098C27.6371 19.0515 29.0297 22.1708 26.0223 25.29C20.3108 31.2141 17.8132 23.8036 17.1729 21.9048C17.0556 21.5567 17.0007 21.3939 16.9999 21.5323C16.9991 21.3939 16.9442 21.5567 16.8269 21.9048C16.1869 23.8036 13.6894 31.2142 7.97749 25.29C4.97011 22.1708 6.36259 19.0513 11.8367 18.1098C8.70498 18.6485 5.18435 17.7584 4.21835 14.2686C3.9404 13.2648 3.46651 7.08184 3.46651 6.24646C3.46651 2.06311 7.09463 3.37778 9.3336 5.07689Z" fill="black"/>
<defs>
<linearGradient id="paint0_linear_41_36" x1="0" y1="15.5" x2="88" y2="15.5" gradientUnits="userSpaceOnUse">
<stop stop-color="#1185FE"/>
<stop offset="1" stop-color="#1D1D1D"/>
</linearGradient>
</defs>
</svg>
