<svg width="88" height="31" viewBox="0 0 88 31" fill="none" xmlns="http://www.w3.org/2000/svg">
<path d="M0 0H88V31H0V0Z" fill="url(#paint0_linear_43_37)"/>
<path d="M33.7582 27H32.236V26.6932L32.7316 26.5811V23.2122L32.236 23.0942V22.7874H33.7582V23.0942L33.2626 23.2122V26.5811L33.7582 26.6932V27Z" fill="white"/>
<path d="M37.97 23.7786C38.3279 23.7786 38.5954 23.871 38.7724 24.0559C38.9494 24.2368 39.0379 24.5318 39.0379 24.9409V27H38.5246V24.9645C38.5246 24.7167 38.4715 24.5299 38.3653 24.404C38.2631 24.2781 38.1018 24.2152 37.8815 24.2152C37.5747 24.2152 37.3545 24.3037 37.2207 24.4807C37.0909 24.6577 37.026 24.9153 37.026 25.2536V27H36.5127V24.9645C36.5127 24.7993 36.4891 24.6616 36.4419 24.5515C36.3947 24.4374 36.3239 24.3529 36.2295 24.2978C36.1351 24.2427 36.0132 24.2152 35.8637 24.2152C35.6513 24.2152 35.4842 24.2604 35.3622 24.3509C35.2403 24.4374 35.1518 24.5653 35.0967 24.7344C35.0456 24.9035 35.02 25.112 35.02 25.3598V27H34.5008V23.8376H34.9197L34.9964 24.2683H35.0259C35.0928 24.1582 35.1734 24.0677 35.2678 23.9969C35.3661 23.9222 35.4743 23.8671 35.5923 23.8317C35.7103 23.7963 35.8323 23.7786 35.9581 23.7786C36.202 23.7786 36.4045 23.8219 36.5658 23.9084C36.731 23.9949 36.851 24.1287 36.9257 24.3096H36.9552C37.0614 24.1287 37.205 23.9949 37.3859 23.9084C37.5708 23.8219 37.7655 23.7786 37.97 23.7786Z" fill="white"/>
<path d="M41.2125 23.7845C41.5979 23.7845 41.8831 23.8691 42.068 24.0382C42.2528 24.2073 42.3453 24.4768 42.3453 24.8465V27H41.9677L41.8674 26.5516H41.8438C41.7533 26.6657 41.6589 26.762 41.5606 26.8407C41.4662 26.9154 41.356 26.9705 41.2302 27.0059C41.1082 27.0413 40.9588 27.059 40.7818 27.059C40.593 27.059 40.4219 27.0256 40.2685 26.9587C40.119 26.8918 40.001 26.7896 39.9145 26.6519C39.8279 26.5103 39.7847 26.3333 39.7847 26.1209C39.7847 25.8062 39.9086 25.5643 40.1564 25.3952C40.4042 25.2221 40.7857 25.1277 41.301 25.112L41.8379 25.0943V24.9055C41.8379 24.642 41.7808 24.4591 41.6668 24.3568C41.5527 24.2545 41.3915 24.2034 41.183 24.2034C41.0178 24.2034 40.8604 24.229 40.711 24.2801C40.5615 24.3273 40.4219 24.3824 40.2921 24.4453L40.1328 24.0559C40.2704 23.9812 40.4337 23.9182 40.6225 23.8671C40.8113 23.812 41.0079 23.7845 41.2125 23.7845ZM41.3659 25.4719C40.9725 25.4876 40.6992 25.5506 40.5458 25.6607C40.3963 25.7708 40.3216 25.9262 40.3216 26.1268C40.3216 26.3038 40.3747 26.4336 40.4809 26.5162C40.591 26.5988 40.7306 26.6401 40.8998 26.6401C41.1672 26.6401 41.3895 26.5673 41.5665 26.4218C41.7435 26.2723 41.832 26.0442 41.832 25.7374V25.4542L41.3659 25.4719Z" fill="white"/>
<path d="M44.5905 27.059C44.3112 27.059 44.0615 27.002 43.8412 26.8879C43.6249 26.7738 43.4538 26.5968 43.3279 26.3569C43.206 26.117 43.145 25.8102 43.145 25.4365C43.145 25.0471 43.2099 24.7305 43.3397 24.4866C43.4695 24.2427 43.6445 24.0638 43.8648 23.9497C44.089 23.8356 44.3427 23.7786 44.6259 23.7786C44.7872 23.7786 44.9425 23.7963 45.092 23.8317C45.2415 23.8632 45.3634 23.9025 45.4578 23.9497L45.2985 24.3804C45.2041 24.345 45.094 24.3116 44.9681 24.2801C44.8422 24.2486 44.7242 24.2329 44.6141 24.2329C44.4017 24.2329 44.2267 24.2781 44.089 24.3686C43.9513 24.4591 43.8491 24.5928 43.7822 24.7698C43.7153 24.9468 43.6819 25.1671 43.6819 25.4306C43.6819 25.6823 43.7153 25.8967 43.7822 26.0737C43.8491 26.2507 43.9494 26.3844 44.0831 26.4749C44.2168 26.5654 44.384 26.6106 44.5846 26.6106C44.7577 26.6106 44.9091 26.5929 45.0389 26.5575C45.1726 26.5221 45.2946 26.4788 45.4047 26.4277V26.8879C45.2985 26.943 45.1805 26.9843 45.0507 27.0118C44.9248 27.0433 44.7714 27.059 44.5905 27.059Z" fill="white"/>
<path d="M47.3545 23.7845C47.7399 23.7845 48.0251 23.8691 48.21 24.0382C48.3948 24.2073 48.4873 24.4768 48.4873 24.8465V27H48.1097L48.0094 26.5516H47.9858C47.8953 26.6657 47.8009 26.762 47.7026 26.8407C47.6082 26.9154 47.498 26.9705 47.3722 27.0059C47.2502 27.0413 47.1008 27.059 46.9238 27.059C46.735 27.059 46.5639 27.0256 46.4105 26.9587C46.261 26.8918 46.143 26.7896 46.0565 26.6519C45.9699 26.5103 45.9267 26.3333 45.9267 26.1209C45.9267 25.8062 46.0506 25.5643 46.2984 25.3952C46.5462 25.2221 46.9277 25.1277 47.443 25.112L47.9799 25.0943V24.9055C47.9799 24.642 47.9228 24.4591 47.8088 24.3568C47.6947 24.2545 47.5334 24.2034 47.325 24.2034C47.1598 24.2034 47.0024 24.229 46.853 24.2801C46.7035 24.3273 46.5639 24.3824 46.4341 24.4453L46.2748 24.0559C46.4124 23.9812 46.5757 23.9182 46.7645 23.8671C46.9533 23.812 47.1499 23.7845 47.3545 23.7845ZM47.5079 25.4719C47.1145 25.4876 46.8412 25.5506 46.6878 25.6607C46.5383 25.7708 46.4636 25.9262 46.4636 26.1268C46.4636 26.3038 46.5167 26.4336 46.6229 26.5162C46.733 26.5988 46.8726 26.6401 47.0418 26.6401C47.3092 26.6401 47.5315 26.5673 47.7085 26.4218C47.8855 26.2723 47.974 26.0442 47.974 25.7374V25.4542L47.5079 25.4719Z" fill="white"/>
<path d="M50.5201 26.6342C50.5988 26.6342 50.6794 26.6283 50.762 26.6165C50.8446 26.6008 50.9115 26.585 50.9626 26.5693V26.9646C50.9075 26.9921 50.8289 27.0138 50.7266 27.0295C50.6243 27.0492 50.526 27.059 50.4316 27.059C50.2664 27.059 50.113 27.0315 49.9714 26.9764C49.8337 26.9174 49.7216 26.8171 49.6351 26.6755C49.5486 26.5339 49.5053 26.3353 49.5053 26.0796V24.2388H49.0569V23.991L49.5112 23.7845L49.7177 23.1119H50.0245V23.8376H50.939V24.2388H50.0245V26.0678C50.0245 26.2605 50.0697 26.4041 50.1602 26.4985C50.2546 26.589 50.3746 26.6342 50.5201 26.6342Z" fill="white"/>
<path d="M53.7257 27.9086H51.0825V27.531H53.7257V27.9086Z" fill="white"/>
<path d="M55.4033 22.7874C55.954 22.7874 56.3552 22.8956 56.6069 23.1119C56.8587 23.3282 56.9845 23.6331 56.9845 24.0264C56.9845 24.1995 56.955 24.3666 56.896 24.5279C56.841 24.6852 56.7485 24.8268 56.6187 24.9527C56.4889 25.0786 56.3159 25.1789 56.0995 25.2536C55.8832 25.3244 55.6177 25.3598 55.303 25.3598H54.8192V27H54.2882V22.7874H55.4033ZM55.3561 23.2417H54.8192V24.9055H55.244C55.5115 24.9055 55.7337 24.878 55.9107 24.8229C56.0877 24.7639 56.2195 24.6715 56.306 24.5456C56.3926 24.4197 56.4358 24.2545 56.4358 24.05C56.4358 23.7786 56.3493 23.576 56.1762 23.4423C56.0032 23.3086 55.7298 23.2417 55.3561 23.2417Z" fill="white"/>
<path d="M58.3089 27H57.7897V22.516H58.3089V27Z" fill="white"/>
<path d="M60.5085 23.7845C60.8939 23.7845 61.1791 23.8691 61.364 24.0382C61.5488 24.2073 61.6413 24.4768 61.6413 24.8465V27H61.2637L61.1634 26.5516H61.1398C61.0493 26.6657 60.9549 26.762 60.8566 26.8407C60.7622 26.9154 60.652 26.9705 60.5262 27.0059C60.4042 27.0413 60.2548 27.059 60.0778 27.059C59.889 27.059 59.7179 27.0256 59.5645 26.9587C59.415 26.8918 59.297 26.7896 59.2105 26.6519C59.1239 26.5103 59.0807 26.3333 59.0807 26.1209C59.0807 25.8062 59.2046 25.5643 59.4524 25.3952C59.7002 25.2221 60.0817 25.1277 60.597 25.112L61.1339 25.0943V24.9055C61.1339 24.642 61.0768 24.4591 60.9628 24.3568C60.8487 24.2545 60.6874 24.2034 60.479 24.2034C60.3138 24.2034 60.1564 24.229 60.007 24.2801C59.8575 24.3273 59.7179 24.3824 59.5881 24.4453L59.4288 24.0559C59.5664 23.9812 59.7297 23.9182 59.9185 23.8671C60.1073 23.812 60.3039 23.7845 60.5085 23.7845ZM60.6619 25.4719C60.2685 25.4876 59.9952 25.5506 59.8418 25.6607C59.6923 25.7708 59.6176 25.9262 59.6176 26.1268C59.6176 26.3038 59.6707 26.4336 59.7769 26.5162C59.887 26.5988 60.0266 26.6401 60.1958 26.6401C60.4632 26.6401 60.6855 26.5673 60.8625 26.4218C61.0395 26.2723 61.128 26.0442 61.128 25.7374V25.4542L60.6619 25.4719Z" fill="white"/>
<path d="M62.1224 23.8376H62.677L63.3614 25.6371C63.4007 25.7433 63.4361 25.8456 63.4676 25.9439C63.503 26.0422 63.5345 26.1386 63.562 26.233C63.5895 26.3235 63.6112 26.412 63.6269 26.4985H63.6505C63.6741 26.4002 63.7115 26.2723 63.7626 26.115C63.8137 25.9537 63.8668 25.7925 63.9219 25.6312L64.565 23.8376H65.1255L63.7626 27.4366C63.6879 27.6333 63.5994 27.8044 63.4971 27.9499C63.3988 28.0994 63.2768 28.2134 63.1313 28.2921C62.9897 28.3747 62.8166 28.416 62.6121 28.416C62.5177 28.416 62.4351 28.4101 62.3643 28.3983C62.2935 28.3904 62.2325 28.3806 62.1814 28.3688V27.9558C62.2247 27.9637 62.2758 27.9715 62.3348 27.9794C62.3977 27.9873 62.4626 27.9912 62.5295 27.9912C62.6514 27.9912 62.7557 27.9676 62.8422 27.9204C62.9327 27.8771 63.0094 27.8122 63.0723 27.7257C63.1352 27.6431 63.1883 27.5448 63.2316 27.4307L63.3968 27.0118L62.1224 23.8376Z" fill="white"/>
<path d="M67.6847 26.1268C67.6847 26.3313 67.6336 26.5024 67.5313 26.6401C67.4291 26.7778 67.2835 26.882 67.0947 26.9528C66.9059 27.0236 66.6817 27.059 66.4221 27.059C66.2019 27.059 66.0111 27.0413 65.8498 27.0059C65.6925 26.9705 65.5529 26.9213 65.4309 26.8584V26.3864C65.5568 26.4493 65.7082 26.5083 65.8852 26.5634C66.0662 26.6145 66.2491 26.6401 66.4339 26.6401C66.6975 26.6401 66.8882 26.5988 67.0062 26.5162C67.1242 26.4297 67.1832 26.3156 67.1832 26.174C67.1832 26.0953 67.1616 26.0245 67.1183 25.9616C67.0751 25.8987 66.9964 25.8357 66.8823 25.7728C66.7722 25.7099 66.6129 25.6391 66.4044 25.5604C66.1999 25.4817 66.0249 25.4031 65.8793 25.3244C65.7338 25.2457 65.6217 25.1513 65.543 25.0412C65.4644 24.9311 65.425 24.7895 65.425 24.6164C65.425 24.3489 65.5332 24.1424 65.7495 23.9969C65.9698 23.8514 66.2569 23.7786 66.6109 23.7786C66.8037 23.7786 66.9826 23.7983 67.1478 23.8376C67.317 23.873 67.4743 23.9241 67.6198 23.991L67.4428 24.404C67.3563 24.3647 67.2639 24.3312 67.1655 24.3037C67.0711 24.2722 66.9748 24.2486 66.8764 24.2329C66.7781 24.2132 66.6778 24.2034 66.5755 24.2034C66.3631 24.2034 66.1999 24.2388 66.0858 24.3096C65.9757 24.3765 65.9206 24.4689 65.9206 24.5869C65.9206 24.6734 65.9462 24.7482 65.9973 24.8111C66.0485 24.8701 66.133 24.9291 66.251 24.9881C66.373 25.0432 66.5342 25.11 66.7348 25.1887C66.9354 25.2634 67.1065 25.3401 67.2481 25.4188C67.3897 25.4975 67.4979 25.5938 67.5726 25.7079C67.6474 25.818 67.6847 25.9577 67.6847 26.1268Z" fill="white"/>
<path d="M70.3487 24.7757H71.806V26.8407C71.5778 26.9154 71.3477 26.9705 71.1157 27.0059C70.8836 27.0413 70.6201 27.059 70.3251 27.059C69.8885 27.059 69.5207 26.9725 69.2218 26.7994C68.9228 26.6224 68.6947 26.3726 68.5374 26.0501C68.384 25.7236 68.3073 25.3382 68.3073 24.8937C68.3073 24.4532 68.3938 24.0716 68.5669 23.7491C68.7399 23.4266 68.9877 23.1768 69.3103 22.9998C69.6367 22.8189 70.0301 22.7284 70.4903 22.7284C70.7263 22.7284 70.9485 22.75 71.157 22.7933C71.3694 22.8366 71.566 22.8975 71.747 22.9762L71.5464 23.4364C71.3969 23.3695 71.2278 23.3125 71.039 23.2653C70.8541 23.2181 70.6614 23.1945 70.4608 23.1945C70.1264 23.1945 69.8393 23.2633 69.5994 23.401C69.3594 23.5387 69.1765 23.7353 69.0507 23.991C68.9248 24.2427 68.8619 24.5436 68.8619 24.8937C68.8619 25.228 68.915 25.525 69.0212 25.7846C69.1313 26.0403 69.3024 26.2409 69.5345 26.3864C69.7665 26.528 70.0714 26.5988 70.449 26.5988C70.5748 26.5988 70.685 26.5949 70.7794 26.587C70.8777 26.5752 70.9662 26.5614 71.0449 26.5457C71.1275 26.53 71.2042 26.5142 71.275 26.4985V25.2477H70.3487V24.7757Z" fill="white"/>
<path d="M73.939 23.7845C74.3245 23.7845 74.6097 23.8691 74.7945 24.0382C74.9794 24.2073 75.0718 24.4768 75.0718 24.8465V27H74.6942L74.5939 26.5516H74.5703C74.4799 26.6657 74.3855 26.762 74.2871 26.8407C74.1927 26.9154 74.0826 26.9705 73.9567 27.0059C73.8348 27.0413 73.6853 27.059 73.5083 27.059C73.3195 27.059 73.1484 27.0256 72.995 26.9587C72.8456 26.8918 72.7276 26.7896 72.641 26.6519C72.5545 26.5103 72.5112 26.3333 72.5112 26.1209C72.5112 25.8062 72.6351 25.5643 72.8829 25.3952C73.1307 25.2221 73.5123 25.1277 74.0275 25.112L74.5644 25.0943V24.9055C74.5644 24.642 74.5074 24.4591 74.3933 24.3568C74.2793 24.2545 74.118 24.2034 73.9095 24.2034C73.7443 24.2034 73.587 24.229 73.4375 24.2801C73.2881 24.3273 73.1484 24.3824 73.0186 24.4453L72.8593 24.0559C72.997 23.9812 73.1602 23.9182 73.349 23.8671C73.5378 23.812 73.7345 23.7845 73.939 23.7845ZM74.0924 25.4719C73.6991 25.4876 73.4257 25.5506 73.2723 25.6607C73.1229 25.7708 73.0481 25.9262 73.0481 26.1268C73.0481 26.3038 73.1012 26.4336 73.2074 26.5162C73.3176 26.5988 73.4572 26.6401 73.6263 26.6401C73.8938 26.6401 74.116 26.5673 74.293 26.4218C74.47 26.2723 74.5585 26.0442 74.5585 25.7374V25.4542L74.0924 25.4719Z" fill="white"/>
<path d="M79.5178 23.7786C79.8757 23.7786 80.1432 23.871 80.3202 24.0559C80.4972 24.2368 80.5857 24.5318 80.5857 24.9409V27H80.0724V24.9645C80.0724 24.7167 80.0193 24.5299 79.9131 24.404C79.8108 24.2781 79.6495 24.2152 79.4293 24.2152C79.1225 24.2152 78.9022 24.3037 78.7685 24.4807C78.6387 24.6577 78.5738 24.9153 78.5738 25.2536V27H78.0605V24.9645C78.0605 24.7993 78.0369 24.6616 77.9897 24.5515C77.9425 24.4374 77.8717 24.3529 77.7773 24.2978C77.6829 24.2427 77.5609 24.2152 77.4115 24.2152C77.1991 24.2152 77.0319 24.2604 76.91 24.3509C76.788 24.4374 76.6995 24.5653 76.6445 24.7344C76.5933 24.9035 76.5678 25.112 76.5678 25.3598V27H76.0486V23.8376H76.4675L76.5442 24.2683H76.5737C76.6405 24.1582 76.7212 24.0677 76.8156 23.9969C76.9139 23.9222 77.0221 23.8671 77.1401 23.8317C77.2581 23.7963 77.38 23.7786 77.5059 23.7786C77.7497 23.7786 77.9523 23.8219 78.1136 23.9084C78.2788 23.9949 78.3987 24.1287 78.4735 24.3096H78.503C78.6092 24.1287 78.7527 23.9949 78.9337 23.9084C79.1185 23.8219 79.3132 23.7786 79.5178 23.7786Z" fill="white"/>
<path d="M82.7838 23.7786C83.0552 23.7786 83.2873 23.8376 83.48 23.9556C83.6767 24.0736 83.8262 24.2408 83.9284 24.4571C84.0346 24.6695 84.0877 24.9193 84.0877 25.2064V25.5191H81.9224C81.9303 25.877 82.0208 26.1504 82.1938 26.3392C82.3708 26.5241 82.6167 26.6165 82.9313 26.6165C83.1319 26.6165 83.3089 26.5988 83.4623 26.5634C83.6197 26.5241 83.7809 26.469 83.9461 26.3982V26.8525C83.7849 26.9233 83.6256 26.9744 83.4682 27.0059C83.3109 27.0413 83.1241 27.059 82.9077 27.059C82.6088 27.059 82.3433 26.998 82.1112 26.8761C81.8831 26.7542 81.7041 26.5732 81.5743 26.3333C81.4485 26.0894 81.3855 25.7925 81.3855 25.4424C81.3855 25.0963 81.4426 24.7993 81.5566 24.5515C81.6746 24.3037 81.8379 24.1129 82.0463 23.9792C82.2587 23.8455 82.5046 23.7786 82.7838 23.7786ZM82.7779 24.2034C82.5301 24.2034 82.3335 24.284 82.1879 24.4453C82.0463 24.6026 81.9618 24.8229 81.9342 25.1061H83.5449C83.5449 24.9252 83.5174 24.7678 83.4623 24.6341C83.4073 24.5004 83.3227 24.3961 83.2086 24.3214C83.0985 24.2427 82.9549 24.2034 82.7779 24.2034Z" fill="white"/>
<path d="M86.9519 26.1268C86.9519 26.3313 86.9008 26.5024 86.7985 26.6401C86.6962 26.7778 86.5507 26.882 86.3619 26.9528C86.1731 27.0236 85.9489 27.059 85.6893 27.059C85.469 27.059 85.2783 27.0413 85.117 27.0059C84.9597 26.9705 84.82 26.9213 84.6981 26.8584V26.3864C84.824 26.4493 84.9754 26.5083 85.1524 26.5634C85.3333 26.6145 85.5162 26.6401 85.7011 26.6401C85.9646 26.6401 86.1554 26.5988 86.2734 26.5162C86.3914 26.4297 86.4504 26.3156 86.4504 26.174C86.4504 26.0953 86.4288 26.0245 86.3855 25.9616C86.3422 25.8987 86.2636 25.8357 86.1495 25.7728C86.0394 25.7099 85.8801 25.6391 85.6716 25.5604C85.4671 25.4817 85.292 25.4031 85.1465 25.3244C85.001 25.2457 84.8889 25.1513 84.8102 25.0412C84.7315 24.9311 84.6922 24.7895 84.6922 24.6164C84.6922 24.3489 84.8004 24.1424 85.0167 23.9969C85.237 23.8514 85.5241 23.7786 85.8781 23.7786C86.0708 23.7786 86.2498 23.7983 86.415 23.8376C86.5841 23.873 86.7415 23.9241 86.887 23.991L86.71 24.404C86.6235 24.3647 86.531 24.3312 86.4327 24.3037C86.3383 24.2722 86.2419 24.2486 86.1436 24.2329C86.0453 24.2132 85.945 24.2034 85.8427 24.2034C85.6303 24.2034 85.4671 24.2388 85.353 24.3096C85.2429 24.3765 85.1878 24.4689 85.1878 24.5869C85.1878 24.6734 85.2134 24.7482 85.2645 24.8111C85.3156 24.8701 85.4002 24.9291 85.5182 24.9881C85.6401 25.0432 85.8014 25.11 86.002 25.1887C86.2026 25.2634 86.3737 25.3401 86.5153 25.4188C86.6569 25.4975 86.7651 25.5938 86.8398 25.7079C86.9145 25.818 86.9519 25.9577 86.9519 26.1268Z" fill="white"/>
<path d="M32.683 12H31.873V5.574H35.464V6.285H32.683V8.562H35.293V9.273H32.683V12Z" fill="#B3B6BA"/>
<path d="M38.682 7.086C38.772 7.086 38.868 7.092 38.97 7.104C39.078 7.11 39.171 7.122 39.249 7.14L39.15 7.869C39.072 7.851 38.985 7.836 38.889 7.824C38.799 7.812 38.712 7.806 38.628 7.806C38.442 7.806 38.265 7.845 38.097 7.923C37.929 8.001 37.779 8.112 37.647 8.256C37.515 8.394 37.41 8.562 37.332 8.76C37.26 8.958 37.224 9.18 37.224 9.426V12H36.432V7.176H37.08L37.17 8.058H37.206C37.308 7.878 37.431 7.716 37.575 7.572C37.719 7.422 37.884 7.305 38.07 7.221C38.256 7.131 38.46 7.086 38.682 7.086Z" fill="#B3B6BA"/>
<path d="M40.9418 7.176V12H40.1498V7.176H40.9418ZM40.5548 5.367C40.6748 5.367 40.7798 5.409 40.8698 5.493C40.9658 5.571 41.0138 5.697 41.0138 5.871C41.0138 6.039 40.9658 6.165 40.8698 6.249C40.7798 6.333 40.6748 6.375 40.5548 6.375C40.4228 6.375 40.3118 6.333 40.2218 6.249C40.1318 6.165 40.0868 6.039 40.0868 5.871C40.0868 5.697 40.1318 5.571 40.2218 5.493C40.3118 5.409 40.4228 5.367 40.5548 5.367Z" fill="#B3B6BA"/>
<path d="M44.3331 7.086C44.7471 7.086 45.1011 7.176 45.3951 7.356C45.6951 7.536 45.9231 7.791 46.0791 8.121C46.2411 8.445 46.3221 8.826 46.3221 9.264V9.741H43.0191C43.0311 10.287 43.1691 10.704 43.4331 10.992C43.7031 11.274 44.0781 11.415 44.5581 11.415C44.8641 11.415 45.1341 11.388 45.3681 11.334C45.6081 11.274 45.8541 11.19 46.1061 11.082V11.775C45.8601 11.883 45.6171 11.961 45.3771 12.009C45.1371 12.063 44.8521 12.09 44.5221 12.09C44.0661 12.09 43.6611 11.997 43.3071 11.811C42.9591 11.625 42.6861 11.349 42.4881 10.983C42.2961 10.611 42.2001 10.158 42.2001 9.624C42.2001 9.096 42.2871 8.643 42.4611 8.265C42.6411 7.887 42.8901 7.596 43.2081 7.392C43.5321 7.188 43.9071 7.086 44.3331 7.086ZM44.3241 7.734C43.9461 7.734 43.6461 7.857 43.4241 8.103C43.2081 8.343 43.0791 8.679 43.0371 9.111H45.4941C45.4941 8.835 45.4521 8.595 45.3681 8.391C45.2841 8.187 45.1551 8.028 44.9811 7.914C44.8131 7.794 44.5941 7.734 44.3241 7.734Z" fill="#B3B6BA"/>
<path d="M49.8722 7.086C50.4482 7.086 50.8832 7.227 51.1772 7.509C51.4712 7.785 51.6182 8.235 51.6182 8.859V12H50.8352V8.913C50.8352 8.523 50.7482 8.232 50.5742 8.04C50.4002 7.848 50.1272 7.752 49.7552 7.752C49.2212 7.752 48.8522 7.902 48.6482 8.202C48.4442 8.502 48.3422 8.934 48.3422 9.498V12H47.5502V7.176H48.1892L48.3062 7.833H48.3512C48.4592 7.665 48.5912 7.527 48.7472 7.419C48.9092 7.305 49.0862 7.221 49.2782 7.167C49.4702 7.113 49.6682 7.086 49.8722 7.086Z" fill="#B3B6BA"/>
<path d="M54.8236 12.09C54.2236 12.09 53.7436 11.883 53.3836 11.469C53.0236 11.049 52.8436 10.425 52.8436 9.597C52.8436 8.769 53.0236 8.145 53.3836 7.725C53.7496 7.299 54.2326 7.086 54.8326 7.086C55.0846 7.086 55.3036 7.119 55.4896 7.185C55.6756 7.245 55.8376 7.329 55.9756 7.437C56.1136 7.545 56.2306 7.665 56.3266 7.797H56.3806C56.3746 7.719 56.3626 7.605 56.3446 7.455C56.3326 7.299 56.3266 7.176 56.3266 7.086V5.16H57.1186V12H56.4796L56.3626 11.352H56.3266C56.2306 11.49 56.1136 11.616 55.9756 11.73C55.8376 11.838 55.6726 11.925 55.4806 11.991C55.2946 12.057 55.0756 12.09 54.8236 12.09ZM54.9496 11.433C55.4596 11.433 55.8166 11.295 56.0206 11.019C56.2306 10.737 56.3356 10.314 56.3356 9.75V9.606C56.3356 9.006 56.2366 8.547 56.0386 8.229C55.8406 7.905 55.4746 7.743 54.9406 7.743C54.5146 7.743 54.1936 7.914 53.9776 8.256C53.7676 8.592 53.6626 9.045 53.6626 9.615C53.6626 10.191 53.7676 10.638 53.9776 10.956C54.1936 11.274 54.5176 11.433 54.9496 11.433Z" fill="#B3B6BA"/>
<path d="M63.9316 12L61.8166 6.366H61.7806C61.7926 6.486 61.8016 6.639 61.8076 6.825C61.8196 7.011 61.8286 7.215 61.8346 7.437C61.8406 7.653 61.8436 7.875 61.8436 8.103V12H61.0966V5.574H62.2936L64.2736 10.839H64.3096L66.3256 5.574H67.5136V12H66.7126V8.049C66.7126 7.839 66.7156 7.632 66.7216 7.428C66.7276 7.218 66.7366 7.023 66.7486 6.843C66.7606 6.657 66.7696 6.501 66.7756 6.375H66.7396L64.5976 12H63.9316Z" fill="#B3B6BA"/>
<path d="M71.0167 7.086C71.4307 7.086 71.7847 7.176 72.0787 7.356C72.3787 7.536 72.6067 7.791 72.7627 8.121C72.9247 8.445 73.0057 8.826 73.0057 9.264V9.741H69.7027C69.7147 10.287 69.8527 10.704 70.1167 10.992C70.3867 11.274 70.7617 11.415 71.2417 11.415C71.5477 11.415 71.8177 11.388 72.0517 11.334C72.2917 11.274 72.5377 11.19 72.7897 11.082V11.775C72.5437 11.883 72.3007 11.961 72.0607 12.009C71.8207 12.063 71.5357 12.09 71.2057 12.09C70.7497 12.09 70.3447 11.997 69.9907 11.811C69.6427 11.625 69.3697 11.349 69.1717 10.983C68.9797 10.611 68.8837 10.158 68.8837 9.624C68.8837 9.096 68.9707 8.643 69.1447 8.265C69.3247 7.887 69.5737 7.596 69.8917 7.392C70.2157 7.188 70.5907 7.086 71.0167 7.086ZM71.0077 7.734C70.6297 7.734 70.3297 7.857 70.1077 8.103C69.8917 8.343 69.7627 8.679 69.7207 9.111H72.1777C72.1777 8.835 72.1357 8.595 72.0517 8.391C71.9677 8.187 71.8387 8.028 71.6647 7.914C71.4967 7.794 71.2777 7.734 71.0077 7.734Z" fill="#B3B6BA"/>
<path d="M8.11706 3L3 22.8829L22.8829 28L28 8.11706L8.11706 3ZM14.0582 13.0593L17.9394 14.0577L16.9404 17.9394L13.0593 16.9404L14.0582 13.0593Z" fill="black"/>
<defs>
<linearGradient id="paint0_linear_43_37" x1="0" y1="15.5" x2="88" y2="15.5" gradientUnits="userSpaceOnUse">
<stop stop-color="#3156FF"/>
<stop offset="1" stop-color="#1D1D1D"/>
</linearGradient>
</defs>
</svg>
