<svg width="88" height="31" viewBox="0 0 88 31" fill="none" xmlns="http://www.w3.org/2000/svg">
<path d="M0 0H88V31H0V0Z" fill="url(#paint0_linear_41_38)"/>
<path d="M39.49 26H38.2V25.74L38.62 25.645V22.79L38.2 22.69V22.43H39.49V22.69L39.07 22.79V25.645L39.49 25.74V26Z" fill="white"/>
<path d="M43.0593 23.27C43.3627 23.27 43.5893 23.3483 43.7393 23.505C43.8893 23.6583 43.9643 23.9083 43.9643 24.255V26H43.5293V24.275C43.5293 24.065 43.4843 23.9067 43.3943 23.8C43.3077 23.6933 43.171 23.64 42.9843 23.64C42.7243 23.64 42.5377 23.715 42.4243 23.865C42.3143 24.015 42.2593 24.2333 42.2593 24.52V26H41.8243V24.275C41.8243 24.135 41.8043 24.0183 41.7643 23.925C41.7243 23.8283 41.6643 23.7567 41.5843 23.71C41.5043 23.6633 41.401 23.64 41.2743 23.64C41.0943 23.64 40.9527 23.6783 40.8493 23.755C40.746 23.8283 40.671 23.9367 40.6243 24.08C40.581 24.2233 40.5593 24.4 40.5593 24.61V26H40.1193V23.32H40.4743L40.5393 23.685H40.5643C40.621 23.5917 40.6893 23.515 40.7693 23.455C40.8527 23.3917 40.9443 23.345 41.0443 23.315C41.1443 23.285 41.2477 23.27 41.3543 23.27C41.561 23.27 41.7327 23.3067 41.8693 23.38C42.0093 23.4533 42.111 23.5667 42.1743 23.72H42.1993C42.2893 23.5667 42.411 23.4533 42.5643 23.38C42.721 23.3067 42.886 23.27 43.0593 23.27Z" fill="white"/>
<path d="M45.8072 23.275C46.1339 23.275 46.3755 23.3467 46.5322 23.49C46.6889 23.6333 46.7672 23.8617 46.7672 24.175V26H46.4472L46.3622 25.62H46.3422C46.2655 25.7167 46.1855 25.7983 46.1022 25.865C46.0222 25.9283 45.9289 25.975 45.8222 26.005C45.7189 26.035 45.5922 26.05 45.4422 26.05C45.2822 26.05 45.1372 26.0217 45.0072 25.965C44.8805 25.9083 44.7805 25.8217 44.7072 25.705C44.6339 25.585 44.5972 25.435 44.5972 25.255C44.5972 24.9883 44.7022 24.7833 44.9122 24.64C45.1222 24.4933 45.4455 24.4133 45.8822 24.4L46.3372 24.385V24.225C46.3372 24.0017 46.2889 23.8467 46.1922 23.76C46.0955 23.6733 45.9589 23.63 45.7822 23.63C45.6422 23.63 45.5089 23.6517 45.3822 23.695C45.2555 23.735 45.1372 23.7817 45.0272 23.835L44.8922 23.505C45.0089 23.4417 45.1472 23.3883 45.3072 23.345C45.4672 23.2983 45.6339 23.275 45.8072 23.275ZM45.9372 24.705C45.6039 24.7183 45.3722 24.7717 45.2422 24.865C45.1155 24.9583 45.0522 25.09 45.0522 25.26C45.0522 25.41 45.0972 25.52 45.1872 25.59C45.2805 25.66 45.3989 25.695 45.5422 25.695C45.7689 25.695 45.9572 25.6333 46.1072 25.51C46.2572 25.3833 46.3322 25.19 46.3322 24.93V24.69L45.9372 24.705Z" fill="white"/>
<path d="M48.6699 26.05C48.4333 26.05 48.2216 26.0017 48.0349 25.905C47.8516 25.8083 47.7066 25.6583 47.5999 25.455C47.4966 25.2517 47.4449 24.9917 47.4449 24.675C47.4449 24.345 47.4999 24.0767 47.6099 23.87C47.7199 23.6633 47.8683 23.5117 48.0549 23.415C48.2449 23.3183 48.4599 23.27 48.6999 23.27C48.8366 23.27 48.9683 23.285 49.0949 23.315C49.2216 23.3417 49.3249 23.375 49.4049 23.415L49.2699 23.78C49.1899 23.75 49.0966 23.7217 48.9899 23.695C48.8833 23.6683 48.7833 23.655 48.6899 23.655C48.5099 23.655 48.3616 23.6933 48.2449 23.77C48.1283 23.8467 48.0416 23.96 47.9849 24.11C47.9283 24.26 47.8999 24.4467 47.8999 24.67C47.8999 24.8833 47.9283 25.065 47.9849 25.215C48.0416 25.365 48.1266 25.4783 48.2399 25.555C48.3533 25.6317 48.4949 25.67 48.6649 25.67C48.8116 25.67 48.9399 25.655 49.0499 25.625C49.1633 25.595 49.2666 25.5583 49.3599 25.515V25.905C49.2699 25.9517 49.1699 25.9867 49.0599 26.01C48.9533 26.0367 48.8233 26.05 48.6699 26.05Z" fill="white"/>
<path d="M51.0123 23.275C51.3389 23.275 51.5806 23.3467 51.7373 23.49C51.8939 23.6333 51.9723 23.8617 51.9723 24.175V26H51.6523L51.5673 25.62H51.5473C51.4706 25.7167 51.3906 25.7983 51.3073 25.865C51.2273 25.9283 51.1339 25.975 51.0273 26.005C50.9239 26.035 50.7973 26.05 50.6473 26.05C50.4873 26.05 50.3423 26.0217 50.2123 25.965C50.0856 25.9083 49.9856 25.8217 49.9123 25.705C49.8389 25.585 49.8023 25.435 49.8023 25.255C49.8023 24.9883 49.9073 24.7833 50.1173 24.64C50.3273 24.4933 50.6506 24.4133 51.0873 24.4L51.5423 24.385V24.225C51.5423 24.0017 51.4939 23.8467 51.3973 23.76C51.3006 23.6733 51.1639 23.63 50.9873 23.63C50.8473 23.63 50.7139 23.6517 50.5873 23.695C50.4606 23.735 50.3423 23.7817 50.2323 23.835L50.0973 23.505C50.2139 23.4417 50.3523 23.3883 50.5123 23.345C50.6723 23.2983 50.8389 23.275 51.0123 23.275ZM51.1423 24.705C50.8089 24.7183 50.5773 24.7717 50.4473 24.865C50.3206 24.9583 50.2573 25.09 50.2573 25.26C50.2573 25.41 50.3023 25.52 50.3923 25.59C50.4856 25.66 50.6039 25.695 50.7473 25.695C50.9739 25.695 51.1623 25.6333 51.3123 25.51C51.4623 25.3833 51.5373 25.19 51.5373 24.93V24.69L51.1423 24.705Z" fill="white"/>
<path d="M53.695 25.69C53.7617 25.69 53.83 25.685 53.9 25.675C53.97 25.6617 54.0267 25.6483 54.07 25.635V25.97C54.0233 25.9933 53.9567 26.0117 53.87 26.025C53.7833 26.0417 53.7 26.05 53.62 26.05C53.48 26.05 53.35 26.0267 53.23 25.98C53.1133 25.93 53.0183 25.845 52.945 25.725C52.8717 25.605 52.835 25.4367 52.835 25.22V23.66H52.455V23.45L52.84 23.275L53.015 22.705H53.275V23.32H54.05V23.66H53.275V25.21C53.275 25.3733 53.3133 25.495 53.39 25.575C53.47 25.6517 53.5717 25.69 53.695 25.69Z" fill="white"/>
<path d="M56.4116 26.77H54.1716V26.45H56.4116V26.77Z" fill="white"/>
<path d="M57.8333 22.43C58.3 22.43 58.64 22.5217 58.8533 22.705C59.0667 22.8883 59.1733 23.1467 59.1733 23.48C59.1733 23.6267 59.1483 23.7683 59.0983 23.905C59.0517 24.0383 58.9733 24.1583 58.8633 24.265C58.7533 24.3717 58.6067 24.4567 58.4233 24.52C58.24 24.58 58.015 24.61 57.7483 24.61H57.3383V26H56.8883V22.43H57.8333ZM57.7933 22.815H57.3383V24.225H57.6983C57.925 24.225 58.1133 24.2017 58.2633 24.155C58.4133 24.105 58.525 24.0267 58.5983 23.92C58.6717 23.8133 58.7083 23.6733 58.7083 23.5C58.7083 23.27 58.635 23.0983 58.4883 22.985C58.3417 22.8717 58.11 22.815 57.7933 22.815Z" fill="white"/>
<path d="M60.2957 26H59.8557V22.2H60.2957V26Z" fill="white"/>
<path d="M62.1597 23.275C62.4864 23.275 62.7281 23.3467 62.8847 23.49C63.0414 23.6333 63.1197 23.8617 63.1197 24.175V26H62.7997L62.7147 25.62H62.6947C62.6181 25.7167 62.5381 25.7983 62.4547 25.865C62.3747 25.9283 62.2814 25.975 62.1747 26.005C62.0714 26.035 61.9447 26.05 61.7947 26.05C61.6347 26.05 61.4897 26.0217 61.3597 25.965C61.2331 25.9083 61.1331 25.8217 61.0597 25.705C60.9864 25.585 60.9497 25.435 60.9497 25.255C60.9497 24.9883 61.0547 24.7833 61.2647 24.64C61.4747 24.4933 61.7981 24.4133 62.2347 24.4L62.6897 24.385V24.225C62.6897 24.0017 62.6414 23.8467 62.5447 23.76C62.4481 23.6733 62.3114 23.63 62.1347 23.63C61.9947 23.63 61.8614 23.6517 61.7347 23.695C61.6081 23.735 61.4897 23.7817 61.3797 23.835L61.2447 23.505C61.3614 23.4417 61.4997 23.3883 61.6597 23.345C61.8197 23.2983 61.9864 23.275 62.1597 23.275ZM62.2897 24.705C61.9564 24.7183 61.7247 24.7717 61.5947 24.865C61.4681 24.9583 61.4047 25.09 61.4047 25.26C61.4047 25.41 61.4497 25.52 61.5397 25.59C61.6331 25.66 61.7514 25.695 61.8947 25.695C62.1214 25.695 62.3097 25.6333 62.4597 25.51C62.6097 25.3833 62.6847 25.19 62.6847 24.93V24.69L62.2897 24.705Z" fill="white"/>
<path d="M63.5275 23.32H63.9975L64.5775 24.845C64.6108 24.935 64.6408 25.0217 64.6675 25.105C64.6975 25.1883 64.7241 25.27 64.7475 25.35C64.7708 25.4267 64.7891 25.5017 64.8025 25.575H64.8225C64.8425 25.4917 64.8741 25.3833 64.9175 25.25C64.9608 25.1133 65.0058 24.9767 65.0525 24.84L65.5975 23.32H66.0725L64.9175 26.37C64.8541 26.5367 64.7791 26.6817 64.6925 26.805C64.6091 26.9317 64.5058 27.0283 64.3825 27.095C64.2625 27.165 64.1158 27.2 63.9425 27.2C63.8625 27.2 63.7925 27.195 63.7325 27.185C63.6725 27.1783 63.6208 27.17 63.5775 27.16V26.81C63.6141 26.8167 63.6575 26.8233 63.7075 26.83C63.7608 26.8367 63.8158 26.84 63.8725 26.84C63.9758 26.84 64.0641 26.82 64.1375 26.78C64.2141 26.7433 64.2791 26.6883 64.3325 26.615C64.3858 26.545 64.4308 26.4617 64.4675 26.365L64.6075 26.01L63.5275 23.32Z" fill="white"/>
<path d="M68.2413 25.26C68.2413 25.4333 68.198 25.5783 68.1113 25.695C68.0246 25.8117 67.9013 25.9 67.7413 25.96C67.5813 26.02 67.3913 26.05 67.1713 26.05C66.9846 26.05 66.823 26.035 66.6863 26.005C66.553 25.975 66.4346 25.9333 66.3313 25.88V25.48C66.438 25.5333 66.5663 25.5833 66.7163 25.63C66.8696 25.6733 67.0246 25.695 67.1813 25.695C67.4046 25.695 67.5663 25.66 67.6663 25.59C67.7663 25.5167 67.8163 25.42 67.8163 25.3C67.8163 25.2333 67.798 25.1733 67.7613 25.12C67.7246 25.0667 67.658 25.0133 67.5613 24.96C67.468 24.9067 67.333 24.8467 67.1563 24.78C66.983 24.7133 66.8346 24.6467 66.7113 24.58C66.588 24.5133 66.493 24.4333 66.4263 24.34C66.3596 24.2467 66.3263 24.1267 66.3263 23.98C66.3263 23.7533 66.418 23.5783 66.6013 23.455C66.788 23.3317 67.0313 23.27 67.3313 23.27C67.4946 23.27 67.6463 23.2867 67.7863 23.32C67.9296 23.35 68.063 23.3933 68.1863 23.45L68.0363 23.8C67.963 23.7667 67.8846 23.7383 67.8013 23.715C67.7213 23.6883 67.6396 23.6683 67.5563 23.655C67.473 23.6383 67.388 23.63 67.3013 23.63C67.1213 23.63 66.983 23.66 66.8863 23.72C66.793 23.7767 66.7463 23.855 66.7463 23.955C66.7463 24.0283 66.768 24.0917 66.8113 24.145C66.8546 24.195 66.9263 24.245 67.0263 24.295C67.1296 24.3417 67.2663 24.3983 67.4363 24.465C67.6063 24.5283 67.7513 24.5933 67.8713 24.66C67.9913 24.7267 68.083 24.8083 68.1463 24.905C68.2096 24.9983 68.2413 25.1167 68.2413 25.26Z" fill="white"/>
<path d="M70.4989 24.115H71.7339V25.865C71.5405 25.9283 71.3455 25.975 71.1489 26.005C70.9522 26.035 70.7289 26.05 70.4789 26.05C70.1089 26.05 69.7972 25.9767 69.5439 25.83C69.2905 25.68 69.0972 25.4683 68.9639 25.195C68.8339 24.9183 68.7689 24.5917 68.7689 24.215C68.7689 23.8417 68.8422 23.5183 68.9889 23.245C69.1355 22.9717 69.3455 22.76 69.6189 22.61C69.8955 22.4567 70.2289 22.38 70.6189 22.38C70.8189 22.38 71.0072 22.3983 71.1839 22.435C71.3639 22.4717 71.5305 22.5233 71.6839 22.59L71.5139 22.98C71.3872 22.9233 71.2439 22.875 71.0839 22.835C70.9272 22.795 70.7639 22.775 70.5939 22.775C70.3105 22.775 70.0672 22.8333 69.8639 22.95C69.6605 23.0667 69.5055 23.2333 69.3989 23.45C69.2922 23.6633 69.2389 23.9183 69.2389 24.215C69.2389 24.4983 69.2839 24.75 69.3739 24.97C69.4672 25.1867 69.6122 25.3567 69.8089 25.48C70.0055 25.6 70.2639 25.66 70.5839 25.66C70.6905 25.66 70.7839 25.6567 70.8639 25.65C70.9472 25.64 71.0222 25.6283 71.0889 25.615C71.1589 25.6017 71.2239 25.5883 71.2839 25.575V24.515H70.4989V24.115Z" fill="white"/>
<path d="M73.5416 23.275C73.8682 23.275 74.1099 23.3467 74.2666 23.49C74.4232 23.6333 74.5016 23.8617 74.5016 24.175V26H74.1816L74.0966 25.62H74.0766C73.9999 25.7167 73.9199 25.7983 73.8366 25.865C73.7566 25.9283 73.6632 25.975 73.5566 26.005C73.4532 26.035 73.3266 26.05 73.1766 26.05C73.0166 26.05 72.8716 26.0217 72.7416 25.965C72.6149 25.9083 72.5149 25.8217 72.4416 25.705C72.3682 25.585 72.3316 25.435 72.3316 25.255C72.3316 24.9883 72.4366 24.7833 72.6466 24.64C72.8566 24.4933 73.1799 24.4133 73.6166 24.4L74.0716 24.385V24.225C74.0716 24.0017 74.0232 23.8467 73.9266 23.76C73.8299 23.6733 73.6932 23.63 73.5166 23.63C73.3766 23.63 73.2432 23.6517 73.1166 23.695C72.9899 23.735 72.8716 23.7817 72.7616 23.835L72.6266 23.505C72.7432 23.4417 72.8816 23.3883 73.0416 23.345C73.2016 23.2983 73.3682 23.275 73.5416 23.275ZM73.6716 24.705C73.3382 24.7183 73.1066 24.7717 72.9766 24.865C72.8499 24.9583 72.7866 25.09 72.7866 25.26C72.7866 25.41 72.8316 25.52 72.9216 25.59C73.0149 25.66 73.1332 25.695 73.2766 25.695C73.5032 25.695 73.6916 25.6333 73.8416 25.51C73.9916 25.3833 74.0666 25.19 74.0666 24.93V24.69L73.6716 24.705Z" fill="white"/>
<path d="M78.2693 23.27C78.5726 23.27 78.7993 23.3483 78.9493 23.505C79.0993 23.6583 79.1743 23.9083 79.1743 24.255V26H78.7393V24.275C78.7393 24.065 78.6943 23.9067 78.6043 23.8C78.5176 23.6933 78.381 23.64 78.1943 23.64C77.9343 23.64 77.7476 23.715 77.6343 23.865C77.5243 24.015 77.4693 24.2333 77.4693 24.52V26H77.0343V24.275C77.0343 24.135 77.0143 24.0183 76.9743 23.925C76.9343 23.8283 76.8743 23.7567 76.7943 23.71C76.7143 23.6633 76.611 23.64 76.4843 23.64C76.3043 23.64 76.1626 23.6783 76.0593 23.755C75.956 23.8283 75.881 23.9367 75.8343 24.08C75.791 24.2233 75.7693 24.4 75.7693 24.61V26H75.3293V23.32H75.6843L75.7493 23.685H75.7743C75.831 23.5917 75.8993 23.515 75.9793 23.455C76.0626 23.3917 76.1543 23.345 76.2543 23.315C76.3543 23.285 76.4576 23.27 76.5643 23.27C76.771 23.27 76.9426 23.3067 77.0793 23.38C77.2193 23.4533 77.321 23.5667 77.3843 23.72H77.4093C77.4993 23.5667 77.621 23.4533 77.7743 23.38C77.931 23.3067 78.096 23.27 78.2693 23.27Z" fill="white"/>
<path d="M81.0371 23.27C81.2671 23.27 81.4638 23.32 81.6272 23.42C81.7938 23.52 81.9205 23.6617 82.0071 23.845C82.0971 24.025 82.1422 24.2367 82.1422 24.48V24.745H80.3072C80.3138 25.0483 80.3905 25.28 80.5371 25.44C80.6871 25.5967 80.8955 25.675 81.1621 25.675C81.3321 25.675 81.4822 25.66 81.6122 25.63C81.7455 25.5967 81.8821 25.55 82.0221 25.49V25.875C81.8855 25.935 81.7505 25.9783 81.6171 26.005C81.4838 26.035 81.3255 26.05 81.1422 26.05C80.8888 26.05 80.6638 25.9983 80.4671 25.895C80.2738 25.7917 80.1221 25.6383 80.0121 25.435C79.9055 25.2283 79.8521 24.9767 79.8521 24.68C79.8521 24.3867 79.9005 24.135 79.9971 23.925C80.0971 23.715 80.2355 23.5533 80.4121 23.44C80.5921 23.3267 80.8005 23.27 81.0371 23.27ZM81.0322 23.63C80.8222 23.63 80.6555 23.6983 80.5322 23.835C80.4122 23.9683 80.3405 24.155 80.3171 24.395H81.6822C81.6822 24.2417 81.6588 24.1083 81.6122 23.995C81.5655 23.8817 81.4938 23.7933 81.3971 23.73C81.3038 23.6633 81.1822 23.63 81.0322 23.63Z" fill="white"/>
<path d="M84.5694 25.26C84.5694 25.4333 84.5261 25.5783 84.4394 25.695C84.3527 25.8117 84.2294 25.9 84.0694 25.96C83.9094 26.02 83.7194 26.05 83.4994 26.05C83.3127 26.05 83.1511 26.035 83.0144 26.005C82.8811 25.975 82.7627 25.9333 82.6594 25.88V25.48C82.7661 25.5333 82.8944 25.5833 83.0444 25.63C83.1977 25.6733 83.3527 25.695 83.5094 25.695C83.7327 25.695 83.8944 25.66 83.9944 25.59C84.0944 25.5167 84.1444 25.42 84.1444 25.3C84.1444 25.2333 84.1261 25.1733 84.0894 25.12C84.0527 25.0667 83.9861 25.0133 83.8894 24.96C83.7961 24.9067 83.6611 24.8467 83.4844 24.78C83.3111 24.7133 83.1627 24.6467 83.0394 24.58C82.9161 24.5133 82.8211 24.4333 82.7544 24.34C82.6878 24.2467 82.6544 24.1267 82.6544 23.98C82.6544 23.7533 82.7461 23.5783 82.9294 23.455C83.1161 23.3317 83.3594 23.27 83.6594 23.27C83.8227 23.27 83.9744 23.2867 84.1144 23.32C84.2577 23.35 84.3911 23.3933 84.5144 23.45L84.3644 23.8C84.2911 23.7667 84.2128 23.7383 84.1294 23.715C84.0494 23.6883 83.9677 23.6683 83.8844 23.655C83.8011 23.6383 83.7161 23.63 83.6294 23.63C83.4494 23.63 83.3111 23.66 83.2144 23.72C83.1211 23.7767 83.0744 23.855 83.0744 23.955C83.0744 24.0283 83.0961 24.0917 83.1394 24.145C83.1827 24.195 83.2544 24.245 83.3544 24.295C83.4577 24.3417 83.5944 24.3983 83.7644 24.465C83.9344 24.5283 84.0794 24.5933 84.1994 24.66C84.3194 24.7267 84.4111 24.8083 84.4744 24.905C84.5377 24.9983 84.5694 25.1167 84.5694 25.26Z" fill="white"/>
<path d="M38.496 12H37.776V6.288H40.968V6.92H38.496V8.944H40.816V9.576H38.496V12Z" fill="#B3B6BA"/>
<path d="M43.8284 7.632C43.9084 7.632 43.9938 7.63733 44.0844 7.648C44.1804 7.65333 44.2631 7.664 44.3324 7.68L44.2444 8.328C44.1751 8.312 44.0978 8.29867 44.0124 8.288C43.9324 8.27733 43.8551 8.272 43.7804 8.272C43.6151 8.272 43.4578 8.30667 43.3084 8.376C43.1591 8.44533 43.0258 8.544 42.9084 8.672C42.7911 8.79467 42.6978 8.944 42.6284 9.12C42.5644 9.296 42.5324 9.49333 42.5324 9.712V12H41.8284V7.712H42.4044L42.4844 8.496H42.5164C42.6071 8.336 42.7164 8.192 42.8444 8.064C42.9724 7.93067 43.1191 7.82667 43.2844 7.752C43.4498 7.672 43.6311 7.632 43.8284 7.632Z" fill="#B3B6BA"/>
<path d="M45.8371 7.712V12H45.1331V7.712H45.8371ZM45.4931 6.104C45.5998 6.104 45.6931 6.14133 45.7731 6.216C45.8585 6.28533 45.9011 6.39733 45.9011 6.552C45.9011 6.70133 45.8585 6.81333 45.7731 6.888C45.6931 6.96267 45.5998 7 45.4931 7C45.3758 7 45.2771 6.96267 45.1971 6.888C45.1171 6.81333 45.0771 6.70133 45.0771 6.552C45.0771 6.39733 45.1171 6.28533 45.1971 6.216C45.2771 6.14133 45.3758 6.104 45.4931 6.104Z" fill="#B3B6BA"/>
<path d="M48.8516 7.632C49.2196 7.632 49.5343 7.712 49.7956 7.872C50.0623 8.032 50.265 8.25867 50.4036 8.552C50.5476 8.84 50.6196 9.17867 50.6196 9.568V9.992H47.6836C47.6943 10.4773 47.817 10.848 48.0516 11.104C48.2916 11.3547 48.625 11.48 49.0516 11.48C49.3236 11.48 49.5636 11.456 49.7716 11.408C49.985 11.3547 50.2036 11.28 50.4276 11.184V11.8C50.209 11.896 49.993 11.9653 49.7796 12.008C49.5663 12.056 49.313 12.08 49.0196 12.08C48.6143 12.08 48.2543 11.9973 47.9396 11.832C47.6303 11.6667 47.3876 11.4213 47.2116 11.096C47.041 10.7653 46.9556 10.3627 46.9556 9.888C46.9556 9.41867 47.033 9.016 47.1876 8.68C47.3476 8.344 47.569 8.08533 47.8516 7.904C48.1396 7.72267 48.473 7.632 48.8516 7.632ZM48.8436 8.208C48.5076 8.208 48.241 8.31733 48.0436 8.536C47.8516 8.74933 47.737 9.048 47.6996 9.432H49.8836C49.8836 9.18667 49.8463 8.97333 49.7716 8.792C49.697 8.61067 49.5823 8.46933 49.4276 8.368C49.2783 8.26133 49.0836 8.208 48.8436 8.208Z" fill="#B3B6BA"/>
<path d="M53.7752 7.632C54.2872 7.632 54.6739 7.75733 54.9352 8.008C55.1966 8.25333 55.3273 8.65333 55.3273 9.208V12H54.6312V9.256C54.6312 8.90933 54.5539 8.65067 54.3993 8.48C54.2446 8.30933 54.0019 8.224 53.6712 8.224C53.1966 8.224 52.8686 8.35733 52.6872 8.624C52.5059 8.89067 52.4152 9.27467 52.4152 9.776V12H51.7113V7.712H52.2793L52.3833 8.296H52.4232C52.5192 8.14667 52.6366 8.024 52.7752 7.928C52.9192 7.82667 53.0766 7.752 53.2472 7.704C53.4179 7.656 53.5939 7.632 53.7752 7.632Z" fill="#B3B6BA"/>
<path d="M58.1766 12.08C57.6432 12.08 57.2166 11.896 56.8966 11.528C56.5766 11.1547 56.4166 10.6 56.4166 9.864C56.4166 9.128 56.5766 8.57333 56.8966 8.2C57.2219 7.82133 57.6512 7.632 58.1846 7.632C58.4086 7.632 58.6032 7.66133 58.7686 7.72C58.9339 7.77333 59.0779 7.848 59.2006 7.944C59.3232 8.04 59.4272 8.14667 59.5126 8.264H59.5606C59.5552 8.19467 59.5446 8.09333 59.5286 7.96C59.5179 7.82133 59.5126 7.712 59.5126 7.632V5.92H60.2166V12H59.6486L59.5446 11.424H59.5126C59.4272 11.5467 59.3232 11.6587 59.2006 11.76C59.0779 11.856 58.9312 11.9333 58.7606 11.992C58.5952 12.0507 58.4006 12.08 58.1766 12.08ZM58.2886 11.496C58.7419 11.496 59.0592 11.3733 59.2406 11.128C59.4272 10.8773 59.5206 10.5013 59.5206 10V9.872C59.5206 9.33867 59.4326 8.93067 59.2566 8.648C59.0806 8.36 58.7552 8.216 58.2806 8.216C57.9019 8.216 57.6166 8.368 57.4246 8.672C57.2379 8.97067 57.1446 9.37333 57.1446 9.88C57.1446 10.392 57.2379 10.7893 57.4246 11.072C57.6166 11.3547 57.9046 11.496 58.2886 11.496Z" fill="#B3B6BA"/>
<path d="M66.2726 12L64.3926 6.992H64.3606C64.3712 7.09867 64.3792 7.23467 64.3846 7.4C64.3952 7.56533 64.4032 7.74667 64.4086 7.944C64.4139 8.136 64.4166 8.33333 64.4166 8.536V12H63.7526V6.288H64.8166L66.5766 10.968H66.6086L68.4006 6.288H69.4566V12H68.7446V8.488C68.7446 8.30133 68.7472 8.11733 68.7526 7.936C68.7579 7.74933 68.7659 7.576 68.7766 7.416C68.7872 7.25067 68.7952 7.112 68.8006 7H68.7686L66.8646 12H66.2726Z" fill="#B3B6BA"/>
<path d="M72.5704 7.632C72.9384 7.632 73.253 7.712 73.5144 7.872C73.781 8.032 73.9837 8.25867 74.1224 8.552C74.2664 8.84 74.3384 9.17867 74.3384 9.568V9.992H71.4024C71.413 10.4773 71.5357 10.848 71.7704 11.104C72.0104 11.3547 72.3437 11.48 72.7704 11.48C73.0424 11.48 73.2824 11.456 73.4904 11.408C73.7037 11.3547 73.9224 11.28 74.1464 11.184V11.8C73.9277 11.896 73.7117 11.9653 73.4984 12.008C73.285 12.056 73.0317 12.08 72.7384 12.08C72.333 12.08 71.973 11.9973 71.6584 11.832C71.349 11.6667 71.1064 11.4213 70.9304 11.096C70.7597 10.7653 70.6744 10.3627 70.6744 9.888C70.6744 9.41867 70.7517 9.016 70.9064 8.68C71.0664 8.344 71.2877 8.08533 71.5704 7.904C71.8584 7.72267 72.1917 7.632 72.5704 7.632ZM72.5624 8.208C72.2264 8.208 71.9597 8.31733 71.7624 8.536C71.5704 8.74933 71.4557 9.048 71.4184 9.432H73.6024C73.6024 9.18667 73.565 8.97333 73.4904 8.792C73.4157 8.61067 73.301 8.46933 73.1464 8.368C72.997 8.26133 72.8024 8.208 72.5624 8.208Z" fill="#B3B6BA"/>
<path d="M8.11706 3L3 22.8829L22.8829 28L28 8.11706L8.11706 3ZM14.0582 13.0593L17.9394 14.0577L16.9404 17.9394L13.0593 16.9404L14.0582 13.0593Z" fill="black"/>
<defs>
<linearGradient id="paint0_linear_41_38" x1="0" y1="15.5" x2="88" y2="15.5" gradientUnits="userSpaceOnUse">
<stop stop-color="#3156FF"/>
<stop offset="1" stop-color="#1D1D1D"/>
</linearGradient>
</defs>
</svg>
