<svg width="88" height="31" viewBox="0 0 88 31" fill="none" xmlns="http://www.w3.org/2000/svg">
<rect width="88" height="31" fill="#1E1E1E"/>
<path d="M0 0H88V31H0V0Z" fill="url(#paint0_linear_0_1)"/>
<path d="M15.4781 3C8.90249 3 3.51031 8.0625 3 14.4969L9.71231 17.2656C10.2811 16.8792 10.9677 16.651 11.7076 16.651C11.7734 16.651 11.8381 16.6552 11.9038 16.6573L14.8895 12.3427V12.2812C14.8895 9.68229 17.0059 7.56875 19.6107 7.56875C22.2133 7.56875 24.3318 9.68437 24.3318 12.2844C24.3318 14.8844 22.2133 16.9979 19.6107 16.9979H19.5011L15.2475 20.0302C15.2475 20.0844 15.2516 20.1396 15.2516 20.1958C15.2516 22.149 13.6706 23.7333 11.7139 23.7333C10.0076 23.7333 8.56645 22.5115 8.23773 20.8927L3.43204 18.9062C4.92019 24.1531 9.7457 28 15.4781 28C22.3939 28 28 22.4031 28 15.5C28 8.59687 22.3928 3 15.4781 3ZM10.8456 21.9687L9.30844 21.3333C9.58186 21.899 10.0536 22.374 10.6797 22.6354C12.0332 23.1969 13.5944 22.5562 14.1569 21.2031C14.4314 20.5469 14.4324 19.8292 14.1621 19.1729C13.8918 18.5167 13.3794 18.0052 12.7251 17.7323C12.0739 17.4615 11.3789 17.4729 10.7653 17.701L12.3546 18.3573C13.3523 18.774 13.8251 19.9198 13.4076 20.9146C12.9933 21.9115 11.8443 22.3833 10.8456 21.9687ZM22.7581 12.2781C22.7581 10.5469 21.3461 9.1375 19.6117 9.1375C17.8741 9.1375 16.4653 10.5469 16.4653 12.2781C16.4653 14.0125 17.8741 15.4187 19.6117 15.4187C21.3472 15.4187 22.7581 14.0125 22.7581 12.2781ZM17.2553 12.2729C17.2553 10.9688 18.3124 9.9125 19.619 9.9125C20.9224 9.9125 21.9838 10.9688 21.9838 12.2729C21.9838 13.576 20.9224 14.6323 19.619 14.6323C18.3114 14.6323 17.2553 13.576 17.2553 12.2729Z" fill="black"/>
<path d="M43.158 26H40.062V25.376L41.07 25.148V18.296L40.062 18.056V17.432H43.158V18.056L42.15 18.296V25.148L43.158 25.376V26Z" fill="white"/>
<path d="M51.7244 19.448C52.4524 19.448 52.9964 19.636 53.3564 20.012C53.7164 20.38 53.8964 20.98 53.8964 21.812V26H52.8524V21.86C52.8524 21.356 52.7444 20.976 52.5284 20.72C52.3204 20.464 51.9924 20.336 51.5444 20.336C50.9204 20.336 50.4724 20.516 50.2004 20.876C49.9364 21.236 49.8044 21.76 49.8044 22.448V26H48.7604V21.86C48.7604 21.524 48.7124 21.244 48.6164 21.02C48.5204 20.788 48.3764 20.616 48.1844 20.504C47.9924 20.392 47.7444 20.336 47.4404 20.336C47.0084 20.336 46.6684 20.428 46.4204 20.612C46.1724 20.788 45.9924 21.048 45.8804 21.392C45.7764 21.736 45.7244 22.16 45.7244 22.664V26H44.6684V19.568H45.5204L45.6764 20.444H45.7364C45.8724 20.22 46.0364 20.036 46.2284 19.892C46.4284 19.74 46.6484 19.628 46.8884 19.556C47.1284 19.484 47.3764 19.448 47.6324 19.448C48.1284 19.448 48.5404 19.536 48.8684 19.712C49.2044 19.888 49.4484 20.16 49.6004 20.528H49.6604C49.8764 20.16 50.1684 19.888 50.5364 19.712C50.9124 19.536 51.3084 19.448 51.7244 19.448Z" fill="white"/>
<path d="M58.3193 19.46C59.1033 19.46 59.6833 19.632 60.0593 19.976C60.4353 20.32 60.6233 20.868 60.6233 21.62V26H59.8553L59.6513 25.088H59.6033C59.4193 25.32 59.2273 25.516 59.0273 25.676C58.8353 25.828 58.6113 25.94 58.3553 26.012C58.1073 26.084 57.8033 26.12 57.4433 26.12C57.0593 26.12 56.7113 26.052 56.3993 25.916C56.0953 25.78 55.8553 25.572 55.6793 25.292C55.5033 25.004 55.4153 24.644 55.4153 24.212C55.4153 23.572 55.6673 23.08 56.1713 22.736C56.6753 22.384 57.4513 22.192 58.4993 22.16L59.5913 22.124V21.74C59.5913 21.204 59.4753 20.832 59.2433 20.624C59.0113 20.416 58.6833 20.312 58.2593 20.312C57.9233 20.312 57.6033 20.364 57.2993 20.468C56.9953 20.564 56.7113 20.676 56.4473 20.804L56.1233 20.012C56.4033 19.86 56.7353 19.732 57.1193 19.628C57.5033 19.516 57.9033 19.46 58.3193 19.46ZM58.6313 22.892C57.8313 22.924 57.2753 23.052 56.9633 23.276C56.6593 23.5 56.5073 23.816 56.5073 24.224C56.5073 24.584 56.6153 24.848 56.8313 25.016C57.0553 25.184 57.3393 25.268 57.6833 25.268C58.2273 25.268 58.6793 25.12 59.0393 24.824C59.3993 24.52 59.5793 24.056 59.5793 23.432V22.856L58.6313 22.892Z" fill="white"/>
<path d="M65.1898 26.12C64.6218 26.12 64.1138 26.004 63.6658 25.772C63.2258 25.54 62.8778 25.18 62.6218 24.692C62.3738 24.204 62.2498 23.58 62.2498 22.82C62.2498 22.028 62.3818 21.384 62.6458 20.888C62.9098 20.392 63.2658 20.028 63.7138 19.796C64.1698 19.564 64.6858 19.448 65.2618 19.448C65.5898 19.448 65.9058 19.484 66.2098 19.556C66.5138 19.62 66.7618 19.7 66.9538 19.796L66.6298 20.672C66.4378 20.6 66.2138 20.532 65.9578 20.468C65.7018 20.404 65.4618 20.372 65.2378 20.372C64.8058 20.372 64.4498 20.464 64.1698 20.648C63.8898 20.832 63.6818 21.104 63.5458 21.464C63.4098 21.824 63.3418 22.272 63.3418 22.808C63.3418 23.32 63.4098 23.756 63.5458 24.116C63.6818 24.476 63.8858 24.748 64.1578 24.932C64.4298 25.116 64.7698 25.208 65.1778 25.208C65.5298 25.208 65.8378 25.172 66.1018 25.1C66.3738 25.028 66.6218 24.94 66.8458 24.836V25.772C66.6298 25.884 66.3898 25.968 66.1258 26.024C65.8698 26.088 65.5578 26.12 65.1898 26.12Z" fill="white"/>
<path d="M70.8115 19.46C71.5955 19.46 72.1755 19.632 72.5515 19.976C72.9275 20.32 73.1155 20.868 73.1155 21.62V26H72.3475L72.1435 25.088H72.0955C71.9115 25.32 71.7195 25.516 71.5195 25.676C71.3275 25.828 71.1035 25.94 70.8475 26.012C70.5995 26.084 70.2955 26.12 69.9355 26.12C69.5515 26.12 69.2035 26.052 68.8915 25.916C68.5875 25.78 68.3475 25.572 68.1715 25.292C67.9955 25.004 67.9075 24.644 67.9075 24.212C67.9075 23.572 68.1595 23.08 68.6635 22.736C69.1675 22.384 69.9435 22.192 70.9915 22.16L72.0835 22.124V21.74C72.0835 21.204 71.9675 20.832 71.7355 20.624C71.5035 20.416 71.1755 20.312 70.7515 20.312C70.4155 20.312 70.0955 20.364 69.7915 20.468C69.4875 20.564 69.2035 20.676 68.9395 20.804L68.6155 20.012C68.8955 19.86 69.2275 19.732 69.6115 19.628C69.9955 19.516 70.3955 19.46 70.8115 19.46ZM71.1235 22.892C70.3235 22.924 69.7675 23.052 69.4555 23.276C69.1515 23.5 68.9995 23.816 68.9995 24.224C68.9995 24.584 69.1075 24.848 69.3235 25.016C69.5475 25.184 69.8315 25.268 70.1755 25.268C70.7195 25.268 71.1715 25.12 71.5315 24.824C71.8915 24.52 72.0715 24.056 72.0715 23.432V22.856L71.1235 22.892Z" fill="white"/>
<path d="M77.25 25.256C77.41 25.256 77.574 25.244 77.742 25.22C77.91 25.188 78.046 25.156 78.15 25.124V25.928C78.038 25.984 77.878 26.028 77.67 26.06C77.462 26.1 77.262 26.12 77.07 26.12C76.734 26.12 76.422 26.064 76.134 25.952C75.854 25.832 75.626 25.628 75.45 25.34C75.274 25.052 75.186 24.648 75.186 24.128V20.384H74.274V19.88L75.198 19.46L75.618 18.092H76.242V19.568H78.102V20.384H76.242V24.104C76.242 24.496 76.334 24.788 76.518 24.98C76.71 25.164 76.954 25.256 77.25 25.256Z" fill="white"/>
<path d="M37.6601 12H36.9401V6.288H40.1321V6.92H37.6601V8.944H39.9801V9.576H37.6601V12Z" fill="white" fill-opacity="0.7"/>
<path d="M42.9925 7.632C43.0725 7.632 43.1578 7.63733 43.2485 7.648C43.3445 7.65333 43.4272 7.664 43.4965 7.68L43.4085 8.328C43.3392 8.312 43.2618 8.29867 43.1765 8.288C43.0965 8.27733 43.0192 8.272 42.9445 8.272C42.7792 8.272 42.6218 8.30667 42.4725 8.376C42.3232 8.44533 42.1898 8.544 42.0725 8.672C41.9552 8.79467 41.8618 8.944 41.7925 9.12C41.7285 9.296 41.6965 9.49333 41.6965 9.712V12H40.9925V7.712H41.5685L41.6485 8.496H41.6805C41.7712 8.336 41.8805 8.192 42.0085 8.064C42.1365 7.93067 42.2832 7.82667 42.4485 7.752C42.6138 7.672 42.7952 7.632 42.9925 7.632Z" fill="white" fill-opacity="0.7"/>
<path d="M45.0012 7.712V12H44.2972V7.712H45.0012ZM44.6572 6.104C44.7639 6.104 44.8572 6.14133 44.9372 6.216C45.0225 6.28533 45.0652 6.39733 45.0652 6.552C45.0652 6.70133 45.0225 6.81333 44.9372 6.888C44.8572 6.96267 44.7639 7 44.6572 7C44.5399 7 44.4412 6.96267 44.3612 6.888C44.2812 6.81333 44.2412 6.70133 44.2412 6.552C44.2412 6.39733 44.2812 6.28533 44.3612 6.216C44.4412 6.14133 44.5399 6.104 44.6572 6.104Z" fill="white" fill-opacity="0.7"/>
<path d="M48.0157 7.632C48.3837 7.632 48.6984 7.712 48.9597 7.872C49.2264 8.032 49.429 8.25867 49.5677 8.552C49.7117 8.84 49.7837 9.17867 49.7837 9.568V9.992H46.8477C46.8584 10.4773 46.981 10.848 47.2157 11.104C47.4557 11.3547 47.789 11.48 48.2157 11.48C48.4877 11.48 48.7277 11.456 48.9357 11.408C49.149 11.3547 49.3677 11.28 49.5917 11.184V11.8C49.373 11.896 49.157 11.9653 48.9437 12.008C48.7304 12.056 48.477 12.08 48.1837 12.08C47.7784 12.08 47.4184 11.9973 47.1037 11.832C46.7944 11.6667 46.5517 11.4213 46.3757 11.096C46.205 10.7653 46.1197 10.3627 46.1197 9.888C46.1197 9.41867 46.197 9.016 46.3517 8.68C46.5117 8.344 46.733 8.08533 47.0157 7.904C47.3037 7.72267 47.637 7.632 48.0157 7.632ZM48.0077 8.208C47.6717 8.208 47.405 8.31733 47.2077 8.536C47.0157 8.74933 46.901 9.048 46.8637 9.432H49.0477C49.0477 9.18667 49.0104 8.97333 48.9357 8.792C48.861 8.61067 48.7464 8.46933 48.5917 8.368C48.4424 8.26133 48.2477 8.208 48.0077 8.208Z" fill="white" fill-opacity="0.7"/>
<path d="M52.9393 7.632C53.4513 7.632 53.838 7.75733 54.0993 8.008C54.3606 8.25333 54.4913 8.65333 54.4913 9.208V12H53.7953V9.256C53.7953 8.90933 53.718 8.65067 53.5633 8.48C53.4086 8.30933 53.166 8.224 52.8353 8.224C52.3606 8.224 52.0326 8.35733 51.8513 8.624C51.67 8.89067 51.5793 9.27467 51.5793 9.776V12H50.8753V7.712H51.4433L51.5473 8.296H51.5873C51.6833 8.14667 51.8006 8.024 51.9393 7.928C52.0833 7.82667 52.2406 7.752 52.4113 7.704C52.582 7.656 52.758 7.632 52.9393 7.632Z" fill="white" fill-opacity="0.7"/>
<path d="M57.3406 12.08C56.8073 12.08 56.3806 11.896 56.0606 11.528C55.7406 11.1547 55.5806 10.6 55.5806 9.864C55.5806 9.128 55.7406 8.57333 56.0606 8.2C56.386 7.82133 56.8153 7.632 57.3486 7.632C57.5726 7.632 57.7673 7.66133 57.9326 7.72C58.098 7.77333 58.242 7.848 58.3646 7.944C58.4873 8.04 58.5913 8.14667 58.6766 8.264H58.7246C58.7193 8.19467 58.7086 8.09333 58.6926 7.96C58.682 7.82133 58.6766 7.712 58.6766 7.632V5.92H59.3806V12H58.8126L58.7086 11.424H58.6766C58.5913 11.5467 58.4873 11.6587 58.3646 11.76C58.242 11.856 58.0953 11.9333 57.9246 11.992C57.7593 12.0507 57.5646 12.08 57.3406 12.08ZM57.4526 11.496C57.906 11.496 58.2233 11.3733 58.4046 11.128C58.5913 10.8773 58.6846 10.5013 58.6846 10V9.872C58.6846 9.33867 58.5966 8.93067 58.4206 8.648C58.2446 8.36 57.9193 8.216 57.4446 8.216C57.066 8.216 56.7806 8.368 56.5886 8.672C56.402 8.97067 56.3086 9.37333 56.3086 9.88C56.3086 10.392 56.402 10.7893 56.5886 11.072C56.7806 11.3547 57.0686 11.496 57.4526 11.496Z" fill="white" fill-opacity="0.7"/>
<path d="M65.4366 12L63.5566 6.992H63.5246C63.5353 7.09867 63.5433 7.23467 63.5486 7.4C63.5593 7.56533 63.5673 7.74667 63.5726 7.944C63.578 8.136 63.5806 8.33333 63.5806 8.536V12H62.9166V6.288H63.9806L65.7406 10.968H65.7726L67.5646 6.288H68.6206V12H67.9086V8.488C67.9086 8.30133 67.9113 8.11733 67.9166 7.936C67.922 7.74933 67.93 7.576 67.9406 7.416C67.9513 7.25067 67.9593 7.112 67.9646 7H67.9326L66.0286 12H65.4366Z" fill="white" fill-opacity="0.7"/>
<path d="M71.7344 7.632C72.1024 7.632 72.4171 7.712 72.6784 7.872C72.9451 8.032 73.1478 8.25867 73.2864 8.552C73.4304 8.84 73.5024 9.17867 73.5024 9.568V9.992H70.5664C70.5771 10.4773 70.6998 10.848 70.9344 11.104C71.1744 11.3547 71.5078 11.48 71.9344 11.48C72.2064 11.48 72.4464 11.456 72.6544 11.408C72.8678 11.3547 73.0864 11.28 73.3104 11.184V11.8C73.0918 11.896 72.8758 11.9653 72.6624 12.008C72.4491 12.056 72.1958 12.08 71.9024 12.08C71.4971 12.08 71.1371 11.9973 70.8224 11.832C70.5131 11.6667 70.2704 11.4213 70.0944 11.096C69.9238 10.7653 69.8384 10.3627 69.8384 9.888C69.8384 9.41867 69.9158 9.016 70.0704 8.68C70.2304 8.344 70.4518 8.08533 70.7344 7.904C71.0224 7.72267 71.3558 7.632 71.7344 7.632ZM71.7264 8.208C71.3904 8.208 71.1238 8.31733 70.9264 8.536C70.7344 8.74933 70.6198 9.048 70.5824 9.432H72.7664C72.7664 9.18667 72.7291 8.97333 72.6544 8.792C72.5798 8.61067 72.4651 8.46933 72.3104 8.368C72.1611 8.26133 71.9664 8.208 71.7264 8.208Z" fill="white" fill-opacity="0.7"/>
<defs>
<linearGradient id="paint0_linear_0_1" x1="0" y1="15.5" x2="88" y2="15.5" gradientUnits="userSpaceOnUse">
<stop stop-color="#123E71"/>
<stop offset="1"/>
</linearGradient>
</defs>
</svg>
