<svg width="88" height="31" viewBox="0 0 88 31" fill="none" xmlns="http://www.w3.org/2000/svg">
<path d="M0 0H88V31H0V0Z" fill="url(#paint0_linear_41_35)"/>
<path d="M38.496 12H37.776V6.288H40.968V6.92H38.496V8.944H40.816V9.576H38.496V12Z" fill="#B3B6BA"/>
<path d="M43.8284 7.632C43.9084 7.632 43.9938 7.63733 44.0844 7.648C44.1804 7.65333 44.2631 7.664 44.3324 7.68L44.2444 8.328C44.1751 8.312 44.0978 8.29867 44.0124 8.288C43.9324 8.27733 43.8551 8.272 43.7804 8.272C43.6151 8.272 43.4578 8.30667 43.3084 8.376C43.1591 8.44533 43.0258 8.544 42.9084 8.672C42.7911 8.79467 42.6978 8.944 42.6284 9.12C42.5644 9.296 42.5324 9.49333 42.5324 9.712V12H41.8284V7.712H42.4044L42.4844 8.496H42.5164C42.6071 8.336 42.7164 8.192 42.8444 8.064C42.9724 7.93067 43.1191 7.82667 43.2844 7.752C43.4498 7.672 43.6311 7.632 43.8284 7.632Z" fill="#B3B6BA"/>
<path d="M45.8371 7.712V12H45.1331V7.712H45.8371ZM45.4931 6.104C45.5998 6.104 45.6931 6.14133 45.7731 6.216C45.8585 6.28533 45.9011 6.39733 45.9011 6.552C45.9011 6.70133 45.8585 6.81333 45.7731 6.888C45.6931 6.96267 45.5998 7 45.4931 7C45.3758 7 45.2771 6.96267 45.1971 6.888C45.1171 6.81333 45.0771 6.70133 45.0771 6.552C45.0771 6.39733 45.1171 6.28533 45.1971 6.216C45.2771 6.14133 45.3758 6.104 45.4931 6.104Z" fill="#B3B6BA"/>
<path d="M48.8516 7.632C49.2196 7.632 49.5343 7.712 49.7956 7.872C50.0623 8.032 50.265 8.25867 50.4036 8.552C50.5476 8.84 50.6196 9.17867 50.6196 9.568V9.992H47.6836C47.6943 10.4773 47.817 10.848 48.0516 11.104C48.2916 11.3547 48.625 11.48 49.0516 11.48C49.3236 11.48 49.5636 11.456 49.7716 11.408C49.985 11.3547 50.2036 11.28 50.4276 11.184V11.8C50.209 11.896 49.993 11.9653 49.7796 12.008C49.5663 12.056 49.313 12.08 49.0196 12.08C48.6143 12.08 48.2543 11.9973 47.9396 11.832C47.6303 11.6667 47.3876 11.4213 47.2116 11.096C47.041 10.7653 46.9556 10.3627 46.9556 9.888C46.9556 9.41867 47.033 9.016 47.1876 8.68C47.3476 8.344 47.569 8.08533 47.8516 7.904C48.1396 7.72267 48.473 7.632 48.8516 7.632ZM48.8436 8.208C48.5076 8.208 48.241 8.31733 48.0436 8.536C47.8516 8.74933 47.737 9.048 47.6996 9.432H49.8836C49.8836 9.18667 49.8463 8.97333 49.7716 8.792C49.697 8.61067 49.5823 8.46933 49.4276 8.368C49.2783 8.26133 49.0836 8.208 48.8436 8.208Z" fill="#B3B6BA"/>
<path d="M53.7752 7.632C54.2872 7.632 54.6739 7.75733 54.9352 8.008C55.1966 8.25333 55.3273 8.65333 55.3273 9.208V12H54.6312V9.256C54.6312 8.90933 54.5539 8.65067 54.3993 8.48C54.2446 8.30933 54.0019 8.224 53.6712 8.224C53.1966 8.224 52.8686 8.35733 52.6872 8.624C52.5059 8.89067 52.4152 9.27467 52.4152 9.776V12H51.7113V7.712H52.2793L52.3833 8.296H52.4232C52.5192 8.14667 52.6366 8.024 52.7752 7.928C52.9192 7.82667 53.0766 7.752 53.2472 7.704C53.4179 7.656 53.5939 7.632 53.7752 7.632Z" fill="#B3B6BA"/>
<path d="M58.1766 12.08C57.6432 12.08 57.2166 11.896 56.8966 11.528C56.5766 11.1547 56.4166 10.6 56.4166 9.864C56.4166 9.128 56.5766 8.57333 56.8966 8.2C57.2219 7.82133 57.6512 7.632 58.1846 7.632C58.4086 7.632 58.6032 7.66133 58.7686 7.72C58.9339 7.77333 59.0779 7.848 59.2006 7.944C59.3232 8.04 59.4272 8.14667 59.5126 8.264H59.5606C59.5552 8.19467 59.5446 8.09333 59.5286 7.96C59.5179 7.82133 59.5126 7.712 59.5126 7.632V5.92H60.2166V12H59.6486L59.5446 11.424H59.5126C59.4272 11.5467 59.3232 11.6587 59.2006 11.76C59.0779 11.856 58.9312 11.9333 58.7606 11.992C58.5952 12.0507 58.4006 12.08 58.1766 12.08ZM58.2886 11.496C58.7419 11.496 59.0592 11.3733 59.2406 11.128C59.4272 10.8773 59.5206 10.5013 59.5206 10V9.872C59.5206 9.33867 59.4326 8.93067 59.2566 8.648C59.0806 8.36 58.7552 8.216 58.2806 8.216C57.9019 8.216 57.6166 8.368 57.4246 8.672C57.2379 8.97067 57.1446 9.37333 57.1446 9.88C57.1446 10.392 57.2379 10.7893 57.4246 11.072C57.6166 11.3547 57.9046 11.496 58.2886 11.496Z" fill="#B3B6BA"/>
<path d="M68.3606 7.632C68.8459 7.632 69.2086 7.75733 69.4486 8.008C69.6886 8.25333 69.8086 8.65333 69.8086 9.208V12H69.1126V9.24C69.1126 8.904 69.0406 8.65067 68.8966 8.48C68.7579 8.30933 68.5392 8.224 68.2406 8.224C67.8246 8.224 67.5259 8.344 67.3446 8.584C67.1686 8.824 67.0806 9.17333 67.0806 9.632V12H66.3846V9.24C66.3846 9.016 66.3526 8.82933 66.2886 8.68C66.2246 8.52533 66.1286 8.41067 66.0006 8.336C65.8726 8.26133 65.7072 8.224 65.5046 8.224C65.2166 8.224 64.9899 8.28533 64.8246 8.408C64.6592 8.52533 64.5392 8.69867 64.4646 8.928C64.3952 9.15733 64.3606 9.44 64.3606 9.776V12H63.6566V7.712H64.2246L64.3286 8.296H64.3686C64.4592 8.14667 64.5686 8.024 64.6966 7.928C64.8299 7.82667 64.9766 7.752 65.1366 7.704C65.2966 7.656 65.4619 7.632 65.6326 7.632C65.9632 7.632 66.2379 7.69067 66.4566 7.808C66.6806 7.92533 66.8432 8.10667 66.9446 8.352H66.9846C67.1286 8.10667 67.3232 7.92533 67.5686 7.808C67.8192 7.69067 68.0832 7.632 68.3606 7.632Z" fill="#B3B6BA"/>
<path d="M72.7891 7.632C73.1571 7.632 73.4718 7.712 73.7331 7.872C73.9998 8.032 74.2025 8.25867 74.3411 8.552C74.4851 8.84 74.5571 9.17867 74.5571 9.568V9.992H71.6211C71.6318 10.4773 71.7545 10.848 71.9891 11.104C72.2291 11.3547 72.5625 11.48 72.9891 11.48C73.2611 11.48 73.5011 11.456 73.7091 11.408C73.9225 11.3547 74.1411 11.28 74.3651 11.184V11.8C74.1465 11.896 73.9305 11.9653 73.7171 12.008C73.5038 12.056 73.2505 12.08 72.9571 12.08C72.5518 12.08 72.1918 11.9973 71.8771 11.832C71.5678 11.6667 71.3251 11.4213 71.1491 11.096C70.9785 10.7653 70.8931 10.3627 70.8931 9.888C70.8931 9.41867 70.9705 9.016 71.1251 8.68C71.2851 8.344 71.5065 8.08533 71.7891 7.904C72.0771 7.72267 72.4105 7.632 72.7891 7.632ZM72.7811 8.208C72.4451 8.208 72.1785 8.31733 71.9811 8.536C71.7891 8.74933 71.6745 9.048 71.6371 9.432H73.8211C73.8211 9.18667 73.7838 8.97333 73.7091 8.792C73.6345 8.61067 73.5198 8.46933 73.3651 8.368C73.2158 8.26133 73.0211 8.208 72.7811 8.208Z" fill="#B3B6BA"/>
<path d="M41.278 27H38.44V26.428L39.364 26.219V19.938L38.44 19.718V19.146H41.278V19.718L40.354 19.938V26.219L41.278 26.428V27Z" fill="white"/>
<path d="M49.1305 20.994C49.7979 20.994 50.2965 21.1663 50.6265 21.511C50.9565 21.8483 51.1215 22.3983 51.1215 23.161V27H50.1645V23.205C50.1645 22.743 50.0655 22.3947 49.8675 22.16C49.6769 21.9253 49.3762 21.808 48.9655 21.808C48.3935 21.808 47.9829 21.973 47.7335 22.303C47.4915 22.633 47.3705 23.1133 47.3705 23.744V27H46.4135V23.205C46.4135 22.897 46.3695 22.6403 46.2815 22.435C46.1935 22.2223 46.0615 22.0647 45.8855 21.962C45.7095 21.8593 45.4822 21.808 45.2035 21.808C44.8075 21.808 44.4959 21.8923 44.2685 22.061C44.0412 22.2223 43.8762 22.4607 43.7735 22.776C43.6782 23.0913 43.6305 23.48 43.6305 23.942V27H42.6625V21.104H43.4435L43.5865 21.907H43.6415C43.7662 21.7017 43.9165 21.533 44.0925 21.401C44.2759 21.2617 44.4775 21.159 44.6975 21.093C44.9175 21.027 45.1449 20.994 45.3795 20.994C45.8342 20.994 46.2119 21.0747 46.5125 21.236C46.8205 21.3973 47.0442 21.6467 47.1835 21.984H47.2385C47.4365 21.6467 47.7042 21.3973 48.0415 21.236C48.3862 21.0747 48.7492 20.994 49.1305 20.994Z" fill="white"/>
<path d="M55.1758 21.005C55.8945 21.005 56.4261 21.1627 56.7708 21.478C57.1155 21.7933 57.2878 22.2957 57.2878 22.985V27H56.5838L56.3968 26.164H56.3528C56.1841 26.3767 56.0081 26.5563 55.8248 26.703C55.6488 26.8423 55.4435 26.945 55.2088 27.011C54.9815 27.077 54.7028 27.11 54.3728 27.11C54.0208 27.11 53.7018 27.0477 53.4158 26.923C53.1371 26.7983 52.9171 26.6077 52.7558 26.351C52.5945 26.087 52.5138 25.757 52.5138 25.361C52.5138 24.7743 52.7448 24.3233 53.2068 24.008C53.6688 23.6853 54.3801 23.5093 55.3408 23.48L56.3418 23.447V23.095C56.3418 22.6037 56.2355 22.2627 56.0228 22.072C55.8101 21.8813 55.5095 21.786 55.1208 21.786C54.8128 21.786 54.5195 21.8337 54.2408 21.929C53.9621 22.017 53.7018 22.1197 53.4598 22.237L53.1628 21.511C53.4195 21.3717 53.7238 21.2543 54.0758 21.159C54.4278 21.0563 54.7945 21.005 55.1758 21.005ZM55.4618 24.151C54.7285 24.1803 54.2188 24.2977 53.9328 24.503C53.6541 24.7083 53.5148 24.998 53.5148 25.372C53.5148 25.702 53.6138 25.944 53.8118 26.098C54.0171 26.252 54.2775 26.329 54.5928 26.329C55.0915 26.329 55.5058 26.1933 55.8358 25.922C56.1658 25.6433 56.3308 25.218 56.3308 24.646V24.118L55.4618 24.151Z" fill="white"/>
<path d="M61.4738 27.11C60.9532 27.11 60.4875 27.0037 60.0768 26.791C59.6735 26.5783 59.3545 26.2483 59.1198 25.801C58.8925 25.3537 58.7788 24.7817 58.7788 24.085C58.7788 23.359 58.8998 22.7687 59.1418 22.314C59.3838 21.8593 59.7102 21.5257 60.1208 21.313C60.5388 21.1003 61.0118 20.994 61.5398 20.994C61.8405 20.994 62.1302 21.027 62.4088 21.093C62.6875 21.1517 62.9148 21.225 63.0908 21.313L62.7938 22.116C62.6178 22.05 62.4125 21.9877 62.1778 21.929C61.9432 21.8703 61.7232 21.841 61.5178 21.841C61.1218 21.841 60.7955 21.9253 60.5388 22.094C60.2822 22.2627 60.0915 22.512 59.9668 22.842C59.8422 23.172 59.7798 23.5827 59.7798 24.074C59.7798 24.5433 59.8422 24.943 59.9668 25.273C60.0915 25.603 60.2785 25.8523 60.5278 26.021C60.7772 26.1897 61.0888 26.274 61.4628 26.274C61.7855 26.274 62.0678 26.241 62.3098 26.175C62.5592 26.109 62.7865 26.0283 62.9918 25.933V26.791C62.7938 26.8937 62.5738 26.9707 62.3318 27.022C62.0972 27.0807 61.8112 27.11 61.4738 27.11Z" fill="white"/>
<path d="M66.627 21.005C67.3457 21.005 67.8773 21.1627 68.222 21.478C68.5667 21.7933 68.739 22.2957 68.739 22.985V27H68.035L67.848 26.164H67.804C67.6353 26.3767 67.4593 26.5563 67.276 26.703C67.1 26.8423 66.8946 26.945 66.66 27.011C66.4326 27.077 66.154 27.11 65.824 27.11C65.472 27.11 65.153 27.0477 64.867 26.923C64.5883 26.7983 64.3683 26.6077 64.207 26.351C64.0457 26.087 63.965 25.757 63.965 25.361C63.965 24.7743 64.196 24.3233 64.658 24.008C65.12 23.6853 65.8313 23.5093 66.792 23.48L67.793 23.447V23.095C67.793 22.6037 67.6867 22.2627 67.474 22.072C67.2613 21.8813 66.9607 21.786 66.572 21.786C66.264 21.786 65.9707 21.8337 65.692 21.929C65.4133 22.017 65.153 22.1197 64.911 22.237L64.614 21.511C64.8706 21.3717 65.175 21.2543 65.527 21.159C65.879 21.0563 66.2457 21.005 66.627 21.005ZM66.913 24.151C66.1797 24.1803 65.67 24.2977 65.384 24.503C65.1053 24.7083 64.966 24.998 64.966 25.372C64.966 25.702 65.065 25.944 65.263 26.098C65.4683 26.252 65.7287 26.329 66.044 26.329C66.5427 26.329 66.957 26.1933 67.287 25.922C67.617 25.6433 67.782 25.218 67.782 24.646V24.118L66.913 24.151Z" fill="white"/>
<path d="M72.529 26.318C72.6757 26.318 72.826 26.307 72.98 26.285C73.134 26.2557 73.2587 26.2263 73.354 26.197V26.934C73.2513 26.9853 73.1047 27.0257 72.914 27.055C72.7233 27.0917 72.54 27.11 72.364 27.11C72.056 27.11 71.77 27.0587 71.506 26.956C71.2493 26.846 71.0403 26.659 70.879 26.395C70.7177 26.131 70.637 25.7607 70.637 25.284V21.852H69.801V21.39L70.648 21.005L71.033 19.751H71.605V21.104H73.31V21.852H71.605V25.262C71.605 25.6213 71.6893 25.889 71.858 26.065C72.034 26.2337 72.2577 26.318 72.529 26.318Z" fill="white"/>
<path d="M15.4863 3C22.3973 3 28 8.59648 28 15.5C28 22.4036 22.3973 28 15.4863 28C10.0043 27.9999 5.34483 24.4757 3.65332 19.5732L3.51562 19.1465L8.25195 21.0986C8.48657 22.1642 9.22176 23.0986 10.3018 23.5479C11.1514 23.9005 12.1063 23.9019 12.957 23.5518C13.8076 23.2016 14.4846 22.5288 14.8389 21.6807C15.0278 21.2288 15.1191 20.7415 15.1064 20.252L19.4834 17.125L19.5908 17.127C22.2128 17.127 24.3447 14.9918 24.3447 12.3691C24.3447 9.7465 22.2167 7.61875 19.5908 7.61328C16.9702 7.61342 14.8379 9.74658 14.8379 12.3691H14.8418L14.8428 12.4307L11.7812 16.874C11.2854 16.8514 10.7878 16.9387 10.3154 17.1328C10.1098 17.2163 9.91331 17.321 9.72949 17.4453L3.00586 14.6768L3.00488 14.6797C3.00303 14.6766 3.00186 14.673 3 14.6699C3.42858 8.15392 8.85504 3.00008 15.4863 3Z" fill="url(#paint1_linear_41_35)"/>
<path d="M10.6875 17.8408C11.3045 17.6065 12.006 17.5988 12.6621 17.8711C13.3268 18.1457 13.8353 18.6629 14.1074 19.3242C14.3795 19.9855 14.378 20.7146 14.1035 21.373L13.9883 21.6211C13.3424 22.816 11.8837 23.3485 10.6055 22.8164C10.0004 22.5624 9.51002 22.0947 9.22754 21.5029L10.7754 22.1436C11.0143 22.2428 11.2705 22.2945 11.5293 22.2949C11.7882 22.2953 12.0449 22.2441 12.2842 22.1455C12.5233 22.0469 12.7406 21.9022 12.9238 21.7197C13.1071 21.5371 13.2532 21.3199 13.3525 21.0811C13.5536 20.5985 13.5545 20.0556 13.3555 19.5723C13.1564 19.0891 12.7736 18.7045 12.291 18.5029L10.6875 17.8408Z" fill="url(#paint2_linear_41_35)"/>
<path fill-rule="evenodd" clip-rule="evenodd" d="M19.5957 9.20117C20.4356 9.20332 21.2404 9.53826 21.834 10.1318C22.4277 10.7257 22.7618 11.5308 22.7627 12.3701C22.7619 13.2094 22.4286 14.0144 21.835 14.6084C21.2413 15.2024 20.4359 15.5369 19.5957 15.5391C18.7556 15.5368 17.95 15.2024 17.3564 14.6084C16.7629 14.0144 16.4295 13.2093 16.4287 12.3701C16.4296 11.5312 16.7632 10.7266 17.3564 10.1328C17.95 9.53897 18.7557 9.20344 19.5957 9.20117ZM19.5996 9.98438C18.9686 9.98553 18.3637 10.2364 17.918 10.6826C17.4721 11.1291 17.2221 11.7346 17.2227 12.3652C17.2224 12.9956 17.4722 13.6007 17.918 14.0469C18.3637 14.493 18.9686 14.7441 19.5996 14.7451C20.231 14.7445 20.8371 14.4932 21.2832 14.0469C21.7291 13.6007 21.9797 12.9957 21.9795 12.3652C21.9795 11.0508 20.9116 9.98438 19.5996 9.98438Z" fill="url(#paint3_linear_41_35)"/>
<defs>
<linearGradient id="paint0_linear_41_35" x1="0" y1="15.5" x2="88" y2="15.5" gradientUnits="userSpaceOnUse">
<stop stop-color="#143B67"/>
<stop offset="1" stop-color="#1D1D1D"/>
</linearGradient>
<linearGradient id="paint1_linear_41_35" x1="15.5" y1="3" x2="15.5" y2="28.0002" gradientUnits="userSpaceOnUse">
<stop offset="1"/>
</linearGradient>
<linearGradient id="paint2_linear_41_35" x1="15.5" y1="3" x2="15.5" y2="28.0002" gradientUnits="userSpaceOnUse">
<stop offset="1"/>
</linearGradient>
<linearGradient id="paint3_linear_41_35" x1="15.5" y1="3" x2="15.5" y2="28.0002" gradientUnits="userSpaceOnUse">
<stop offset="1"/>
</linearGradient>
</defs>
</svg>
