<svg width="88" height="31" viewBox="0 0 88 31" fill="none" xmlns="http://www.w3.org/2000/svg">
<path d="M0 0H88V31H0V0Z" fill="url(#paint0_linear_43_34)"/>
<path d="M32.683 12H31.873V5.574H35.464V6.285H32.683V8.562H35.293V9.273H32.683V12Z" fill="#B3B6BA"/>
<path d="M38.682 7.086C38.772 7.086 38.868 7.092 38.97 7.104C39.078 7.11 39.171 7.122 39.249 7.14L39.15 7.869C39.072 7.851 38.985 7.836 38.889 7.824C38.799 7.812 38.712 7.806 38.628 7.806C38.442 7.806 38.265 7.845 38.097 7.923C37.929 8.001 37.779 8.112 37.647 8.256C37.515 8.394 37.41 8.562 37.332 8.76C37.26 8.958 37.224 9.18 37.224 9.426V12H36.432V7.176H37.08L37.17 8.058H37.206C37.308 7.878 37.431 7.716 37.575 7.572C37.719 7.422 37.884 7.305 38.07 7.221C38.256 7.131 38.46 7.086 38.682 7.086Z" fill="#B3B6BA"/>
<path d="M40.9418 7.176V12H40.1498V7.176H40.9418ZM40.5548 5.367C40.6748 5.367 40.7798 5.409 40.8698 5.493C40.9658 5.571 41.0138 5.697 41.0138 5.871C41.0138 6.039 40.9658 6.165 40.8698 6.249C40.7798 6.333 40.6748 6.375 40.5548 6.375C40.4228 6.375 40.3118 6.333 40.2218 6.249C40.1318 6.165 40.0868 6.039 40.0868 5.871C40.0868 5.697 40.1318 5.571 40.2218 5.493C40.3118 5.409 40.4228 5.367 40.5548 5.367Z" fill="#B3B6BA"/>
<path d="M44.3331 7.086C44.7471 7.086 45.1011 7.176 45.3951 7.356C45.6951 7.536 45.9231 7.791 46.0791 8.121C46.2411 8.445 46.3221 8.826 46.3221 9.264V9.741H43.0191C43.0311 10.287 43.1691 10.704 43.4331 10.992C43.7031 11.274 44.0781 11.415 44.5581 11.415C44.8641 11.415 45.1341 11.388 45.3681 11.334C45.6081 11.274 45.8541 11.19 46.1061 11.082V11.775C45.8601 11.883 45.6171 11.961 45.3771 12.009C45.1371 12.063 44.8521 12.09 44.5221 12.09C44.0661 12.09 43.6611 11.997 43.3071 11.811C42.9591 11.625 42.6861 11.349 42.4881 10.983C42.2961 10.611 42.2001 10.158 42.2001 9.624C42.2001 9.096 42.2871 8.643 42.4611 8.265C42.6411 7.887 42.8901 7.596 43.2081 7.392C43.5321 7.188 43.9071 7.086 44.3331 7.086ZM44.3241 7.734C43.9461 7.734 43.6461 7.857 43.4241 8.103C43.2081 8.343 43.0791 8.679 43.0371 9.111H45.4941C45.4941 8.835 45.4521 8.595 45.3681 8.391C45.2841 8.187 45.1551 8.028 44.9811 7.914C44.8131 7.794 44.5941 7.734 44.3241 7.734Z" fill="#B3B6BA"/>
<path d="M49.8722 7.086C50.4482 7.086 50.8832 7.227 51.1772 7.509C51.4712 7.785 51.6182 8.235 51.6182 8.859V12H50.8352V8.913C50.8352 8.523 50.7482 8.232 50.5742 8.04C50.4002 7.848 50.1272 7.752 49.7552 7.752C49.2212 7.752 48.8522 7.902 48.6482 8.202C48.4442 8.502 48.3422 8.934 48.3422 9.498V12H47.5502V7.176H48.1892L48.3062 7.833H48.3512C48.4592 7.665 48.5912 7.527 48.7472 7.419C48.9092 7.305 49.0862 7.221 49.2782 7.167C49.4702 7.113 49.6682 7.086 49.8722 7.086Z" fill="#B3B6BA"/>
<path d="M54.8236 12.09C54.2236 12.09 53.7436 11.883 53.3836 11.469C53.0236 11.049 52.8436 10.425 52.8436 9.597C52.8436 8.769 53.0236 8.145 53.3836 7.725C53.7496 7.299 54.2326 7.086 54.8326 7.086C55.0846 7.086 55.3036 7.119 55.4896 7.185C55.6756 7.245 55.8376 7.329 55.9756 7.437C56.1136 7.545 56.2306 7.665 56.3266 7.797H56.3806C56.3746 7.719 56.3626 7.605 56.3446 7.455C56.3326 7.299 56.3266 7.176 56.3266 7.086V5.16H57.1186V12H56.4796L56.3626 11.352H56.3266C56.2306 11.49 56.1136 11.616 55.9756 11.73C55.8376 11.838 55.6726 11.925 55.4806 11.991C55.2946 12.057 55.0756 12.09 54.8236 12.09ZM54.9496 11.433C55.4596 11.433 55.8166 11.295 56.0206 11.019C56.2306 10.737 56.3356 10.314 56.3356 9.75V9.606C56.3356 9.006 56.2366 8.547 56.0386 8.229C55.8406 7.905 55.4746 7.743 54.9406 7.743C54.5146 7.743 54.1936 7.914 53.9776 8.256C53.7676 8.592 53.6626 9.045 53.6626 9.615C53.6626 10.191 53.7676 10.638 53.9776 10.956C54.1936 11.274 54.5176 11.433 54.9496 11.433Z" fill="#B3B6BA"/>
<path d="M66.2806 7.086C66.8266 7.086 67.2346 7.227 67.5046 7.509C67.7746 7.785 67.9096 8.235 67.9096 8.859V12H67.1266V8.895C67.1266 8.517 67.0456 8.232 66.8836 8.04C66.7276 7.848 66.4816 7.752 66.1456 7.752C65.6776 7.752 65.3416 7.887 65.1376 8.157C64.9396 8.427 64.8406 8.82 64.8406 9.336V12H64.0576V8.895C64.0576 8.643 64.0216 8.433 63.9496 8.265C63.8776 8.091 63.7696 7.962 63.6256 7.878C63.4816 7.794 63.2956 7.752 63.0676 7.752C62.7436 7.752 62.4886 7.821 62.3026 7.959C62.1166 8.091 61.9816 8.286 61.8976 8.544C61.8196 8.802 61.7806 9.12 61.7806 9.498V12H60.9886V7.176H61.6276L61.7446 7.833H61.7896C61.8916 7.665 62.0146 7.527 62.1586 7.419C62.3086 7.305 62.4736 7.221 62.6536 7.167C62.8336 7.113 63.0196 7.086 63.2116 7.086C63.5836 7.086 63.8926 7.152 64.1386 7.284C64.3906 7.416 64.5736 7.62 64.6876 7.896H64.7326C64.8946 7.62 65.1136 7.416 65.3896 7.284C65.6716 7.152 65.9686 7.086 66.2806 7.086Z" fill="#B3B6BA"/>
<path d="M71.2628 7.086C71.6768 7.086 72.0308 7.176 72.3248 7.356C72.6248 7.536 72.8528 7.791 73.0088 8.121C73.1708 8.445 73.2518 8.826 73.2518 9.264V9.741H69.9488C69.9608 10.287 70.0988 10.704 70.3628 10.992C70.6328 11.274 71.0078 11.415 71.4878 11.415C71.7938 11.415 72.0638 11.388 72.2978 11.334C72.5378 11.274 72.7838 11.19 73.0358 11.082V11.775C72.7898 11.883 72.5468 11.961 72.3068 12.009C72.0668 12.063 71.7818 12.09 71.4518 12.09C70.9958 12.09 70.5908 11.997 70.2368 11.811C69.8888 11.625 69.6158 11.349 69.4178 10.983C69.2258 10.611 69.1298 10.158 69.1298 9.624C69.1298 9.096 69.2168 8.643 69.3908 8.265C69.5708 7.887 69.8198 7.596 70.1378 7.392C70.4618 7.188 70.8368 7.086 71.2628 7.086ZM71.2538 7.734C70.8758 7.734 70.5758 7.857 70.3538 8.103C70.1378 8.343 70.0088 8.679 69.9668 9.111H72.4238C72.4238 8.835 72.3818 8.595 72.2978 8.391C72.2138 8.187 72.0848 8.028 71.9108 7.914C71.7428 7.794 71.5238 7.734 71.2538 7.734Z" fill="#B3B6BA"/>
<path d="M36.278 27H33.44V26.428L34.364 26.219V19.938L33.44 19.718V19.146H36.278V19.718L35.354 19.938V26.219L36.278 26.428V27Z" fill="white"/>
<path d="M44.1305 20.994C44.7979 20.994 45.2965 21.1663 45.6265 21.511C45.9565 21.8483 46.1215 22.3983 46.1215 23.161V27H45.1645V23.205C45.1645 22.743 45.0655 22.3947 44.8675 22.16C44.6769 21.9253 44.3762 21.808 43.9655 21.808C43.3935 21.808 42.9829 21.973 42.7335 22.303C42.4915 22.633 42.3705 23.1133 42.3705 23.744V27H41.4135V23.205C41.4135 22.897 41.3695 22.6403 41.2815 22.435C41.1935 22.2223 41.0615 22.0647 40.8855 21.962C40.7095 21.8593 40.4822 21.808 40.2035 21.808C39.8075 21.808 39.4959 21.8923 39.2685 22.061C39.0412 22.2223 38.8762 22.4607 38.7735 22.776C38.6782 23.0913 38.6305 23.48 38.6305 23.942V27H37.6625V21.104H38.4435L38.5865 21.907H38.6415C38.7662 21.7017 38.9165 21.533 39.0925 21.401C39.2759 21.2617 39.4775 21.159 39.6975 21.093C39.9175 21.027 40.1449 20.994 40.3795 20.994C40.8342 20.994 41.2119 21.0747 41.5125 21.236C41.8205 21.3973 42.0442 21.6467 42.1835 21.984H42.2385C42.4365 21.6467 42.7042 21.3973 43.0415 21.236C43.3862 21.0747 43.7492 20.994 44.1305 20.994Z" fill="white"/>
<path d="M50.1758 21.005C50.8945 21.005 51.4261 21.1627 51.7708 21.478C52.1155 21.7933 52.2878 22.2957 52.2878 22.985V27H51.5838L51.3968 26.164H51.3528C51.1841 26.3767 51.0081 26.5563 50.8248 26.703C50.6488 26.8423 50.4435 26.945 50.2088 27.011C49.9815 27.077 49.7028 27.11 49.3728 27.11C49.0208 27.11 48.7018 27.0477 48.4158 26.923C48.1371 26.7983 47.9171 26.6077 47.7558 26.351C47.5945 26.087 47.5138 25.757 47.5138 25.361C47.5138 24.7743 47.7448 24.3233 48.2068 24.008C48.6688 23.6853 49.3801 23.5093 50.3408 23.48L51.3418 23.447V23.095C51.3418 22.6037 51.2355 22.2627 51.0228 22.072C50.8101 21.8813 50.5095 21.786 50.1208 21.786C49.8128 21.786 49.5195 21.8337 49.2408 21.929C48.9621 22.017 48.7018 22.1197 48.4598 22.237L48.1628 21.511C48.4195 21.3717 48.7238 21.2543 49.0758 21.159C49.4278 21.0563 49.7945 21.005 50.1758 21.005ZM50.4618 24.151C49.7285 24.1803 49.2188 24.2977 48.9328 24.503C48.6541 24.7083 48.5148 24.998 48.5148 25.372C48.5148 25.702 48.6138 25.944 48.8118 26.098C49.0171 26.252 49.2775 26.329 49.5928 26.329C50.0915 26.329 50.5058 26.1933 50.8358 25.922C51.1658 25.6433 51.3308 25.218 51.3308 24.646V24.118L50.4618 24.151Z" fill="white"/>
<path d="M56.4738 27.11C55.9532 27.11 55.4875 27.0037 55.0768 26.791C54.6735 26.5783 54.3545 26.2483 54.1198 25.801C53.8925 25.3537 53.7788 24.7817 53.7788 24.085C53.7788 23.359 53.8998 22.7687 54.1418 22.314C54.3838 21.8593 54.7102 21.5257 55.1208 21.313C55.5388 21.1003 56.0118 20.994 56.5398 20.994C56.8405 20.994 57.1302 21.027 57.4088 21.093C57.6875 21.1517 57.9148 21.225 58.0908 21.313L57.7938 22.116C57.6178 22.05 57.4125 21.9877 57.1778 21.929C56.9432 21.8703 56.7232 21.841 56.5178 21.841C56.1218 21.841 55.7955 21.9253 55.5388 22.094C55.2822 22.2627 55.0915 22.512 54.9668 22.842C54.8422 23.172 54.7798 23.5827 54.7798 24.074C54.7798 24.5433 54.8422 24.943 54.9668 25.273C55.0915 25.603 55.2785 25.8523 55.5278 26.021C55.7772 26.1897 56.0888 26.274 56.4628 26.274C56.7855 26.274 57.0678 26.241 57.3098 26.175C57.5592 26.109 57.7865 26.0283 57.9918 25.933V26.791C57.7938 26.8937 57.5738 26.9707 57.3318 27.022C57.0972 27.0807 56.8112 27.11 56.4738 27.11Z" fill="white"/>
<path d="M61.627 21.005C62.3457 21.005 62.8773 21.1627 63.222 21.478C63.5667 21.7933 63.739 22.2957 63.739 22.985V27H63.035L62.848 26.164H62.804C62.6353 26.3767 62.4593 26.5563 62.276 26.703C62.1 26.8423 61.8947 26.945 61.66 27.011C61.4327 27.077 61.154 27.11 60.824 27.11C60.472 27.11 60.153 27.0477 59.867 26.923C59.5883 26.7983 59.3683 26.6077 59.207 26.351C59.0457 26.087 58.965 25.757 58.965 25.361C58.965 24.7743 59.196 24.3233 59.658 24.008C60.12 23.6853 60.8313 23.5093 61.792 23.48L62.793 23.447V23.095C62.793 22.6037 62.6867 22.2627 62.474 22.072C62.2613 21.8813 61.9607 21.786 61.572 21.786C61.264 21.786 60.9707 21.8337 60.692 21.929C60.4133 22.017 60.153 22.1197 59.911 22.237L59.614 21.511C59.8706 21.3717 60.175 21.2543 60.527 21.159C60.879 21.0563 61.2457 21.005 61.627 21.005ZM61.913 24.151C61.1796 24.1803 60.67 24.2977 60.384 24.503C60.1053 24.7083 59.966 24.998 59.966 25.372C59.966 25.702 60.065 25.944 60.263 26.098C60.4683 26.252 60.7287 26.329 61.044 26.329C61.5427 26.329 61.957 26.1933 62.287 25.922C62.617 25.6433 62.782 25.218 62.782 24.646V24.118L61.913 24.151Z" fill="white"/>
<path d="M67.529 26.318C67.6757 26.318 67.826 26.307 67.98 26.285C68.134 26.2557 68.2587 26.2263 68.354 26.197V26.934C68.2513 26.9853 68.1047 27.0257 67.914 27.055C67.7233 27.0917 67.54 27.11 67.364 27.11C67.056 27.11 66.77 27.0587 66.506 26.956C66.2493 26.846 66.0403 26.659 65.879 26.395C65.7177 26.131 65.637 25.7607 65.637 25.284V21.852H64.801V21.39L65.648 21.005L66.033 19.751H66.605V21.104H68.31V21.852H66.605V25.262C66.605 25.6213 66.6893 25.889 66.858 26.065C67.034 26.2337 67.2577 26.318 67.529 26.318Z" fill="white"/>
<path d="M15.4863 3C22.3973 3 28 8.59648 28 15.5C28 22.4036 22.3973 28 15.4863 28C10.0043 27.9999 5.34483 24.4757 3.65332 19.5732L3.51562 19.1465L8.25195 21.0986C8.48657 22.1642 9.22176 23.0986 10.3018 23.5479C11.1514 23.9005 12.1063 23.9019 12.957 23.5518C13.8076 23.2016 14.4846 22.5288 14.8389 21.6807C15.0278 21.2288 15.1191 20.7415 15.1064 20.252L19.4834 17.125L19.5908 17.127C22.2128 17.127 24.3447 14.9918 24.3447 12.3691C24.3447 9.7465 22.2167 7.61875 19.5908 7.61328C16.9702 7.61342 14.8379 9.74658 14.8379 12.3691H14.8418L14.8428 12.4307L11.7812 16.874C11.2854 16.8514 10.7878 16.9387 10.3154 17.1328C10.1098 17.2163 9.91331 17.321 9.72949 17.4453L3.00586 14.6768L3.00488 14.6797C3.00303 14.6766 3.00186 14.673 3 14.6699C3.42858 8.15392 8.85504 3.00008 15.4863 3Z" fill="url(#paint1_linear_43_34)"/>
<path d="M10.6875 17.8408C11.3045 17.6065 12.006 17.5988 12.6621 17.8711C13.3268 18.1457 13.8353 18.6629 14.1074 19.3242C14.3795 19.9855 14.378 20.7146 14.1035 21.373L13.9883 21.6211C13.3424 22.816 11.8837 23.3485 10.6055 22.8164C10.0004 22.5624 9.51002 22.0947 9.22754 21.5029L10.7754 22.1436C11.0143 22.2428 11.2705 22.2945 11.5293 22.2949C11.7882 22.2953 12.0449 22.2441 12.2842 22.1455C12.5233 22.0469 12.7406 21.9022 12.9238 21.7197C13.1071 21.5371 13.2532 21.3199 13.3525 21.0811C13.5536 20.5985 13.5545 20.0556 13.3555 19.5723C13.1564 19.0891 12.7736 18.7045 12.291 18.5029L10.6875 17.8408Z" fill="url(#paint2_linear_43_34)"/>
<path fill-rule="evenodd" clip-rule="evenodd" d="M19.5957 9.20117C20.4356 9.20332 21.2404 9.53826 21.834 10.1318C22.4277 10.7257 22.7618 11.5308 22.7627 12.3701C22.7619 13.2094 22.4286 14.0144 21.835 14.6084C21.2413 15.2024 20.4359 15.5369 19.5957 15.5391C18.7556 15.5368 17.95 15.2024 17.3564 14.6084C16.7629 14.0144 16.4295 13.2093 16.4287 12.3701C16.4296 11.5312 16.7632 10.7266 17.3564 10.1328C17.95 9.53897 18.7557 9.20344 19.5957 9.20117ZM19.5996 9.98438C18.9686 9.98553 18.3637 10.2364 17.918 10.6826C17.4721 11.1291 17.2221 11.7346 17.2227 12.3652C17.2224 12.9956 17.4722 13.6007 17.918 14.0469C18.3637 14.493 18.9686 14.7441 19.5996 14.7451C20.231 14.7445 20.8371 14.4932 21.2832 14.0469C21.7291 13.6007 21.9797 12.9957 21.9795 12.3652C21.9795 11.0508 20.9116 9.98438 19.5996 9.98438Z" fill="url(#paint3_linear_43_34)"/>
<defs>
<linearGradient id="paint0_linear_43_34" x1="0" y1="15.5" x2="88" y2="15.5" gradientUnits="userSpaceOnUse">
<stop stop-color="#143B67"/>
<stop offset="1" stop-color="#1D1D1D"/>
</linearGradient>
<linearGradient id="paint1_linear_43_34" x1="15.5" y1="3" x2="15.5" y2="28.0002" gradientUnits="userSpaceOnUse">
<stop offset="1"/>
</linearGradient>
<linearGradient id="paint2_linear_43_34" x1="15.5" y1="3" x2="15.5" y2="28.0002" gradientUnits="userSpaceOnUse">
<stop offset="1"/>
</linearGradient>
<linearGradient id="paint3_linear_43_34" x1="15.5" y1="3" x2="15.5" y2="28.0002" gradientUnits="userSpaceOnUse">
<stop offset="1"/>
</linearGradient>
</defs>
</svg>
