<svg width="88" height="31" viewBox="0 0 88 31" fill="none" xmlns="http://www.w3.org/2000/svg">
<path d="M0 0H88V31H0V0Z" fill="url(#paint0_linear_43_36)"/>
<path d="M34.044 23.178C34.366 23.178 34.6413 23.248 34.87 23.388C35.1033 23.528 35.2807 23.7263 35.402 23.983C35.528 24.235 35.591 24.5313 35.591 24.872V25.243H33.022C33.0313 25.6677 33.1387 25.992 33.344 26.216C33.554 26.4353 33.8457 26.545 34.219 26.545C34.457 26.545 34.667 26.524 34.849 26.482C35.0357 26.4353 35.227 26.37 35.423 26.286V26.825C35.2317 26.909 35.0427 26.9697 34.856 27.007C34.6693 27.049 34.4477 27.07 34.191 27.07C33.8363 27.07 33.5213 26.9977 33.246 26.853C32.9753 26.7083 32.763 26.4937 32.609 26.209C32.4597 25.9197 32.385 25.5673 32.385 25.152C32.385 24.7413 32.4527 24.389 32.588 24.095C32.728 23.801 32.9217 23.5747 33.169 23.416C33.421 23.2573 33.7127 23.178 34.044 23.178ZM34.037 23.682C33.743 23.682 33.5097 23.7777 33.337 23.969C33.169 24.1557 33.0687 24.417 33.036 24.753H34.947C34.947 24.5383 34.9143 24.3517 34.849 24.193C34.7837 24.0343 34.6833 23.9107 34.548 23.822C34.4173 23.7287 34.247 23.682 34.037 23.682Z" fill="white"/>
<path d="M37.1622 27H36.5462V21.68H37.1622V27Z" fill="white"/>
<path d="M39.7999 23.178C40.1219 23.178 40.3972 23.248 40.6259 23.388C40.8592 23.528 41.0365 23.7263 41.1579 23.983C41.2839 24.235 41.3469 24.5313 41.3469 24.872V25.243H38.7779C38.7872 25.6677 38.8945 25.992 39.0999 26.216C39.3099 26.4353 39.6015 26.545 39.9749 26.545C40.2129 26.545 40.4229 26.524 40.6049 26.482C40.7915 26.4353 40.9829 26.37 41.1789 26.286V26.825C40.9875 26.909 40.7985 26.9697 40.6119 27.007C40.4252 27.049 40.2035 27.07 39.9469 27.07C39.5922 27.07 39.2772 26.9977 39.0019 26.853C38.7312 26.7083 38.5189 26.4937 38.3649 26.209C38.2155 25.9197 38.1409 25.5673 38.1409 25.152C38.1409 24.7413 38.2085 24.389 38.3439 24.095C38.4839 23.801 38.6775 23.5747 38.9249 23.416C39.1769 23.2573 39.4685 23.178 39.7999 23.178ZM39.7929 23.682C39.4989 23.682 39.2655 23.7777 39.0929 23.969C38.9249 24.1557 38.8245 24.417 38.7919 24.753H40.7029C40.7029 24.5383 40.6702 24.3517 40.6049 24.193C40.5395 24.0343 40.4392 23.9107 40.3039 23.822C40.1732 23.7287 40.0029 23.682 39.7929 23.682Z" fill="white"/>
<path d="M43.807 27.07C43.4757 27.07 43.1794 27.0023 42.918 26.867C42.6614 26.7317 42.4584 26.5217 42.309 26.237C42.1644 25.9523 42.092 25.5883 42.092 25.145C42.092 24.683 42.169 24.3073 42.323 24.018C42.477 23.7287 42.6847 23.5163 42.946 23.381C43.212 23.2457 43.513 23.178 43.849 23.178C44.0404 23.178 44.2247 23.199 44.402 23.241C44.5794 23.2783 44.724 23.325 44.836 23.381L44.647 23.892C44.535 23.85 44.4044 23.8103 44.255 23.773C44.1057 23.7357 43.9657 23.717 43.835 23.717C43.583 23.717 43.3754 23.7707 43.212 23.878C43.0487 23.9853 42.9274 24.144 42.848 24.354C42.7687 24.564 42.729 24.8253 42.729 25.138C42.729 25.4367 42.7687 25.691 42.848 25.901C42.9274 26.111 43.0464 26.2697 43.205 26.377C43.3637 26.4843 43.562 26.538 43.8 26.538C44.0054 26.538 44.185 26.517 44.339 26.475C44.4977 26.433 44.6424 26.3817 44.773 26.321V26.867C44.647 26.9323 44.507 26.9813 44.353 27.014C44.2037 27.0513 44.0217 27.07 43.807 27.07Z" fill="white"/>
<path d="M46.9183 26.566C47.0116 26.566 47.1073 26.559 47.2053 26.545C47.3033 26.5263 47.3826 26.5077 47.4433 26.489V26.958C47.378 26.9907 47.2846 27.0163 47.1633 27.035C47.042 27.0583 46.9253 27.07 46.8133 27.07C46.6173 27.07 46.4353 27.0373 46.2673 26.972C46.104 26.902 45.971 26.783 45.8683 26.615C45.7656 26.447 45.7143 26.2113 45.7143 25.908V23.724H45.1823V23.43L45.7213 23.185L45.9663 22.387H46.3303V23.248H47.4153V23.724H46.3303V25.894C46.3303 26.1227 46.384 26.293 46.4913 26.405C46.6033 26.5123 46.7456 26.566 46.9183 26.566Z" fill="white"/>
<path d="M49.9446 23.178C50.0146 23.178 50.0893 23.1827 50.1686 23.192C50.2526 23.1967 50.3249 23.206 50.3856 23.22L50.3086 23.787C50.2479 23.773 50.1803 23.7613 50.1056 23.752C50.0356 23.7427 49.9679 23.738 49.9026 23.738C49.7579 23.738 49.6203 23.7683 49.4896 23.829C49.3589 23.8897 49.2423 23.976 49.1396 24.088C49.0369 24.1953 48.9553 24.326 48.8946 24.48C48.8386 24.634 48.8106 24.8067 48.8106 24.998V27H48.1946V23.248H48.6986L48.7686 23.934H48.7966C48.8759 23.794 48.9716 23.668 49.0836 23.556C49.1956 23.4393 49.3239 23.3483 49.4686 23.283C49.6133 23.213 49.7719 23.178 49.9446 23.178Z" fill="white"/>
<path d="M54.2115 25.117C54.2115 25.4297 54.1695 25.7073 54.0855 25.95C54.0062 26.188 53.8895 26.391 53.7355 26.559C53.5862 26.727 53.4018 26.8553 53.1825 26.944C52.9678 27.028 52.7275 27.07 52.4615 27.07C52.2142 27.07 51.9855 27.028 51.7755 26.944C51.5655 26.8553 51.3835 26.727 51.2295 26.559C51.0755 26.391 50.9542 26.188 50.8655 25.95C50.7815 25.7073 50.7395 25.4297 50.7395 25.117C50.7395 24.7017 50.8095 24.3517 50.9495 24.067C51.0895 23.7777 51.2902 23.5583 51.5515 23.409C51.8128 23.255 52.1232 23.178 52.4825 23.178C52.8232 23.178 53.1218 23.255 53.3785 23.409C53.6398 23.5583 53.8428 23.7777 53.9875 24.067C54.1368 24.3517 54.2115 24.7017 54.2115 25.117ZM51.3765 25.117C51.3765 25.411 51.4138 25.6677 51.4885 25.887C51.5678 26.1017 51.6892 26.2673 51.8525 26.384C52.0158 26.5007 52.2235 26.559 52.4755 26.559C52.7275 26.559 52.9352 26.5007 53.0985 26.384C53.2618 26.2673 53.3808 26.1017 53.4555 25.887C53.5348 25.6677 53.5745 25.411 53.5745 25.117C53.5745 24.8183 53.5348 24.564 53.4555 24.354C53.3762 24.144 53.2548 23.983 53.0915 23.871C52.9328 23.7543 52.7252 23.696 52.4685 23.696C52.0858 23.696 51.8082 23.822 51.6355 24.074C51.4628 24.326 51.3765 24.6737 51.3765 25.117Z" fill="white"/>
<path d="M56.9938 23.178C57.4418 23.178 57.7801 23.2877 58.0088 23.507C58.2374 23.7217 58.3518 24.0717 58.3518 24.557V27H57.7428V24.599C57.7428 24.2957 57.6751 24.0693 57.5398 23.92C57.4044 23.7707 57.1921 23.696 56.9028 23.696C56.4874 23.696 56.2004 23.8127 56.0418 24.046C55.8831 24.2793 55.8038 24.6153 55.8038 25.054V27H55.1878V23.248H55.6848L55.7758 23.759H55.8108C55.8948 23.6283 55.9974 23.521 56.1188 23.437C56.2448 23.3483 56.3824 23.283 56.5318 23.241C56.6811 23.199 56.8351 23.178 56.9938 23.178Z" fill="white"/>
<path d="M60.1309 23.248V27H59.5149V23.248H60.1309ZM59.8299 21.841C59.9233 21.841 60.0049 21.8737 60.0749 21.939C60.1496 21.9997 60.1869 22.0977 60.1869 22.233C60.1869 22.3637 60.1496 22.4617 60.0749 22.527C60.0049 22.5923 59.9233 22.625 59.8299 22.625C59.7273 22.625 59.6409 22.5923 59.5709 22.527C59.5009 22.4617 59.4659 22.3637 59.4659 22.233C59.4659 22.0977 59.5009 21.9997 59.5709 21.939C59.6409 21.8737 59.7273 21.841 59.8299 21.841Z" fill="white"/>
<path d="M62.8246 27.07C62.4933 27.07 62.1969 27.0023 61.9356 26.867C61.6789 26.7317 61.4759 26.5217 61.3266 26.237C61.1819 25.9523 61.1096 25.5883 61.1096 25.145C61.1096 24.683 61.1866 24.3073 61.3406 24.018C61.4946 23.7287 61.7023 23.5163 61.9636 23.381C62.2296 23.2457 62.5306 23.178 62.8666 23.178C63.0579 23.178 63.2423 23.199 63.4196 23.241C63.5969 23.2783 63.7416 23.325 63.8536 23.381L63.6646 23.892C63.5526 23.85 63.4219 23.8103 63.2726 23.773C63.1233 23.7357 62.9833 23.717 62.8526 23.717C62.6006 23.717 62.3929 23.7707 62.2296 23.878C62.0663 23.9853 61.9449 24.144 61.8656 24.354C61.7863 24.564 61.7466 24.8253 61.7466 25.138C61.7466 25.4367 61.7863 25.691 61.8656 25.901C61.9449 26.111 62.0639 26.2697 62.2226 26.377C62.3813 26.4843 62.5796 26.538 62.8176 26.538C63.0229 26.538 63.2026 26.517 63.3566 26.475C63.5153 26.433 63.6599 26.3817 63.7906 26.321V26.867C63.6646 26.9323 63.5246 26.9813 63.3706 27.014C63.2213 27.0513 63.0393 27.07 62.8246 27.07Z" fill="white"/>
<path d="M64.3679 25.397V24.851H66.0619V25.397H64.3679Z" fill="white"/>
<path d="M68.3597 23.185C68.8171 23.185 69.1554 23.2853 69.3747 23.486C69.5941 23.6867 69.7038 24.0063 69.7038 24.445V27H69.2558L69.1367 26.468H69.1087C69.0014 26.6033 68.8894 26.7177 68.7728 26.811C68.6608 26.8997 68.5301 26.965 68.3808 27.007C68.2361 27.049 68.0587 27.07 67.8487 27.07C67.6247 27.07 67.4218 27.0303 67.2398 26.951C67.0624 26.8717 66.9224 26.7503 66.8197 26.587C66.7171 26.419 66.6657 26.209 66.6657 25.957C66.6657 25.5837 66.8128 25.2967 67.1068 25.096C67.4008 24.8907 67.8534 24.7787 68.4648 24.76L69.1018 24.739V24.515C69.1018 24.2023 69.0341 23.9853 68.8988 23.864C68.7634 23.7427 68.5721 23.682 68.3248 23.682C68.1288 23.682 67.9421 23.7123 67.7647 23.773C67.5874 23.829 67.4218 23.8943 67.2678 23.969L67.0788 23.507C67.2421 23.4183 67.4358 23.3437 67.6598 23.283C67.8838 23.2177 68.1171 23.185 68.3597 23.185ZM68.5417 25.187C68.0751 25.2057 67.7507 25.2803 67.5687 25.411C67.3914 25.5417 67.3027 25.726 67.3027 25.964C67.3027 26.174 67.3658 26.328 67.4918 26.426C67.6224 26.524 67.7881 26.573 67.9887 26.573C68.3061 26.573 68.5697 26.4867 68.7797 26.314C68.9897 26.1367 69.0947 25.866 69.0947 25.502V25.166L68.5417 25.187Z" fill="white"/>
<path d="M72.1926 27.07C71.7259 27.07 71.3526 26.909 71.0726 26.587C70.7926 26.2603 70.6526 25.775 70.6526 25.131C70.6526 24.487 70.7926 24.0017 71.0726 23.675C71.3572 23.3437 71.7329 23.178 72.1996 23.178C72.3956 23.178 72.5659 23.2037 72.7106 23.255C72.8552 23.3017 72.9812 23.367 73.0886 23.451C73.1959 23.535 73.2869 23.6283 73.3616 23.731H73.4036C73.3989 23.6703 73.3896 23.5817 73.3756 23.465C73.3662 23.3437 73.3616 23.248 73.3616 23.178V21.68H73.9776V27H73.4806L73.3896 26.496H73.3616C73.2869 26.6033 73.1959 26.7013 73.0886 26.79C72.9812 26.874 72.8529 26.9417 72.7036 26.993C72.5589 27.0443 72.3886 27.07 72.1926 27.07ZM72.2906 26.559C72.6872 26.559 72.9649 26.4517 73.1236 26.237C73.2869 26.0177 73.3686 25.6887 73.3686 25.25V25.138C73.3686 24.6713 73.2916 24.3143 73.1376 24.067C72.9836 23.815 72.6989 23.689 72.2836 23.689C71.9522 23.689 71.7026 23.822 71.5346 24.088C71.3712 24.3493 71.2896 24.7017 71.2896 25.145C71.2896 25.593 71.3712 25.9407 71.5346 26.188C71.7026 26.4353 71.9546 26.559 72.2906 26.559Z" fill="white"/>
<path d="M75.7852 23.241C75.7852 23.3297 75.7806 23.4207 75.7712 23.514C75.7666 23.6073 75.7596 23.6913 75.7502 23.766H75.7922C75.8716 23.6353 75.9719 23.528 76.0932 23.444C76.2145 23.36 76.3499 23.297 76.4992 23.255C76.6486 23.2083 76.8026 23.185 76.9612 23.185C77.2646 23.185 77.5165 23.234 77.7172 23.332C77.9225 23.4253 78.0766 23.5723 78.1792 23.773C78.2819 23.9737 78.3332 24.235 78.3332 24.557V27H77.7242V24.599C77.7242 24.2957 77.6566 24.0693 77.5212 23.92C77.3859 23.7707 77.1735 23.696 76.8842 23.696C76.6042 23.696 76.3849 23.7497 76.2262 23.857C76.0676 23.9597 75.9532 24.1137 75.8832 24.319C75.8179 24.5197 75.7852 24.767 75.7852 25.061V27H75.1692V21.68H75.7852V23.241Z" fill="white"/>
<path d="M80.8264 27.07C80.3597 27.07 79.9864 26.909 79.7064 26.587C79.4264 26.2603 79.2864 25.775 79.2864 25.131C79.2864 24.487 79.4264 24.0017 79.7064 23.675C79.991 23.3437 80.3667 23.178 80.8334 23.178C81.0294 23.178 81.1997 23.2037 81.3444 23.255C81.489 23.3017 81.615 23.367 81.7224 23.451C81.8297 23.535 81.9207 23.6283 81.9954 23.731H82.0374C82.0327 23.6703 82.0234 23.5817 82.0094 23.465C82 23.3437 81.9954 23.248 81.9954 23.178V21.68H82.6114V27H82.1144L82.0234 26.496H81.9954C81.9207 26.6033 81.8297 26.7013 81.7224 26.79C81.615 26.874 81.4867 26.9417 81.3374 26.993C81.1927 27.0443 81.0224 27.07 80.8264 27.07ZM80.9244 26.559C81.321 26.559 81.5987 26.4517 81.7574 26.237C81.9207 26.0177 82.0024 25.6887 82.0024 25.25V25.138C82.0024 24.6713 81.9254 24.3143 81.7714 24.067C81.6174 23.815 81.3327 23.689 80.9174 23.689C80.586 23.689 80.3364 23.822 80.1684 24.088C80.005 24.3493 79.9234 24.7017 79.9234 25.145C79.9234 25.593 80.005 25.9407 80.1684 26.188C80.3364 26.4353 80.5884 26.559 80.9244 26.559Z" fill="white"/>
<path d="M32.683 12H31.873V5.574H35.464V6.285H32.683V8.562H35.293V9.273H32.683V12Z" fill="#B3B6BA"/>
<path d="M40.626 9.579C40.626 9.981 40.572 10.338 40.464 10.65C40.362 10.956 40.212 11.217 40.014 11.433C39.822 11.649 39.585 11.814 39.303 11.928C39.027 12.036 38.718 12.09 38.376 12.09C38.058 12.09 37.764 12.036 37.494 11.928C37.224 11.814 36.99 11.649 36.792 11.433C36.594 11.217 36.438 10.956 36.324 10.65C36.216 10.338 36.162 9.981 36.162 9.579C36.162 9.045 36.252 8.595 36.432 8.229C36.612 7.857 36.87 7.575 37.206 7.383C37.542 7.185 37.941 7.086 38.403 7.086C38.841 7.086 39.225 7.185 39.555 7.383C39.891 7.575 40.152 7.857 40.338 8.229C40.53 8.595 40.626 9.045 40.626 9.579ZM36.981 9.579C36.981 9.957 37.029 10.287 37.125 10.569C37.227 10.845 37.383 11.058 37.593 11.208C37.803 11.358 38.07 11.433 38.394 11.433C38.718 11.433 38.985 11.358 39.195 11.208C39.405 11.058 39.558 10.845 39.654 10.569C39.756 10.287 39.807 9.957 39.807 9.579C39.807 9.195 39.756 8.868 39.654 8.598C39.552 8.328 39.396 8.121 39.186 7.977C38.982 7.827 38.715 7.752 38.385 7.752C37.893 7.752 37.536 7.914 37.314 8.238C37.092 8.562 36.981 9.009 36.981 9.579Z" fill="#B3B6BA"/>
<path d="M42.6732 12H41.8812V5.16H42.6732V12Z" fill="#B3B6BA"/>
<path d="M44.9935 12H44.2015V5.16H44.9935V12Z" fill="#B3B6BA"/>
<path d="M50.7158 9.579C50.7158 9.981 50.6618 10.338 50.5538 10.65C50.4518 10.956 50.3018 11.217 50.1038 11.433C49.9118 11.649 49.6748 11.814 49.3928 11.928C49.1168 12.036 48.8078 12.09 48.4658 12.09C48.1478 12.09 47.8538 12.036 47.5838 11.928C47.3138 11.814 47.0798 11.649 46.8818 11.433C46.6838 11.217 46.5278 10.956 46.4138 10.65C46.3058 10.338 46.2518 9.981 46.2518 9.579C46.2518 9.045 46.3418 8.595 46.5218 8.229C46.7018 7.857 46.9598 7.575 47.2958 7.383C47.6318 7.185 48.0308 7.086 48.4928 7.086C48.9308 7.086 49.3148 7.185 49.6448 7.383C49.9808 7.575 50.2418 7.857 50.4278 8.229C50.6198 8.595 50.7158 9.045 50.7158 9.579ZM47.0708 9.579C47.0708 9.957 47.1188 10.287 47.2148 10.569C47.3168 10.845 47.4728 11.058 47.6828 11.208C47.8928 11.358 48.1598 11.433 48.4838 11.433C48.8078 11.433 49.0748 11.358 49.2848 11.208C49.4948 11.058 49.6478 10.845 49.7438 10.569C49.8458 10.287 49.8968 9.957 49.8968 9.579C49.8968 9.195 49.8458 8.868 49.7438 8.598C49.6418 8.328 49.4858 8.121 49.2758 7.977C49.0718 7.827 48.8048 7.752 48.4748 7.752C47.9828 7.752 47.6258 7.914 47.4038 8.238C47.1818 8.562 47.0708 9.009 47.0708 9.579Z" fill="#B3B6BA"/>
<path d="M54.9093 9.273C54.8733 9.147 54.8373 9.024 54.8013 8.904C54.7653 8.778 54.7323 8.661 54.7023 8.553C54.6783 8.439 54.6543 8.334 54.6303 8.238C54.6063 8.142 54.5883 8.061 54.5763 7.995H54.5403C54.5283 8.061 54.5103 8.142 54.4863 8.238C54.4683 8.334 54.4443 8.439 54.4143 8.553C54.3903 8.667 54.3603 8.787 54.3243 8.913C54.2943 9.033 54.2583 9.156 54.2163 9.282L53.3523 11.991H52.4523L51.1293 7.167H51.9483L52.6143 9.741C52.6623 9.915 52.7073 10.092 52.7493 10.272C52.7913 10.446 52.8273 10.614 52.8573 10.776C52.8933 10.932 52.9173 11.067 52.9293 11.181H52.9653C52.9833 11.109 53.0043 11.019 53.0283 10.911C53.0523 10.803 53.0763 10.689 53.1003 10.569C53.1303 10.449 53.1603 10.329 53.1903 10.209C53.2263 10.089 53.2593 9.981 53.2893 9.885L54.1443 7.167H55.0083L55.8363 9.885C55.8783 10.023 55.9203 10.17 55.9623 10.326C56.0103 10.482 56.0523 10.635 56.0883 10.785C56.1243 10.929 56.1483 11.058 56.1603 11.172H56.1963C56.2083 11.07 56.2293 10.944 56.2593 10.794C56.2953 10.638 56.3343 10.47 56.3763 10.29C56.4243 10.104 56.4723 9.921 56.5203 9.741L57.1953 7.167H58.0053L56.6643 11.991H55.7373L54.9093 9.273Z" fill="#B3B6BA"/>
<path d="M64.1514 12L62.0364 6.366H62.0004C62.0124 6.486 62.0214 6.639 62.0274 6.825C62.0394 7.011 62.0484 7.215 62.0544 7.437C62.0604 7.653 62.0634 7.875 62.0634 8.103V12H61.3164V5.574H62.5134L64.4934 10.839H64.5294L66.5454 5.574H67.7334V12H66.9324V8.049C66.9324 7.839 66.9354 7.632 66.9414 7.428C66.9474 7.218 66.9564 7.023 66.9684 6.843C66.9804 6.657 66.9894 6.501 66.9954 6.375H66.9594L64.8174 12H64.1514Z" fill="#B3B6BA"/>
<path d="M71.2364 7.086C71.6504 7.086 72.0044 7.176 72.2984 7.356C72.5984 7.536 72.8264 7.791 72.9824 8.121C73.1444 8.445 73.2254 8.826 73.2254 9.264V9.741H69.9224C69.9344 10.287 70.0724 10.704 70.3364 10.992C70.6064 11.274 70.9814 11.415 71.4614 11.415C71.7674 11.415 72.0374 11.388 72.2714 11.334C72.5114 11.274 72.7574 11.19 73.0094 11.082V11.775C72.7634 11.883 72.5204 11.961 72.2804 12.009C72.0404 12.063 71.7554 12.09 71.4254 12.09C70.9694 12.09 70.5644 11.997 70.2104 11.811C69.8624 11.625 69.5894 11.349 69.3914 10.983C69.1994 10.611 69.1034 10.158 69.1034 9.624C69.1034 9.096 69.1904 8.643 69.3644 8.265C69.5444 7.887 69.7934 7.596 70.1114 7.392C70.4354 7.188 70.8104 7.086 71.2364 7.086ZM71.2274 7.734C70.8494 7.734 70.5494 7.857 70.3274 8.103C70.1114 8.343 69.9824 8.679 69.9404 9.111H72.3974C72.3974 8.835 72.3554 8.595 72.2714 8.391C72.1874 8.187 72.0584 8.028 71.8844 7.914C71.7164 7.794 71.4974 7.734 71.2274 7.734Z" fill="#B3B6BA"/>
<path d="M19.4141 19.6912C19.1241 19.8295 18.5696 19.9498 18.1562 19.9602C16.9078 19.9936 16.6655 19.0833 16.6555 18.4234V13.5694H19.7868V11.2085H16.6663V7.23653C16.6663 7.23653 14.4194 7.23653 14.3828 7.23653C14.3452 7.23653 14.2796 7.26944 14.2703 7.35293C14.1367 8.56856 13.568 10.7022 11.2023 11.5553V13.5693H12.7805V18.6638C12.7805 20.4082 14.0672 22.8864 17.464 22.8279C18.6101 22.8083 19.8829 22.3286 20.164 21.9145L19.4141 19.6912Z" fill="white"/>
<defs>
<linearGradient id="paint0_linear_43_36" x1="0" y1="15.5" x2="88" y2="15.5" gradientUnits="userSpaceOnUse">
<stop stop-color="#314358"/>
<stop offset="1" stop-color="#1D1D1D"/>
</linearGradient>
</defs>
</svg>
