<svg width="88" height="31" viewBox="0 0 88 31" fill="none" xmlns="http://www.w3.org/2000/svg">
<path d="M0 0H88V31H0V0Z" fill="url(#paint0_linear_41_37)"/>
<path d="M39.46 23.27C39.69 23.27 39.8867 23.32 40.05 23.42C40.2167 23.52 40.3433 23.6617 40.43 23.845C40.52 24.025 40.565 24.2367 40.565 24.48V24.745H38.73C38.7367 25.0483 38.8133 25.28 38.96 25.44C39.11 25.5967 39.3183 25.675 39.585 25.675C39.755 25.675 39.905 25.66 40.035 25.63C40.1683 25.5967 40.305 25.55 40.445 25.49V25.875C40.3083 25.935 40.1733 25.9783 40.04 26.005C39.9067 26.035 39.7483 26.05 39.565 26.05C39.3117 26.05 39.0867 25.9983 38.89 25.895C38.6967 25.7917 38.545 25.6383 38.435 25.435C38.3283 25.2283 38.275 24.9767 38.275 24.68C38.275 24.3867 38.3233 24.135 38.42 23.925C38.52 23.715 38.6583 23.5533 38.835 23.44C39.015 23.3267 39.2233 23.27 39.46 23.27ZM39.455 23.63C39.245 23.63 39.0783 23.6983 38.955 23.835C38.835 23.9683 38.7633 24.155 38.74 24.395H40.105C40.105 24.2417 40.0817 24.1083 40.035 23.995C39.9883 23.8817 39.9167 23.7933 39.82 23.73C39.7267 23.6633 39.605 23.63 39.455 23.63Z" fill="white"/>
<path d="M41.6873 26H41.2473V22.2H41.6873V26Z" fill="white"/>
<path d="M43.5713 23.27C43.8013 23.27 43.998 23.32 44.1613 23.42C44.328 23.52 44.4547 23.6617 44.5413 23.845C44.6313 24.025 44.6763 24.2367 44.6763 24.48V24.745H42.8413C42.848 25.0483 42.9247 25.28 43.0713 25.44C43.2213 25.5967 43.4297 25.675 43.6963 25.675C43.8663 25.675 44.0163 25.66 44.1463 25.63C44.2797 25.5967 44.4163 25.55 44.5563 25.49V25.875C44.4197 25.935 44.2847 25.9783 44.1513 26.005C44.018 26.035 43.8597 26.05 43.6763 26.05C43.423 26.05 43.198 25.9983 43.0013 25.895C42.808 25.7917 42.6563 25.6383 42.5463 25.435C42.4397 25.2283 42.3863 24.9767 42.3863 24.68C42.3863 24.3867 42.4347 24.135 42.5313 23.925C42.6313 23.715 42.7697 23.5533 42.9463 23.44C43.1263 23.3267 43.3347 23.27 43.5713 23.27ZM43.5663 23.63C43.3563 23.63 43.1897 23.6983 43.0663 23.835C42.9463 23.9683 42.8747 24.155 42.8513 24.395H44.2163C44.2163 24.2417 44.193 24.1083 44.1463 23.995C44.0997 23.8817 44.028 23.7933 43.9313 23.73C43.838 23.6633 43.7163 23.63 43.5663 23.63Z" fill="white"/>
<path d="M46.4336 26.05C46.1969 26.05 45.9853 26.0017 45.7986 25.905C45.6153 25.8083 45.4703 25.6583 45.3636 25.455C45.2603 25.2517 45.2086 24.9917 45.2086 24.675C45.2086 24.345 45.2636 24.0767 45.3736 23.87C45.4836 23.6633 45.6319 23.5117 45.8186 23.415C46.0086 23.3183 46.2236 23.27 46.4636 23.27C46.6003 23.27 46.7319 23.285 46.8586 23.315C46.9853 23.3417 47.0886 23.375 47.1686 23.415L47.0336 23.78C46.9536 23.75 46.8603 23.7217 46.7536 23.695C46.6469 23.6683 46.5469 23.655 46.4536 23.655C46.2736 23.655 46.1253 23.6933 46.0086 23.77C45.8919 23.8467 45.8053 23.96 45.7486 24.11C45.6919 24.26 45.6636 24.4467 45.6636 24.67C45.6636 24.8833 45.6919 25.065 45.7486 25.215C45.8053 25.365 45.8903 25.4783 46.0036 25.555C46.1169 25.6317 46.2586 25.67 46.4286 25.67C46.5753 25.67 46.7036 25.655 46.8136 25.625C46.9269 25.595 47.0303 25.5583 47.1236 25.515V25.905C47.0336 25.9517 46.9336 25.9867 46.8236 26.01C46.7169 26.0367 46.5869 26.05 46.4336 26.05Z" fill="white"/>
<path d="M48.6559 25.69C48.7226 25.69 48.7909 25.685 48.8609 25.675C48.9309 25.6617 48.9876 25.6483 49.0309 25.635V25.97C48.9843 25.9933 48.9176 26.0117 48.8309 26.025C48.7443 26.0417 48.6609 26.05 48.5809 26.05C48.4409 26.05 48.3109 26.0267 48.1909 25.98C48.0743 25.93 47.9793 25.845 47.9059 25.725C47.8326 25.605 47.7959 25.4367 47.7959 25.22V23.66H47.4159V23.45L47.8009 23.275L47.9759 22.705H48.2359V23.32H49.0109V23.66H48.2359V25.21C48.2359 25.3733 48.2743 25.495 48.3509 25.575C48.4309 25.6517 48.5326 25.69 48.6559 25.69Z" fill="white"/>
<path d="M50.8176 23.27C50.8676 23.27 50.9209 23.2733 50.9776 23.28C51.0376 23.2833 51.0892 23.29 51.1326 23.3L51.0776 23.705C51.0342 23.695 50.9859 23.6867 50.9326 23.68C50.8826 23.6733 50.8342 23.67 50.7876 23.67C50.6842 23.67 50.5859 23.6917 50.4926 23.735C50.3992 23.7783 50.3159 23.84 50.2426 23.92C50.1692 23.9967 50.1109 24.09 50.0676 24.2C50.0276 24.31 50.0076 24.4333 50.0076 24.57V26H49.5676V23.32H49.9276L49.9776 23.81H49.9976C50.0542 23.71 50.1226 23.62 50.2026 23.54C50.2826 23.4567 50.3742 23.3917 50.4776 23.345C50.5809 23.295 50.6942 23.27 50.8176 23.27Z" fill="white"/>
<path d="M53.8654 24.655C53.8654 24.8783 53.8354 25.0767 53.7754 25.25C53.7187 25.42 53.6354 25.565 53.5254 25.685C53.4187 25.805 53.287 25.8967 53.1304 25.96C52.977 26.02 52.8054 26.05 52.6154 26.05C52.4387 26.05 52.2754 26.02 52.1254 25.96C51.9754 25.8967 51.8454 25.805 51.7354 25.685C51.6254 25.565 51.5387 25.42 51.4754 25.25C51.4154 25.0767 51.3854 24.8783 51.3854 24.655C51.3854 24.3583 51.4354 24.1083 51.5354 23.905C51.6354 23.6983 51.7787 23.5417 51.9654 23.435C52.152 23.325 52.3737 23.27 52.6304 23.27C52.8737 23.27 53.087 23.325 53.2704 23.435C53.457 23.5417 53.602 23.6983 53.7054 23.905C53.812 24.1083 53.8654 24.3583 53.8654 24.655ZM51.8404 24.655C51.8404 24.865 51.867 25.0483 51.9204 25.205C51.977 25.3583 52.0637 25.4767 52.1804 25.56C52.297 25.6433 52.4454 25.685 52.6254 25.685C52.8054 25.685 52.9537 25.6433 53.0704 25.56C53.187 25.4767 53.272 25.3583 53.3254 25.205C53.382 25.0483 53.4104 24.865 53.4104 24.655C53.4104 24.4417 53.382 24.26 53.3254 24.11C53.2687 23.96 53.182 23.845 53.0654 23.765C52.952 23.6817 52.8037 23.64 52.6203 23.64C52.347 23.64 52.1487 23.73 52.0254 23.91C51.902 24.09 51.8404 24.3383 51.8404 24.655Z" fill="white"/>
<path d="M55.8527 23.27C56.1727 23.27 56.4144 23.3483 56.5777 23.505C56.741 23.6583 56.8227 23.9083 56.8227 24.255V26H56.3877V24.285C56.3877 24.0683 56.3394 23.9067 56.2427 23.8C56.146 23.6933 55.9944 23.64 55.7877 23.64C55.491 23.64 55.286 23.7233 55.1727 23.89C55.0594 24.0567 55.0027 24.2967 55.0027 24.61V26H54.5627V23.32H54.9177L54.9827 23.685H55.0077C55.0677 23.5917 55.141 23.515 55.2277 23.455C55.3177 23.3917 55.416 23.345 55.5227 23.315C55.6294 23.285 55.7394 23.27 55.8527 23.27Z" fill="white"/>
<path d="M58.0935 23.32V26H57.6535V23.32H58.0935ZM57.8785 22.315C57.9452 22.315 58.0035 22.3383 58.0535 22.385C58.1068 22.4283 58.1335 22.4983 58.1335 22.595C58.1335 22.6883 58.1068 22.7583 58.0535 22.805C58.0035 22.8517 57.9452 22.875 57.8785 22.875C57.8052 22.875 57.7435 22.8517 57.6935 22.805C57.6435 22.7583 57.6185 22.6883 57.6185 22.595C57.6185 22.4983 57.6435 22.4283 57.6935 22.385C57.7435 22.3383 57.8052 22.315 57.8785 22.315Z" fill="white"/>
<path d="M60.0176 26.05C59.7809 26.05 59.5692 26.0017 59.3826 25.905C59.1992 25.8083 59.0542 25.6583 58.9476 25.455C58.8442 25.2517 58.7926 24.9917 58.7926 24.675C58.7926 24.345 58.8476 24.0767 58.9576 23.87C59.0676 23.6633 59.2159 23.5117 59.4026 23.415C59.5926 23.3183 59.8076 23.27 60.0476 23.27C60.1842 23.27 60.3159 23.285 60.4426 23.315C60.5692 23.3417 60.6726 23.375 60.7526 23.415L60.6176 23.78C60.5376 23.75 60.4442 23.7217 60.3376 23.695C60.2309 23.6683 60.1309 23.655 60.0376 23.655C59.8576 23.655 59.7092 23.6933 59.5926 23.77C59.4759 23.8467 59.3892 23.96 59.3326 24.11C59.2759 24.26 59.2476 24.4467 59.2476 24.67C59.2476 24.8833 59.2759 25.065 59.3326 25.215C59.3892 25.365 59.4742 25.4783 59.5876 25.555C59.7009 25.6317 59.8426 25.67 60.0126 25.67C60.1592 25.67 60.2876 25.655 60.3976 25.625C60.5109 25.595 60.6142 25.5583 60.7076 25.515V25.905C60.6176 25.9517 60.5176 25.9867 60.4076 26.01C60.3009 26.0367 60.1709 26.05 60.0176 26.05Z" fill="white"/>
<path d="M61.1199 24.855V24.465H62.3299V24.855H61.1199Z" fill="white"/>
<path d="M63.9712 23.275C64.2979 23.275 64.5396 23.3467 64.6963 23.49C64.8529 23.6333 64.9313 23.8617 64.9313 24.175V26H64.6113L64.5263 25.62H64.5062C64.4296 25.7167 64.3496 25.7983 64.2663 25.865C64.1863 25.9283 64.0929 25.975 63.9863 26.005C63.8829 26.035 63.7563 26.05 63.6063 26.05C63.4463 26.05 63.3012 26.0217 63.1712 25.965C63.0446 25.9083 62.9446 25.8217 62.8713 25.705C62.7979 25.585 62.7612 25.435 62.7612 25.255C62.7612 24.9883 62.8662 24.7833 63.0762 24.64C63.2862 24.4933 63.6096 24.4133 64.0462 24.4L64.5013 24.385V24.225C64.5013 24.0017 64.4529 23.8467 64.3562 23.76C64.2596 23.6733 64.1229 23.63 63.9463 23.63C63.8063 23.63 63.6729 23.6517 63.5462 23.695C63.4196 23.735 63.3012 23.7817 63.1912 23.835L63.0563 23.505C63.1729 23.4417 63.3112 23.3883 63.4712 23.345C63.6312 23.2983 63.7979 23.275 63.9712 23.275ZM64.1012 24.705C63.7679 24.7183 63.5363 24.7717 63.4062 24.865C63.2796 24.9583 63.2163 25.09 63.2163 25.26C63.2163 25.41 63.2612 25.52 63.3512 25.59C63.4446 25.66 63.5629 25.695 63.7062 25.695C63.9329 25.695 64.1212 25.6333 64.2712 25.51C64.4212 25.3833 64.4962 25.19 64.4962 24.93V24.69L64.1012 24.705Z" fill="white"/>
<path d="M66.709 26.05C66.3757 26.05 66.109 25.935 65.909 25.705C65.709 25.4717 65.609 25.125 65.609 24.665C65.609 24.205 65.709 23.8583 65.909 23.625C66.1123 23.3883 66.3806 23.27 66.714 23.27C66.854 23.27 66.9757 23.2883 67.079 23.325C67.1823 23.3583 67.2723 23.405 67.349 23.465C67.4257 23.525 67.4907 23.5917 67.544 23.665H67.574C67.5706 23.6217 67.564 23.5583 67.554 23.475C67.5473 23.3883 67.544 23.32 67.544 23.27V22.2H67.984V26H67.629L67.564 25.64H67.544C67.4907 25.7167 67.4257 25.7867 67.349 25.85C67.2723 25.91 67.1806 25.9583 67.074 25.995C66.9706 26.0317 66.849 26.05 66.709 26.05ZM66.779 25.685C67.0623 25.685 67.2607 25.6083 67.374 25.455C67.4907 25.2983 67.549 25.0633 67.549 24.75V24.67C67.549 24.3367 67.494 24.0817 67.384 23.905C67.274 23.725 67.0707 23.635 66.774 23.635C66.5373 23.635 66.359 23.73 66.239 23.92C66.1223 24.1067 66.064 24.3583 66.064 24.675C66.064 24.995 66.1223 25.2433 66.239 25.42C66.359 25.5967 66.539 25.685 66.779 25.685Z" fill="white"/>
<path d="M69.2752 23.315C69.2752 23.3783 69.2718 23.4433 69.2652 23.51C69.2618 23.5767 69.2568 23.6367 69.2502 23.69H69.2802C69.3368 23.5967 69.4085 23.52 69.4952 23.46C69.5818 23.4 69.6785 23.355 69.7852 23.325C69.8918 23.2917 70.0018 23.275 70.1152 23.275C70.3318 23.275 70.5118 23.31 70.6552 23.38C70.8018 23.4467 70.9118 23.5517 70.9852 23.695C71.0585 23.8383 71.0952 24.025 71.0952 24.255V26H70.6602V24.285C70.6602 24.0683 70.6118 23.9067 70.5152 23.8C70.4185 23.6933 70.2668 23.64 70.0602 23.64C69.8602 23.64 69.7035 23.6783 69.5902 23.755C69.4768 23.8283 69.3952 23.9383 69.3452 24.085C69.2985 24.2283 69.2752 24.405 69.2752 24.615V26H68.8352V22.2H69.2752V23.315Z" fill="white"/>
<path d="M72.876 26.05C72.5426 26.05 72.276 25.935 72.076 25.705C71.876 25.4717 71.776 25.125 71.776 24.665C71.776 24.205 71.876 23.8583 72.076 23.625C72.2793 23.3883 72.5476 23.27 72.881 23.27C73.021 23.27 73.1426 23.2883 73.246 23.325C73.3493 23.3583 73.4393 23.405 73.516 23.465C73.5926 23.525 73.6576 23.5917 73.711 23.665H73.741C73.7376 23.6217 73.731 23.5583 73.721 23.475C73.7143 23.3883 73.711 23.32 73.711 23.27V22.2H74.151V26H73.796L73.731 25.64H73.711C73.6576 25.7167 73.5926 25.7867 73.516 25.85C73.4393 25.91 73.3476 25.9583 73.241 25.995C73.1376 26.0317 73.016 26.05 72.876 26.05ZM72.946 25.685C73.2293 25.685 73.4276 25.6083 73.541 25.455C73.6576 25.2983 73.716 25.0633 73.716 24.75V24.67C73.716 24.3367 73.661 24.0817 73.551 23.905C73.441 23.725 73.2376 23.635 72.941 23.635C72.7043 23.635 72.526 23.73 72.406 23.92C72.2893 24.1067 72.231 24.3583 72.231 24.675C72.231 24.995 72.2893 25.2433 72.406 25.42C72.526 25.5967 72.706 25.685 72.946 25.685Z" fill="white"/>
<path d="M38.496 12H37.776V6.288H40.968V6.92H38.496V8.944H40.816V9.576H38.496V12Z" fill="#B3B6BA"/>
<path d="M45.5564 9.848C45.5564 10.2053 45.5084 10.5227 45.4124 10.8C45.3218 11.072 45.1884 11.304 45.0124 11.496C44.8418 11.688 44.6311 11.8347 44.3804 11.936C44.1351 12.032 43.8604 12.08 43.5564 12.08C43.2738 12.08 43.0124 12.032 42.7724 11.936C42.5324 11.8347 42.3244 11.688 42.1484 11.496C41.9724 11.304 41.8338 11.072 41.7324 10.8C41.6364 10.5227 41.5884 10.2053 41.5884 9.848C41.5884 9.37333 41.6684 8.97333 41.8284 8.648C41.9884 8.31733 42.2178 8.06667 42.5164 7.896C42.8151 7.72 43.1698 7.632 43.5804 7.632C43.9698 7.632 44.3111 7.72 44.6044 7.896C44.9031 8.06667 45.1351 8.31733 45.3004 8.648C45.4711 8.97333 45.5564 9.37333 45.5564 9.848ZM42.3164 9.848C42.3164 10.184 42.3591 10.4773 42.4444 10.728C42.5351 10.9733 42.6738 11.1627 42.8604 11.296C43.0471 11.4293 43.2844 11.496 43.5724 11.496C43.8604 11.496 44.0978 11.4293 44.2844 11.296C44.4711 11.1627 44.6071 10.9733 44.6924 10.728C44.7831 10.4773 44.8284 10.184 44.8284 9.848C44.8284 9.50667 44.7831 9.216 44.6924 8.976C44.6018 8.736 44.4631 8.552 44.2764 8.424C44.0951 8.29067 43.8578 8.224 43.5644 8.224C43.1271 8.224 42.8098 8.368 42.6124 8.656C42.4151 8.944 42.3164 9.34133 42.3164 9.848Z" fill="#B3B6BA"/>
<path d="M47.3762 12H46.6722V5.92H47.3762V12Z" fill="#B3B6BA"/>
<path d="M49.4387 12H48.7347V5.92H49.4387V12Z" fill="#B3B6BA"/>
<path d="M54.5252 9.848C54.5252 10.2053 54.4772 10.5227 54.3812 10.8C54.2905 11.072 54.1572 11.304 53.9812 11.496C53.8105 11.688 53.5999 11.8347 53.3492 11.936C53.1039 12.032 52.8292 12.08 52.5252 12.08C52.2425 12.08 51.9812 12.032 51.7412 11.936C51.5012 11.8347 51.2932 11.688 51.1172 11.496C50.9412 11.304 50.8025 11.072 50.7012 10.8C50.6052 10.5227 50.5572 10.2053 50.5572 9.848C50.5572 9.37333 50.6372 8.97333 50.7972 8.648C50.9572 8.31733 51.1865 8.06667 51.4852 7.896C51.7839 7.72 52.1385 7.632 52.5492 7.632C52.9385 7.632 53.2799 7.72 53.5732 7.896C53.8719 8.06667 54.1039 8.31733 54.2692 8.648C54.4399 8.97333 54.5252 9.37333 54.5252 9.848ZM51.2852 9.848C51.2852 10.184 51.3279 10.4773 51.4132 10.728C51.5039 10.9733 51.6425 11.1627 51.8292 11.296C52.0159 11.4293 52.2532 11.496 52.5412 11.496C52.8292 11.496 53.0665 11.4293 53.2532 11.296C53.4399 11.1627 53.5759 10.9733 53.6612 10.728C53.7519 10.4773 53.7972 10.184 53.7972 9.848C53.7972 9.50667 53.7519 9.216 53.6612 8.976C53.5705 8.736 53.4319 8.552 53.2452 8.424C53.0639 8.29067 52.8265 8.224 52.5332 8.224C52.0959 8.224 51.7785 8.368 51.5812 8.656C51.3839 8.944 51.2852 9.34133 51.2852 9.848Z" fill="#B3B6BA"/>
<path d="M58.2527 9.576C58.2207 9.464 58.1887 9.35467 58.1567 9.248C58.1247 9.136 58.0954 9.032 58.0687 8.936C58.0474 8.83467 58.026 8.74133 58.0047 8.656C57.9834 8.57067 57.9674 8.49867 57.9567 8.44H57.9247C57.914 8.49867 57.898 8.57067 57.8767 8.656C57.8607 8.74133 57.8394 8.83467 57.8127 8.936C57.7914 9.03733 57.7647 9.144 57.7327 9.256C57.706 9.36267 57.674 9.472 57.6367 9.584L56.8687 11.992H56.0687L54.8927 7.704H55.6207L56.2127 9.992C56.2554 10.1467 56.2954 10.304 56.3327 10.464C56.37 10.6187 56.402 10.768 56.4287 10.912C56.4607 11.0507 56.482 11.1707 56.4927 11.272H56.5247C56.5407 11.208 56.5594 11.128 56.5807 11.032C56.602 10.936 56.6234 10.8347 56.6447 10.728C56.6714 10.6213 56.698 10.5147 56.7247 10.408C56.7567 10.3013 56.786 10.2053 56.8127 10.12L57.5727 7.704H58.3407L59.0767 10.12C59.114 10.2427 59.1514 10.3733 59.1887 10.512C59.2314 10.6507 59.2687 10.7867 59.3007 10.92C59.3327 11.048 59.354 11.1627 59.3647 11.264H59.3967C59.4074 11.1733 59.426 11.0613 59.4527 10.928C59.4847 10.7893 59.5194 10.64 59.5567 10.48C59.5994 10.3147 59.642 10.152 59.6847 9.992L60.2847 7.704H61.0047L59.8127 11.992H58.9887L58.2527 9.576Z" fill="#B3B6BA"/>
<path d="M66.4679 12L64.5879 6.992H64.5559C64.5665 7.09867 64.5745 7.23467 64.5799 7.4C64.5905 7.56533 64.5985 7.74667 64.6039 7.944C64.6092 8.136 64.6119 8.33333 64.6119 8.536V12H63.9479V6.288H65.0119L66.7719 10.968H66.8039L68.5959 6.288H69.6519V12H68.9399V8.488C68.9399 8.30133 68.9425 8.11733 68.9479 7.936C68.9532 7.74933 68.9612 7.576 68.9719 7.416C68.9825 7.25067 68.9905 7.112 68.9959 7H68.9639L67.0599 12H66.4679Z" fill="#B3B6BA"/>
<path d="M72.7657 7.632C73.1337 7.632 73.4484 7.712 73.7097 7.872C73.9764 8.032 74.179 8.25867 74.3177 8.552C74.4617 8.84 74.5337 9.17867 74.5337 9.568V9.992H71.5977C71.6084 10.4773 71.731 10.848 71.9657 11.104C72.2057 11.3547 72.539 11.48 72.9657 11.48C73.2377 11.48 73.4777 11.456 73.6857 11.408C73.899 11.3547 74.1177 11.28 74.3417 11.184V11.8C74.123 11.896 73.907 11.9653 73.6937 12.008C73.4804 12.056 73.227 12.08 72.9337 12.08C72.5284 12.08 72.1684 11.9973 71.8537 11.832C71.5444 11.6667 71.3017 11.4213 71.1257 11.096C70.955 10.7653 70.8697 10.3627 70.8697 9.888C70.8697 9.41867 70.947 9.016 71.1017 8.68C71.2617 8.344 71.483 8.08533 71.7657 7.904C72.0537 7.72267 72.387 7.632 72.7657 7.632ZM72.7577 8.208C72.4217 8.208 72.155 8.31733 71.9577 8.536C71.7657 8.74933 71.651 9.048 71.6137 9.432H73.7977C73.7977 9.18667 73.7604 8.97333 73.6857 8.792C73.611 8.61067 73.4964 8.46933 73.3417 8.368C73.1924 8.26133 72.9977 8.208 72.7577 8.208Z" fill="#B3B6BA"/>
<path d="M19.4141 19.6912C19.1241 19.8295 18.5696 19.9498 18.1562 19.9602C16.9078 19.9936 16.6655 19.0833 16.6555 18.4234V13.5694H19.7868V11.2085H16.6663V7.23653C16.6663 7.23653 14.4194 7.23653 14.3828 7.23653C14.3452 7.23653 14.2796 7.26944 14.2703 7.35293C14.1367 8.56856 13.568 10.7022 11.2023 11.5553V13.5693H12.7805V18.6638C12.7805 20.4082 14.0672 22.8864 17.464 22.8279C18.6101 22.8083 19.8829 22.3286 20.164 21.9145L19.4141 19.6912Z" fill="white"/>
<defs>
<linearGradient id="paint0_linear_41_37" x1="0" y1="15.5" x2="88" y2="15.5" gradientUnits="userSpaceOnUse">
<stop stop-color="#314358"/>
<stop offset="1" stop-color="#1D1D1D"/>
</linearGradient>
</defs>
</svg>
