<svg width="96" height="39" viewBox="0 0 96 39" fill="none" xmlns="http://www.w3.org/2000/svg">
<g filter="url(#filter0_d_2_9)">
<rect x="4" width="88" height="31" fill="url(#paint0_linear_2_9)"/>
</g>
<path d="M19.4781 3C12.9025 3 7.51031 8.0625 7 14.4969L13.7123 17.2656C14.2811 16.8792 14.9677 16.651 15.7076 16.651C15.7734 16.651 15.8381 16.6552 15.9038 16.6573L18.8895 12.3427V12.2812C18.8895 9.68229 21.0059 7.56875 23.6107 7.56875C26.2133 7.56875 28.3318 9.68437 28.3318 12.2844C28.3318 14.8844 26.2133 16.9979 23.6107 16.9979H23.5011L19.2475 20.0302C19.2475 20.0844 19.2516 20.1396 19.2516 20.1958C19.2516 22.149 17.6706 23.7333 15.7139 23.7333C14.0076 23.7333 12.5665 22.5115 12.2377 20.8927L7.43204 18.9062C8.92019 24.1531 13.7457 28 19.4781 28C26.3939 28 32 22.4031 32 15.5C32 8.59687 26.3928 3 19.4781 3ZM14.8456 21.9687L13.3084 21.3333C13.5819 21.899 14.0536 22.374 14.6797 22.6354C16.0332 23.1969 17.5944 22.5562 18.1569 21.2031C18.4314 20.5469 18.4324 19.8292 18.1621 19.1729C17.8918 18.5167 17.3794 18.0052 16.7251 17.7323C16.0739 17.4615 15.3789 17.4729 14.7653 17.701L16.3546 18.3573C17.3523 18.774 17.8251 19.9198 17.4076 20.9146C16.9933 21.9115 15.8443 22.3833 14.8456 21.9687ZM26.7581 12.2781C26.7581 10.5469 25.3461 9.1375 23.6117 9.1375C21.8741 9.1375 20.4653 10.5469 20.4653 12.2781C20.4653 14.0125 21.8741 15.4187 23.6117 15.4187C25.3472 15.4187 26.7581 14.0125 26.7581 12.2781ZM21.2553 12.2729C21.2553 10.9688 22.3124 9.9125 23.619 9.9125C24.9224 9.9125 25.9838 10.9688 25.9838 12.2729C25.9838 13.576 24.9224 14.6323 23.619 14.6323C22.3114 14.6323 21.2553 13.576 21.2553 12.2729Z" fill="black"/>
<path d="M47.158 26H44.062V25.376L45.07 25.148V18.296L44.062 18.056V17.432H47.158V18.056L46.15 18.296V25.148L47.158 25.376V26ZM55.7244 19.448C56.4524 19.448 56.9964 19.636 57.3564 20.012C57.7164 20.38 57.8964 20.98 57.8964 21.812V26H56.8524V21.86C56.8524 21.356 56.7444 20.976 56.5284 20.72C56.3204 20.464 55.9924 20.336 55.5444 20.336C54.9204 20.336 54.4724 20.516 54.2004 20.876C53.9364 21.236 53.8044 21.76 53.8044 22.448V26H52.7604V21.86C52.7604 21.524 52.7124 21.244 52.6164 21.02C52.5204 20.788 52.3764 20.616 52.1844 20.504C51.9924 20.392 51.7444 20.336 51.4404 20.336C51.0084 20.336 50.6684 20.428 50.4204 20.612C50.1724 20.788 49.9924 21.048 49.8804 21.392C49.7764 21.736 49.7244 22.16 49.7244 22.664V26H48.6684V19.568H49.5204L49.6764 20.444H49.7364C49.8724 20.22 50.0364 20.036 50.2284 19.892C50.4284 19.74 50.6484 19.628 50.8884 19.556C51.1284 19.484 51.3764 19.448 51.6324 19.448C52.1284 19.448 52.5404 19.536 52.8684 19.712C53.2044 19.888 53.4484 20.16 53.6004 20.528H53.6604C53.8764 20.16 54.1684 19.888 54.5364 19.712C54.9124 19.536 55.3084 19.448 55.7244 19.448ZM62.3193 19.46C63.1033 19.46 63.6833 19.632 64.0593 19.976C64.4353 20.32 64.6233 20.868 64.6233 21.62V26H63.8553L63.6513 25.088H63.6033C63.4193 25.32 63.2273 25.516 63.0273 25.676C62.8353 25.828 62.6113 25.94 62.3553 26.012C62.1073 26.084 61.8033 26.12 61.4433 26.12C61.0593 26.12 60.7113 26.052 60.3993 25.916C60.0953 25.78 59.8553 25.572 59.6793 25.292C59.5033 25.004 59.4153 24.644 59.4153 24.212C59.4153 23.572 59.6673 23.08 60.1713 22.736C60.6753 22.384 61.4513 22.192 62.4993 22.16L63.5913 22.124V21.74C63.5913 21.204 63.4753 20.832 63.2433 20.624C63.0113 20.416 62.6833 20.312 62.2593 20.312C61.9233 20.312 61.6033 20.364 61.2993 20.468C60.9953 20.564 60.7113 20.676 60.4473 20.804L60.1233 20.012C60.4033 19.86 60.7353 19.732 61.1193 19.628C61.5033 19.516 61.9033 19.46 62.3193 19.46ZM62.6313 22.892C61.8313 22.924 61.2753 23.052 60.9633 23.276C60.6593 23.5 60.5073 23.816 60.5073 24.224C60.5073 24.584 60.6153 24.848 60.8313 25.016C61.0553 25.184 61.3393 25.268 61.6833 25.268C62.2273 25.268 62.6793 25.12 63.0393 24.824C63.3993 24.52 63.5793 24.056 63.5793 23.432V22.856L62.6313 22.892ZM69.1898 26.12C68.6218 26.12 68.1138 26.004 67.6658 25.772C67.2258 25.54 66.8778 25.18 66.6218 24.692C66.3738 24.204 66.2498 23.58 66.2498 22.82C66.2498 22.028 66.3818 21.384 66.6458 20.888C66.9098 20.392 67.2658 20.028 67.7138 19.796C68.1698 19.564 68.6858 19.448 69.2618 19.448C69.5898 19.448 69.9058 19.484 70.2098 19.556C70.5138 19.62 70.7618 19.7 70.9538 19.796L70.6298 20.672C70.4378 20.6 70.2138 20.532 69.9578 20.468C69.7018 20.404 69.4618 20.372 69.2378 20.372C68.8058 20.372 68.4498 20.464 68.1698 20.648C67.8898 20.832 67.6818 21.104 67.5458 21.464C67.4098 21.824 67.3418 22.272 67.3418 22.808C67.3418 23.32 67.4098 23.756 67.5458 24.116C67.6818 24.476 67.8858 24.748 68.1578 24.932C68.4298 25.116 68.7698 25.208 69.1778 25.208C69.5298 25.208 69.8378 25.172 70.1018 25.1C70.3738 25.028 70.6218 24.94 70.8458 24.836V25.772C70.6298 25.884 70.3898 25.968 70.1258 26.024C69.8698 26.088 69.5578 26.12 69.1898 26.12ZM74.8115 19.46C75.5955 19.46 76.1755 19.632 76.5515 19.976C76.9275 20.32 77.1155 20.868 77.1155 21.62V26H76.3475L76.1435 25.088H76.0955C75.9115 25.32 75.7195 25.516 75.5195 25.676C75.3275 25.828 75.1035 25.94 74.8475 26.012C74.5995 26.084 74.2955 26.12 73.9355 26.12C73.5515 26.12 73.2035 26.052 72.8915 25.916C72.5875 25.78 72.3475 25.572 72.1715 25.292C71.9955 25.004 71.9075 24.644 71.9075 24.212C71.9075 23.572 72.1595 23.08 72.6635 22.736C73.1675 22.384 73.9435 22.192 74.9915 22.16L76.0835 22.124V21.74C76.0835 21.204 75.9675 20.832 75.7355 20.624C75.5035 20.416 75.1755 20.312 74.7515 20.312C74.4155 20.312 74.0955 20.364 73.7915 20.468C73.4875 20.564 73.2035 20.676 72.9395 20.804L72.6155 20.012C72.8955 19.86 73.2275 19.732 73.6115 19.628C73.9955 19.516 74.3955 19.46 74.8115 19.46ZM75.1235 22.892C74.3235 22.924 73.7675 23.052 73.4555 23.276C73.1515 23.5 72.9995 23.816 72.9995 24.224C72.9995 24.584 73.1075 24.848 73.3235 25.016C73.5475 25.184 73.8315 25.268 74.1755 25.268C74.7195 25.268 75.1715 25.12 75.5315 24.824C75.8915 24.52 76.0715 24.056 76.0715 23.432V22.856L75.1235 22.892ZM81.25 25.256C81.41 25.256 81.574 25.244 81.742 25.22C81.91 25.188 82.046 25.156 82.15 25.124V25.928C82.038 25.984 81.878 26.028 81.67 26.06C81.462 26.1 81.262 26.12 81.07 26.12C80.734 26.12 80.422 26.064 80.134 25.952C79.854 25.832 79.626 25.628 79.45 25.34C79.274 25.052 79.186 24.648 79.186 24.128V20.384H78.274V19.88L79.198 19.46L79.618 18.092H80.242V19.568H82.102V20.384H80.242V24.104C80.242 24.496 80.334 24.788 80.518 24.98C80.71 25.164 80.954 25.256 81.25 25.256Z" fill="white"/>
<path d="M41.6601 12H40.9401V6.288H44.1321V6.92H41.6601V8.944H43.9801V9.576H41.6601V12ZM46.9925 7.632C47.0725 7.632 47.1578 7.63733 47.2485 7.648C47.3445 7.65333 47.4272 7.664 47.4965 7.68L47.4085 8.328C47.3392 8.312 47.2618 8.29867 47.1765 8.288C47.0965 8.27733 47.0192 8.272 46.9445 8.272C46.7792 8.272 46.6218 8.30667 46.4725 8.376C46.3232 8.44533 46.1898 8.544 46.0725 8.672C45.9552 8.79467 45.8618 8.944 45.7925 9.12C45.7285 9.296 45.6965 9.49333 45.6965 9.712V12H44.9925V7.712H45.5685L45.6485 8.496H45.6805C45.7712 8.336 45.8805 8.192 46.0085 8.064C46.1365 7.93067 46.2832 7.82667 46.4485 7.752C46.6138 7.672 46.7952 7.632 46.9925 7.632ZM49.0012 7.712V12H48.2972V7.712H49.0012ZM48.6572 6.104C48.7639 6.104 48.8572 6.14133 48.9372 6.216C49.0225 6.28533 49.0652 6.39733 49.0652 6.552C49.0652 6.70133 49.0225 6.81333 48.9372 6.888C48.8572 6.96267 48.7639 7 48.6572 7C48.5399 7 48.4412 6.96267 48.3612 6.888C48.2812 6.81333 48.2412 6.70133 48.2412 6.552C48.2412 6.39733 48.2812 6.28533 48.3612 6.216C48.4412 6.14133 48.5399 6.104 48.6572 6.104ZM52.0157 7.632C52.3837 7.632 52.6984 7.712 52.9597 7.872C53.2264 8.032 53.429 8.25867 53.5677 8.552C53.7117 8.84 53.7837 9.17867 53.7837 9.568V9.992H50.8477C50.8584 10.4773 50.981 10.848 51.2157 11.104C51.4557 11.3547 51.789 11.48 52.2157 11.48C52.4877 11.48 52.7277 11.456 52.9357 11.408C53.149 11.3547 53.3677 11.28 53.5917 11.184V11.8C53.373 11.896 53.157 11.9653 52.9437 12.008C52.7304 12.056 52.477 12.08 52.1837 12.08C51.7784 12.08 51.4184 11.9973 51.1037 11.832C50.7944 11.6667 50.5517 11.4213 50.3757 11.096C50.205 10.7653 50.1197 10.3627 50.1197 9.888C50.1197 9.41867 50.197 9.016 50.3517 8.68C50.5117 8.344 50.733 8.08533 51.0157 7.904C51.3037 7.72267 51.637 7.632 52.0157 7.632ZM52.0077 8.208C51.6717 8.208 51.405 8.31733 51.2077 8.536C51.0157 8.74933 50.901 9.048 50.8637 9.432H53.0477C53.0477 9.18667 53.0104 8.97333 52.9357 8.792C52.861 8.61067 52.7464 8.46933 52.5917 8.368C52.4424 8.26133 52.2477 8.208 52.0077 8.208ZM56.9393 7.632C57.4513 7.632 57.838 7.75733 58.0993 8.008C58.3606 8.25333 58.4913 8.65333 58.4913 9.208V12H57.7953V9.256C57.7953 8.90933 57.718 8.65067 57.5633 8.48C57.4086 8.30933 57.166 8.224 56.8353 8.224C56.3606 8.224 56.0326 8.35733 55.8513 8.624C55.67 8.89067 55.5793 9.27467 55.5793 9.776V12H54.8753V7.712H55.4433L55.5473 8.296H55.5873C55.6833 8.14667 55.8006 8.024 55.9393 7.928C56.0833 7.82667 56.2406 7.752 56.4113 7.704C56.582 7.656 56.758 7.632 56.9393 7.632ZM61.3406 12.08C60.8073 12.08 60.3806 11.896 60.0606 11.528C59.7406 11.1547 59.5806 10.6 59.5806 9.864C59.5806 9.128 59.7406 8.57333 60.0606 8.2C60.386 7.82133 60.8153 7.632 61.3486 7.632C61.5726 7.632 61.7673 7.66133 61.9326 7.72C62.098 7.77333 62.242 7.848 62.3646 7.944C62.4873 8.04 62.5913 8.14667 62.6766 8.264H62.7246C62.7193 8.19467 62.7086 8.09333 62.6926 7.96C62.682 7.82133 62.6766 7.712 62.6766 7.632V5.92H63.3806V12H62.8126L62.7086 11.424H62.6766C62.5913 11.5467 62.4873 11.6587 62.3646 11.76C62.242 11.856 62.0953 11.9333 61.9246 11.992C61.7593 12.0507 61.5646 12.08 61.3406 12.08ZM61.4526 11.496C61.906 11.496 62.2233 11.3733 62.4046 11.128C62.5913 10.8773 62.6846 10.5013 62.6846 10V9.872C62.6846 9.33867 62.5966 8.93067 62.4206 8.648C62.2446 8.36 61.9193 8.216 61.4446 8.216C61.066 8.216 60.7806 8.368 60.5886 8.672C60.402 8.97067 60.3086 9.37333 60.3086 9.88C60.3086 10.392 60.402 10.7893 60.5886 11.072C60.7806 11.3547 61.0686 11.496 61.4526 11.496ZM69.4366 12L67.5566 6.992H67.5246C67.5353 7.09867 67.5433 7.23467 67.5486 7.4C67.5593 7.56533 67.5673 7.74667 67.5726 7.944C67.578 8.136 67.5806 8.33333 67.5806 8.536V12H66.9166V6.288H67.9806L69.7406 10.968H69.7726L71.5646 6.288H72.6206V12H71.9086V8.488C71.9086 8.30133 71.9113 8.11733 71.9166 7.936C71.922 7.74933 71.93 7.576 71.9406 7.416C71.9513 7.25067 71.9593 7.112 71.9646 7H71.9326L70.0286 12H69.4366ZM75.7344 7.632C76.1024 7.632 76.4171 7.712 76.6784 7.872C76.9451 8.032 77.1478 8.25867 77.2864 8.552C77.4304 8.84 77.5024 9.17867 77.5024 9.568V9.992H74.5664C74.5771 10.4773 74.6998 10.848 74.9344 11.104C75.1744 11.3547 75.5078 11.48 75.9344 11.48C76.2064 11.48 76.4464 11.456 76.6544 11.408C76.8678 11.3547 77.0864 11.28 77.3104 11.184V11.8C77.0918 11.896 76.8758 11.9653 76.6624 12.008C76.4491 12.056 76.1958 12.08 75.9024 12.08C75.4971 12.08 75.1371 11.9973 74.8224 11.832C74.5131 11.6667 74.2704 11.4213 74.0944 11.096C73.9238 10.7653 73.8384 10.3627 73.8384 9.888C73.8384 9.41867 73.9158 9.016 74.0704 8.68C74.2304 8.344 74.4518 8.08533 74.7344 7.904C75.0224 7.72267 75.3558 7.632 75.7344 7.632ZM75.7264 8.208C75.3904 8.208 75.1238 8.31733 74.9264 8.536C74.7344 8.74933 74.6198 9.048 74.5824 9.432H76.7664C76.7664 9.18667 76.7291 8.97333 76.6544 8.792C76.5798 8.61067 76.4651 8.46933 76.3104 8.368C76.1611 8.26133 75.9664 8.208 75.7264 8.208Z" fill="white" fill-opacity="0.7"/>
<defs>
<filter id="filter0_d_2_9" x="0" y="0" width="96" height="39" filterUnits="userSpaceOnUse" color-interpolation-filters="sRGB">
<feFlood flood-opacity="0" result="BackgroundImageFix"/>
<feColorMatrix in="SourceAlpha" type="matrix" values="0 0 0 0 0 0 0 0 0 0 0 0 0 0 0 0 0 0 127 0" result="hardAlpha"/>
<feOffset dy="4"/>
<feGaussianBlur stdDeviation="2"/>
<feComposite in2="hardAlpha" operator="out"/>
<feColorMatrix type="matrix" values="0 0 0 0 0 0 0 0 0 0 0 0 0 0 0 0 0 0 0.25 0"/>
<feBlend mode="normal" in2="BackgroundImageFix" result="effect1_dropShadow_2_9"/>
<feBlend mode="normal" in="SourceGraphic" in2="effect1_dropShadow_2_9" result="shape"/>
</filter>
<linearGradient id="paint0_linear_2_9" x1="4" y1="15.5" x2="92" y2="15.5" gradientUnits="userSpaceOnUse">
<stop stop-color="#123E71"/>
<stop offset="1"/>
</linearGradient>
</defs>
</svg>
